solid OpenSCAD_Model
  facet normal 0.866025 0.5 0
    outer loop
      vertex 4.56773 2.03368 1
      vertex 4.04508 2.93893 0
      vertex 4.04508 2.93893 1
    endloop
  endfacet
  facet normal 0.866025 0.5 0
    outer loop
      vertex 4.04508 2.93893 0
      vertex 4.56773 2.03368 1
      vertex 4.56773 2.03368 0
    endloop
  endfacet
  facet normal -0.951057 0.309017 0
    outer loop
      vertex -4.89074 1.03956 0
      vertex -4.56773 2.03368 1
      vertex -4.56773 2.03368 0
    endloop
  endfacet
  facet normal -0.951057 0.309017 0
    outer loop
      vertex -4.56773 2.03368 1
      vertex -4.89074 1.03956 0
      vertex -4.89074 1.03956 1
    endloop
  endfacet
  facet normal 0.743145 0.669131 0
    outer loop
      vertex 4.04508 2.93893 1
      vertex 3.34565 3.71572 0
      vertex 3.34565 3.71572 1
    endloop
  endfacet
  facet normal 0.743145 0.669131 0
    outer loop
      vertex 3.34565 3.71572 0
      vertex 4.04508 2.93893 1
      vertex 4.04508 2.93893 0
    endloop
  endfacet
  facet normal 0.207912 0.978147 -0
    outer loop
      vertex 0.639544 4.94776 0
      vertex 0.522642 4.97261 1
      vertex 0.639544 4.94776 1
    endloop
  endfacet
  facet normal 0.207912 0.978147 0
    outer loop
      vertex 0.522642 4.97261 1
      vertex 0.639544 4.94776 0
      vertex 0.522642 4.97261 0
    endloop
  endfacet
  facet normal -0.207911 0.978148 0
    outer loop
      vertex -0.522642 4.97261 0
      vertex -1.54508 4.75528 1
      vertex -0.522642 4.97261 1
    endloop
  endfacet
  facet normal -0.207911 0.978148 0
    outer loop
      vertex -1.54508 4.75528 1
      vertex -0.522642 4.97261 0
      vertex -1.54508 4.75528 0
    endloop
  endfacet
  facet normal -0.866025 0.5 0
    outer loop
      vertex -4.56773 2.03368 0
      vertex -4.04508 2.93893 1
      vertex -4.04508 2.93893 0
    endloop
  endfacet
  facet normal -0.866025 0.5 0
    outer loop
      vertex -4.04508 2.93893 1
      vertex -4.56773 2.03368 0
      vertex -4.56773 2.03368 1
    endloop
  endfacet
  facet normal 0.994522 -0.104529 0
    outer loop
      vertex 4.89074 -1.03956 1
      vertex 5 0 0
      vertex 5 0 1
    endloop
  endfacet
  facet normal 0.994522 -0.104529 0
    outer loop
      vertex 5 0 0
      vertex 4.89074 -1.03956 1
      vertex 4.89074 -1.03956 0
    endloop
  endfacet
  facet normal 0.951057 0.309017 0
    outer loop
      vertex 4.89074 1.03956 1
      vertex 4.56773 2.03368 0
      vertex 4.56773 2.03368 1
    endloop
  endfacet
  facet normal 0.951057 0.309017 0
    outer loop
      vertex 4.56773 2.03368 0
      vertex 4.89074 1.03956 1
      vertex 4.89074 1.03956 0
    endloop
  endfacet
  facet normal 0.587785 0.809017 -0
    outer loop
      vertex 3.34565 3.71572 0
      vertex 3.00994 3.95963 1
      vertex 3.34565 3.71572 1
    endloop
  endfacet
  facet normal 0.587785 0.809017 0
    outer loop
      vertex 3.00994 3.95963 1
      vertex 3.34565 3.71572 0
      vertex 3.00994 3.95963 0
    endloop
  endfacet
  facet normal 0 1 -0
    outer loop
      vertex 0.522642 4.97261 0
      vertex -0.522642 4.97261 1
      vertex 0.522642 4.97261 1
    endloop
  endfacet
  facet normal 0 1 0
    outer loop
      vertex -0.522642 4.97261 1
      vertex 0.522642 4.97261 0
      vertex -0.522642 4.97261 0
    endloop
  endfacet
  facet normal -0.994522 0.104529 0
    outer loop
      vertex -5 0 0
      vertex -4.89074 1.03956 1
      vertex -4.89074 1.03956 0
    endloop
  endfacet
  facet normal -0.994522 0.104529 0
    outer loop
      vertex -4.89074 1.03956 1
      vertex -5 0 0
      vertex -5 0 1
    endloop
  endfacet
  facet normal -0.743145 0.669131 0
    outer loop
      vertex -4.04508 2.93893 0
      vertex -3.34565 3.71572 1
      vertex -3.34565 3.71572 0
    endloop
  endfacet
  facet normal -0.743145 0.669131 0
    outer loop
      vertex -3.34565 3.71572 1
      vertex -4.04508 2.93893 0
      vertex -4.04508 2.93893 1
    endloop
  endfacet
  facet normal -0.406737 0.913545 0
    outer loop
      vertex -1.54508 4.75528 0
      vertex -2.5 4.33013 1
      vertex -1.54508 4.75528 1
    endloop
  endfacet
  facet normal -0.406737 0.913545 0
    outer loop
      vertex -2.5 4.33013 1
      vertex -1.54508 4.75528 0
      vertex -2.5 4.33013 0
    endloop
  endfacet
  facet normal -0.587785 0.809017 0
    outer loop
      vertex -2.5 4.33013 0
      vertex -3.34565 3.71572 1
      vertex -2.5 4.33013 1
    endloop
  endfacet
  facet normal -0.587785 0.809017 0
    outer loop
      vertex -3.34565 3.71572 1
      vertex -2.5 4.33013 0
      vertex -3.34565 3.71572 0
    endloop
  endfacet
  facet normal 0.994522 0.104529 0
    outer loop
      vertex 5 0 1
      vertex 4.89074 1.03956 0
      vertex 4.89074 1.03956 1
    endloop
  endfacet
  facet normal 0.994522 0.104529 0
    outer loop
      vertex 4.89074 1.03956 0
      vertex 5 0 1
      vertex 5 0 0
    endloop
  endfacet
  facet normal 0.951057 -0.309017 0
    outer loop
      vertex 4.56773 -2.03368 1
      vertex 4.89074 -1.03956 0
      vertex 4.89074 -1.03956 1
    endloop
  endfacet
  facet normal 0.951057 -0.309017 0
    outer loop
      vertex 4.89074 -1.03956 0
      vertex 4.56773 -2.03368 1
      vertex 4.56773 -2.03368 0
    endloop
  endfacet
  facet normal -0.587785 -0.809017 0
    outer loop
      vertex -2.85499 -4.07221 0
      vertex -2.5 -4.33013 1
      vertex -2.85499 -4.07221 1
    endloop
  endfacet
  facet normal -0.587785 -0.809017 -0
    outer loop
      vertex -2.5 -4.33013 1
      vertex -2.85499 -4.07221 0
      vertex -2.5 -4.33013 0
    endloop
  endfacet
  facet normal 0.587785 -0.809017 0
    outer loop
      vertex 2.5 -4.33013 0
      vertex 3.34565 -3.71572 1
      vertex 2.5 -4.33013 1
    endloop
  endfacet
  facet normal 0.587785 -0.809017 0
    outer loop
      vertex 3.34565 -3.71572 1
      vertex 2.5 -4.33013 0
      vertex 3.34565 -3.71572 0
    endloop
  endfacet
  facet normal 0 0 1
    outer loop
      vertex -5 0 1
      vertex -4.5 0 1
      vertex -4.89074 1.03956 1
    endloop
  endfacet
  facet normal 0 -0 1
    outer loop
      vertex -4.89074 -1.03956 1
      vertex -4.5 0 1
      vertex -5 0 1
    endloop
  endfacet
  facet normal 0 0 1
    outer loop
      vertex -4.5 0 1
      vertex -4.89074 -1.03956 1
      vertex -4.61615 -1.88465 1
    endloop
  endfacet
  facet normal -0 0 1
    outer loop
      vertex -0.522642 4.97261 1
      vertex 0.276151 4.47535 1
      vertex 0.522642 4.97261 1
    endloop
  endfacet
  facet normal 0 0 1
    outer loop
      vertex 0.276151 4.47535 1
      vertex -0.522642 4.97261 1
      vertex -0.470378 4.47535 1
    endloop
  endfacet
  facet normal 0 0 1
    outer loop
      vertex -0.522642 4.97261 1
      vertex -1.39058 4.27975 1
      vertex -0.470378 4.47535 1
    endloop
  endfacet
  facet normal -0 0 1
    outer loop
      vertex -1.54508 4.75528 1
      vertex -1.39058 4.27975 1
      vertex -0.522642 4.97261 1
    endloop
  endfacet
  facet normal 0 0 1
    outer loop
      vertex -1.54508 4.75528 1
      vertex -2.25 3.89711 1
      vertex -1.39058 4.27975 1
    endloop
  endfacet
  facet normal -0 0 1
    outer loop
      vertex -2.5 4.33013 1
      vertex -2.25 3.89711 1
      vertex -1.54508 4.75528 1
    endloop
  endfacet
  facet normal 0 0 1
    outer loop
      vertex -2.5 4.33013 1
      vertex -3.01109 3.34415 1
      vertex -2.25 3.89711 1
    endloop
  endfacet
  facet normal -0 0 1
    outer loop
      vertex -3.34565 3.71572 1
      vertex -3.01109 3.34415 1
      vertex -2.5 4.33013 1
    endloop
  endfacet
  facet normal 0 0 1
    outer loop
      vertex -3.34565 3.71572 1
      vertex -3.64058 2.64503 1
      vertex -3.01109 3.34415 1
    endloop
  endfacet
  facet normal -0 0 1
    outer loop
      vertex -4.04508 2.93893 1
      vertex -3.64058 2.64503 1
      vertex -3.34565 3.71572 1
    endloop
  endfacet
  facet normal 0 0 1
    outer loop
      vertex -4.04508 2.93893 1
      vertex -4.11095 1.83031 1
      vertex -3.64058 2.64503 1
    endloop
  endfacet
  facet normal -0 0 1
    outer loop
      vertex -4.56773 2.03368 1
      vertex -4.11095 1.83031 1
      vertex -4.04508 2.93893 1
    endloop
  endfacet
  facet normal -0 0 1
    outer loop
      vertex -4.89074 1.03956 1
      vertex -4.40166 0.935602 1
      vertex -4.56773 2.03368 1
    endloop
  endfacet
  facet normal 0 0 1
    outer loop
      vertex -4.11095 1.83031 1
      vertex -4.56773 2.03368 1
      vertex -4.40166 0.935602 1
    endloop
  endfacet
  facet normal 0 0 1
    outer loop
      vertex 3.00994 3.95963 1
      vertex 1.20258 2.72584 1
      vertex 1.20288 2.72377 1
    endloop
  endfacet
  facet normal 0 0 1
    outer loop
      vertex 3.00994 3.95963 1
      vertex 1.20187 2.72781 1
      vertex 1.20258 2.72584 1
    endloop
  endfacet
  facet normal 0 0 1
    outer loop
      vertex 3.00994 3.95963 1
      vertex 1.20076 2.72958 1
      vertex 1.20187 2.72781 1
    endloop
  endfacet
  facet normal 0 0 1
    outer loop
      vertex 3.00994 3.95963 1
      vertex 1.19931 2.73108 1
      vertex 1.20076 2.72958 1
    endloop
  endfacet
  facet normal 0 -0 1
    outer loop
      vertex 1.19564 2.73304 1
      vertex 3.00994 3.95963 1
      vertex 0.639544 4.94776 1
    endloop
  endfacet
  facet normal 0 0 1
    outer loop
      vertex 3.00994 3.95963 1
      vertex 1.19758 2.73225 1
      vertex 1.19931 2.73108 1
    endloop
  endfacet
  facet normal 0 0 1
    outer loop
      vertex 3.00994 3.95963 1
      vertex 1.19564 2.73304 1
      vertex 1.19758 2.73225 1
    endloop
  endfacet
  facet normal 0 0 1
    outer loop
      vertex 1.19564 2.73304 1
      vertex 0.639544 4.94776 1
      vertex 1.19358 2.7334 1
    endloop
  endfacet
  facet normal -0 0 1
    outer loop
      vertex 0.276151 4.47535 1
      vertex 1.19358 2.7334 1
      vertex 0.639544 4.94776 1
    endloop
  endfacet
  facet normal 0 0 1
    outer loop
      vertex 1.19358 2.7334 1
      vertex 0.276151 4.47535 1
      vertex 1.19149 2.73333 1
    endloop
  endfacet
  facet normal 0 0 1
    outer loop
      vertex 1.19149 2.73333 1
      vertex 0.276151 4.47535 1
      vertex 1.18946 2.73282 1
    endloop
  endfacet
  facet normal 0 0 1
    outer loop
      vertex 1.18946 2.73282 1
      vertex 0.276151 4.47535 1
      vertex 1.18758 2.7319 1
    endloop
  endfacet
  facet normal 0 0 1
    outer loop
      vertex 1.18758 2.7319 1
      vertex 0.276151 4.47535 1
      vertex 1.18594 2.73062 1
    endloop
  endfacet
  facet normal 0 0 1
    outer loop
      vertex 0.276151 4.47535 1
      vertex 0.639544 4.94776 1
      vertex 0.522642 4.97261 1
    endloop
  endfacet
  facet normal 0 0 1
    outer loop
      vertex 1.18594 2.73062 1
      vertex 0.276151 4.47535 1
      vertex 1.18459 2.72901 1
    endloop
  endfacet
  facet normal 0 0 1
    outer loop
      vertex 0.276151 4.47535 1
      vertex -0.427096 9.48344e-017 1
      vertex 1.18459 2.72901 1
    endloop
  endfacet
  facet normal 0 0 1
    outer loop
      vertex -4.24857 -1.40679 1
      vertex -0.427096 9.48344e-017 1
      vertex 0.276151 4.47535 1
    endloop
  endfacet
  facet normal 0 0 1
    outer loop
      vertex -0.427096 9.48344e-017 1
      vertex -4.24857 -1.40679 1
      vertex -1.19166 -1.3 1
    endloop
  endfacet
  facet normal 0 0 1
    outer loop
      vertex -1.19166 -1.3 1
      vertex -4.24857 -1.40679 1
      vertex -2.59816 -3.64416 1
    endloop
  endfacet
  facet normal -0 0 1
    outer loop
      vertex -4.61615 -1.88465 1
      vertex -2.59816 -3.64416 1
      vertex -4.24857 -1.40679 1
    endloop
  endfacet
  facet normal 0 0 1
    outer loop
      vertex -2.59816 -3.64416 1
      vertex -4.61615 -1.88465 1
      vertex -2.85499 -4.07221 1
    endloop
  endfacet
  facet normal 0 0 1
    outer loop
      vertex -4.61615 -1.88465 1
      vertex -4.24857 -1.40679 1
      vertex -4.40166 -0.935602 1
    endloop
  endfacet
  facet normal 0 0 1
    outer loop
      vertex -4.40166 0.935602 1
      vertex -4.89074 1.03956 1
      vertex -4.5 0 1
    endloop
  endfacet
  facet normal 0 0 1
    outer loop
      vertex -4.61615 -1.88465 1
      vertex -4.40166 -0.935602 1
      vertex -4.5 0 1
    endloop
  endfacet
  facet normal 0 0 1
    outer loop
      vertex -2.85499 -4.07221 1
      vertex -4.61615 -1.88465 1
      vertex -3.41766 -5.01 1
    endloop
  endfacet
  facet normal -0 0 1
    outer loop
      vertex -7.00743 -4.99331 1
      vertex -3.41766 -5.01 1
      vertex -4.61615 -1.88465 1
    endloop
  endfacet
  facet normal 0 0 1
    outer loop
      vertex -3.41766 -5.01 1
      vertex -7.00743 -4.99331 1
      vertex -7 -5.01 1
    endloop
  endfacet
  facet normal 0 0 1
    outer loop
      vertex -7 -5.01 1
      vertex -7.00743 -4.99331 1
      vertex -7.00208 -5.00978 1
    endloop
  endfacet
  facet normal 0 0 1
    outer loop
      vertex -7.00208 -5.00978 1
      vertex -7.00743 -4.99331 1
      vertex -7.00407 -5.00914 1
    endloop
  endfacet
  facet normal 0 0 1
    outer loop
      vertex -7.00407 -5.00914 1
      vertex -7.00743 -4.99331 1
      vertex -7.00588 -5.00809 1
    endloop
  endfacet
  facet normal 0 0 1
    outer loop
      vertex -7.00743 -4.99331 1
      vertex -7.00743 -5.00669 1
      vertex -7.00588 -5.00809 1
    endloop
  endfacet
  facet normal -0 0 1
    outer loop
      vertex -7.00866 -4.995 1
      vertex -7.00743 -5.00669 1
      vertex -7.00743 -4.99331 1
    endloop
  endfacet
  facet normal 0 0 1
    outer loop
      vertex -7.00866 -4.995 1
      vertex -7.00866 -5.005 1
      vertex -7.00743 -5.00669 1
    endloop
  endfacet
  facet normal -0 0 1
    outer loop
      vertex -7.00951 -4.99691 1
      vertex -7.00866 -5.005 1
      vertex -7.00866 -4.995 1
    endloop
  endfacet
  facet normal 0 0 1
    outer loop
      vertex -7.00951 -4.99691 1
      vertex -7.00951 -5.00309 1
      vertex -7.00866 -5.005 1
    endloop
  endfacet
  facet normal -0 0 1
    outer loop
      vertex -7.00994 -4.99895 1
      vertex -7.00951 -5.00309 1
      vertex -7.00951 -4.99691 1
    endloop
  endfacet
  facet normal 0 0 1
    outer loop
      vertex -7.00951 -5.00309 1
      vertex -7.00994 -4.99895 1
      vertex -7.00994 -5.00105 1
    endloop
  endfacet
  facet normal 0 0 1
    outer loop
      vertex 3.00994 3.34498 1
      vertex 2.2724 -0.563097 1
      vertex 2.27273 -0.565162 1
    endloop
  endfacet
  facet normal 0 0 1
    outer loop
      vertex 3.00994 3.95963 1
      vertex 2.27165 -0.561145 1
      vertex 2.2724 -0.563097 1
    endloop
  endfacet
  facet normal 0 0 1
    outer loop
      vertex 3.00994 3.95963 1
      vertex 2.27051 -0.559392 1
      vertex 2.27165 -0.561145 1
    endloop
  endfacet
  facet normal -0 0 1
    outer loop
      vertex 0.639544 4.94776 1
      vertex 3.00994 3.95963 1
      vertex 1.44127 5.99 1
    endloop
  endfacet
  facet normal 0 0 1
    outer loop
      vertex 3.00994 3.95963 1
      vertex 1.20288 2.72377 1
      vertex 2.27051 -0.559392 1
    endloop
  endfacet
  facet normal 0 0 1
    outer loop
      vertex 2.27051 -0.559392 1
      vertex 1.20288 2.72377 1
      vertex 1.05808 0.653044 1
    endloop
  endfacet
  facet normal -0 0 1
    outer loop
      vertex 3.00951 5.99691 1
      vertex 3.00994 3.95963 1
      vertex 3.00994 5.99895 1
    endloop
  endfacet
  facet normal -0 0 1
    outer loop
      vertex 3.00866 5.995 1
      vertex 3.00994 3.95963 1
      vertex 3.00951 5.99691 1
    endloop
  endfacet
  facet normal -0 0 1
    outer loop
      vertex 3.00743 5.99331 1
      vertex 3.00994 3.95963 1
      vertex 3.00866 5.995 1
    endloop
  endfacet
  facet normal -0 0 1
    outer loop
      vertex 3.00588 5.99191 1
      vertex 3.00994 3.95963 1
      vertex 3.00743 5.99331 1
    endloop
  endfacet
  facet normal -0 0 1
    outer loop
      vertex 3.00407 5.99086 1
      vertex 3.00994 3.95963 1
      vertex 3.00588 5.99191 1
    endloop
  endfacet
  facet normal -0 0 1
    outer loop
      vertex 3.00208 5.99022 1
      vertex 3.00994 3.95963 1
      vertex 3.00407 5.99086 1
    endloop
  endfacet
  facet normal -0 0 1
    outer loop
      vertex 3 5.99 1
      vertex 3.00994 3.95963 1
      vertex 3.00208 5.99022 1
    endloop
  endfacet
  facet normal -0 0 1
    outer loop
      vertex 1.44127 5.99 1
      vertex 3.00994 3.95963 1
      vertex 3 5.99 1
    endloop
  endfacet
  facet normal 0 0 1
    outer loop
      vertex 2.2724 -0.563097 1
      vertex 3.00994 3.34498 1
      vertex 3.00994 3.95963 1
    endloop
  endfacet
  facet normal 0 0 1
    outer loop
      vertex 3.00994 3.34498 1
      vertex 2.27273 -0.565162 1
      vertex 3.00994 -3.2 1
    endloop
  endfacet
  facet normal -0 0 1
    outer loop
      vertex 2.27262 -0.567249 1
      vertex 3.00994 -3.2 1
      vertex 2.27273 -0.565162 1
    endloop
  endfacet
  facet normal -0 0 1
    outer loop
      vertex 2.27208 -0.569268 1
      vertex 3.00994 -3.2 1
      vertex 2.27262 -0.567249 1
    endloop
  endfacet
  facet normal -0 0 1
    outer loop
      vertex 2.27113 -0.571132 1
      vertex 3.00994 -3.2 1
      vertex 2.27208 -0.569268 1
    endloop
  endfacet
  facet normal -0 0 1
    outer loop
      vertex 2.26981 -0.572756 1
      vertex 3.00994 -3.2 1
      vertex 2.27113 -0.571132 1
    endloop
  endfacet
  facet normal -0 0 1
    outer loop
      vertex 1.00994 -1.83262 1
      vertex 3.00994 -3.2 1
      vertex 2.26981 -0.572756 1
    endloop
  endfacet
  facet normal 0 0 1
    outer loop
      vertex 3.00994 -3.2 1
      vertex 1.00994 -1.83262 1
      vertex 1.00994 -3.2 1
    endloop
  endfacet
  facet normal 0 0 1
    outer loop
      vertex 4.5 0 1
      vertex 5 0 1
      vertex 4.89074 1.03956 1
    endloop
  endfacet
  facet normal 0 0 1
    outer loop
      vertex 4.40166 0.935602 1
      vertex 4.89074 1.03956 1
      vertex 4.56773 2.03368 1
    endloop
  endfacet
  facet normal 0 0 1
    outer loop
      vertex 5 0 1
      vertex 4.5 0 1
      vertex 4.89074 -1.03956 1
    endloop
  endfacet
  facet normal -0 0 1
    outer loop
      vertex 4.40166 -0.935602 1
      vertex 4.89074 -1.03956 1
      vertex 4.5 0 1
    endloop
  endfacet
  facet normal 0 0 1
    outer loop
      vertex 4.89074 1.03956 1
      vertex 4.40166 0.935602 1
      vertex 4.5 0 1
    endloop
  endfacet
  facet normal 0 0 1
    outer loop
      vertex 4.56773 2.03368 1
      vertex 4.11095 1.83031 1
      vertex 4.40166 0.935602 1
    endloop
  endfacet
  facet normal 0 0 1
    outer loop
      vertex 4.04508 2.93893 1
      vertex 4.11095 1.83031 1
      vertex 4.56773 2.03368 1
    endloop
  endfacet
  facet normal 0 0 1
    outer loop
      vertex 4.04508 2.93893 1
      vertex 3.64058 2.64503 1
      vertex 4.11095 1.83031 1
    endloop
  endfacet
  facet normal 0 0 1
    outer loop
      vertex 3.34565 3.71572 1
      vertex 3.64058 2.64503 1
      vertex 4.04508 2.93893 1
    endloop
  endfacet
  facet normal 0 0 1
    outer loop
      vertex 3.34565 3.71572 1
      vertex 3.01109 3.34415 1
      vertex 3.64058 2.64503 1
    endloop
  endfacet
  facet normal 0 0 1
    outer loop
      vertex 3.00994 3.34498 1
      vertex 3.34565 3.71572 1
      vertex 3.00994 3.95963 1
    endloop
  endfacet
  facet normal 0 0 1
    outer loop
      vertex 3.34565 3.71572 1
      vertex 3.00994 3.34498 1
      vertex 3.01109 3.34415 1
    endloop
  endfacet
  facet normal 0 0 1
    outer loop
      vertex 4.89074 -1.03956 1
      vertex 4.40166 -0.935602 1
      vertex 4.56773 -2.03368 1
    endloop
  endfacet
  facet normal -0 0 1
    outer loop
      vertex 4.11095 -1.83031 1
      vertex 4.56773 -2.03368 1
      vertex 4.40166 -0.935602 1
    endloop
  endfacet
  facet normal 0 0 1
    outer loop
      vertex 4.11095 -1.83031 1
      vertex 4.04508 -2.93893 1
      vertex 4.56773 -2.03368 1
    endloop
  endfacet
  facet normal -0 0 1
    outer loop
      vertex 3.64058 -2.64503 1
      vertex 4.04508 -2.93893 1
      vertex 4.11095 -1.83031 1
    endloop
  endfacet
  facet normal 0 0 1
    outer loop
      vertex 3.64058 -2.64503 1
      vertex 3.34565 -3.71572 1
      vertex 4.04508 -2.93893 1
    endloop
  endfacet
  facet normal -0 0 1
    outer loop
      vertex 3.01109 -3.34415 1
      vertex 3.34565 -3.71572 1
      vertex 3.64058 -2.64503 1
    endloop
  endfacet
  facet normal 0 0 1
    outer loop
      vertex 3.01109 -3.34415 1
      vertex 2.5 -4.33013 1
      vertex 3.34565 -3.71572 1
    endloop
  endfacet
  facet normal -0 0 1
    outer loop
      vertex 2.25 -3.89711 1
      vertex 2.5 -4.33013 1
      vertex 3.01109 -3.34415 1
    endloop
  endfacet
  facet normal 0 0 1
    outer loop
      vertex 2.25 -3.89711 1
      vertex 1.54508 -4.75528 1
      vertex 2.5 -4.33013 1
    endloop
  endfacet
  facet normal -0 0 1
    outer loop
      vertex 1.39058 -4.27975 1
      vertex 1.54508 -4.75528 1
      vertex 2.25 -3.89711 1
    endloop
  endfacet
  facet normal 0 0 1
    outer loop
      vertex 1.39058 -4.27975 1
      vertex 0.522642 -4.97261 1
      vertex 1.54508 -4.75528 1
    endloop
  endfacet
  facet normal -0 0 1
    outer loop
      vertex 0.470378 -4.47535 1
      vertex 0.522642 -4.97261 1
      vertex 1.39058 -4.27975 1
    endloop
  endfacet
  facet normal -0 0 1
    outer loop
      vertex -0.470378 -4.47535 1
      vertex 0.522642 -4.97261 1
      vertex 0.470378 -4.47535 1
    endloop
  endfacet
  facet normal 0 0 1
    outer loop
      vertex -0.470378 -4.47535 1
      vertex -0.522642 -4.97261 1
      vertex 0.522642 -4.97261 1
    endloop
  endfacet
  facet normal 0 0 1
    outer loop
      vertex -1.39058 -4.27975 1
      vertex -0.522642 -4.97261 1
      vertex -0.470378 -4.47535 1
    endloop
  endfacet
  facet normal 0 0 1
    outer loop
      vertex -1.39058 -4.27975 1
      vertex -1.54508 -4.75528 1
      vertex -0.522642 -4.97261 1
    endloop
  endfacet
  facet normal 0 0 1
    outer loop
      vertex -2.25 -3.89711 1
      vertex -1.54508 -4.75528 1
      vertex -1.39058 -4.27975 1
    endloop
  endfacet
  facet normal 0 0 1
    outer loop
      vertex -2.25 -3.89711 1
      vertex -2.5 -4.33013 1
      vertex -1.54508 -4.75528 1
    endloop
  endfacet
  facet normal 0 0 1
    outer loop
      vertex -2.85499 -4.07221 1
      vertex -2.25 -3.89711 1
      vertex -2.59816 -3.64416 1
    endloop
  endfacet
  facet normal 0 0 1
    outer loop
      vertex -2.25 -3.89711 1
      vertex -2.85499 -4.07221 1
      vertex -2.5 -4.33013 1
    endloop
  endfacet
  facet normal 0 0 1
    outer loop
      vertex -0.427096 9.48344e-017 1
      vertex 1.02239 -1.3 1
      vertex 1.02239 -2.27016e-016 1
    endloop
  endfacet
  facet normal 0 0 1
    outer loop
      vertex 1.02239 -1.3 1
      vertex -0.427096 9.48344e-017 1
      vertex -1.19166 -1.3 1
    endloop
  endfacet
  facet normal 0 0 1
    outer loop
      vertex 2.17341 -0.591381 1
      vertex 2.17362 -0.595533 1
      vertex 2.17373 -0.593446 1
    endloop
  endfacet
  facet normal 0 0 1
    outer loop
      vertex 2.17341 -0.591381 1
      vertex 2.17308 -0.597553 1
      vertex 2.17362 -0.595533 1
    endloop
  endfacet
  facet normal 0 0 1
    outer loop
      vertex 2.17266 -0.589429 1
      vertex 2.17308 -0.597553 1
      vertex 2.17341 -0.591381 1
    endloop
  endfacet
  facet normal 0 0 1
    outer loop
      vertex 2.17266 -0.589429 1
      vertex 2.17213 -0.599416 1
      vertex 2.17308 -0.597553 1
    endloop
  endfacet
  facet normal 0 0 1
    outer loop
      vertex 2.17152 -0.587676 1
      vertex 2.17213 -0.599416 1
      vertex 2.17266 -0.589429 1
    endloop
  endfacet
  facet normal 0 0 1
    outer loop
      vertex 2.17152 -0.587676 1
      vertex 2.17082 -0.60104 1
      vertex 2.17213 -0.599416 1
    endloop
  endfacet
  facet normal 0 0 1
    outer loop
      vertex 1.02239 -2.27016e-016 1
      vertex 2.17082 -0.60104 1
      vertex 2.17152 -0.587676 1
    endloop
  endfacet
  facet normal -0 0 1
    outer loop
      vertex 1.02239 -2.27016e-016 1
      vertex 2.17152 -0.587676 1
      vertex 1.03867 0.545172 1
    endloop
  endfacet
  facet normal 0 0 1
    outer loop
      vertex 2.17082 -0.60104 1
      vertex 1.02239 -2.27016e-016 1
      vertex 1.02239 -1.3 1
    endloop
  endfacet
  facet normal 0 0 1
    outer loop
      vertex 1.02239 0.536878 1
      vertex 1.03867 0.545172 1
      vertex 1.03692 0.54631 1
    endloop
  endfacet
  facet normal 0 0 1
    outer loop
      vertex 2.17082 -0.60104 1
      vertex 1.02239 -1.3 1
      vertex 1.03945 -1.73241 1
    endloop
  endfacet
  facet normal 0 0 1
    outer loop
      vertex 1.02239 0.536878 1
      vertex 1.03692 0.54631 1
      vertex 1.03496 0.54706 1
    endloop
  endfacet
  facet normal -0 0 1
    outer loop
      vertex 1.02239 -1.72586 1
      vertex 1.03945 -1.73241 1
      vertex 1.02239 -1.3 1
    endloop
  endfacet
  facet normal 0 0 1
    outer loop
      vertex 1.02239 0.536878 1
      vertex 1.03496 0.54706 1
      vertex 1.0329 0.547387 1
    endloop
  endfacet
  facet normal 0 0 1
    outer loop
      vertex 1.03945 -1.73241 1
      vertex 1.02239 -1.72586 1
      vertex 1.03782 -1.73373 1
    endloop
  endfacet
  facet normal 0 0 1
    outer loop
      vertex 1.02239 0.536878 1
      vertex 1.0329 0.547387 1
      vertex 1.03081 0.547277 1
    endloop
  endfacet
  facet normal 0 0 1
    outer loop
      vertex 1.03782 -1.73373 1
      vertex 1.02239 -1.72586 1
      vertex 1.03596 -1.73468 1
    endloop
  endfacet
  facet normal 0 0 1
    outer loop
      vertex 1.02239 0.536878 1
      vertex 1.03081 0.547277 1
      vertex 1.02879 0.546737 1
    endloop
  endfacet
  facet normal 0 0 1
    outer loop
      vertex 1.03596 -1.73468 1
      vertex 1.02239 -1.72586 1
      vertex 1.03394 -1.73522 1
    endloop
  endfacet
  facet normal 0 0 1
    outer loop
      vertex 1.02239 0.536878 1
      vertex 1.02879 0.546737 1
      vertex 1.02693 0.545788 1
    endloop
  endfacet
  facet normal 0 0 1
    outer loop
      vertex 1.03394 -1.73522 1
      vertex 1.02239 -1.72586 1
      vertex 1.03185 -1.73533 1
    endloop
  endfacet
  facet normal 0 0 1
    outer loop
      vertex 1.02239 0.536878 1
      vertex 1.02693 0.545788 1
      vertex 1.0253 0.544472 1
    endloop
  endfacet
  facet normal 0 0 1
    outer loop
      vertex 1.03185 -1.73533 1
      vertex 1.02239 -1.72586 1
      vertex 1.02979 -1.735 1
    endloop
  endfacet
  facet normal 0 0 1
    outer loop
      vertex 1.02239 0.536878 1
      vertex 1.0253 0.544472 1
      vertex 1.02399 0.542847 1
    endloop
  endfacet
  facet normal 0 0 1
    outer loop
      vertex 1.02979 -1.735 1
      vertex 1.02239 -1.72586 1
      vertex 1.02784 -1.73425 1
    endloop
  endfacet
  facet normal 0 0 1
    outer loop
      vertex 1.02239 0.536878 1
      vertex 1.02399 0.542847 1
      vertex 1.02304 0.540984 1
    endloop
  endfacet
  facet normal 0 0 1
    outer loop
      vertex 1.02784 -1.73425 1
      vertex 1.02239 -1.72586 1
      vertex 1.02608 -1.73311 1
    endloop
  endfacet
  facet normal 0 0 1
    outer loop
      vertex 1.02239 0.536878 1
      vertex 1.02304 0.540984 1
      vertex 1.0225 0.538965 1
    endloop
  endfacet
  facet normal 0 0 1
    outer loop
      vertex 1.03867 0.545172 1
      vertex 1.02239 0.536878 1
      vertex 1.02239 -2.27016e-016 1
    endloop
  endfacet
  facet normal 0 0 1
    outer loop
      vertex 1.02608 -1.73311 1
      vertex 1.02239 -1.72586 1
      vertex 1.0246 -1.73163 1
    endloop
  endfacet
  facet normal 0 0 1
    outer loop
      vertex 1.0246 -1.73163 1
      vertex 1.02239 -1.72586 1
      vertex 1.02347 -1.72988 1
    endloop
  endfacet
  facet normal 0 0 1
    outer loop
      vertex 1.02347 -1.72988 1
      vertex 1.02239 -1.72586 1
      vertex 1.02272 -1.72793 1
    endloop
  endfacet
  facet normal 0.866025 -0.5 0
    outer loop
      vertex 4.04508 -2.93893 1
      vertex 4.56773 -2.03368 0
      vertex 4.56773 -2.03368 1
    endloop
  endfacet
  facet normal 0.866025 -0.5 0
    outer loop
      vertex 4.56773 -2.03368 0
      vertex 4.04508 -2.93893 1
      vertex 4.04508 -2.93893 0
    endloop
  endfacet
  facet normal 0 -1 0
    outer loop
      vertex -0.522642 -4.97261 0
      vertex 0.522642 -4.97261 1
      vertex -0.522642 -4.97261 1
    endloop
  endfacet
  facet normal 0 -1 -0
    outer loop
      vertex 0.522642 -4.97261 1
      vertex -0.522642 -4.97261 0
      vertex 0.522642 -4.97261 0
    endloop
  endfacet
  facet normal -0.994522 -0.104529 0
    outer loop
      vertex -4.89074 -1.03956 0
      vertex -5 0 1
      vertex -5 0 0
    endloop
  endfacet
  facet normal -0.994522 -0.104529 0
    outer loop
      vertex -5 0 1
      vertex -4.89074 -1.03956 0
      vertex -4.89074 -1.03956 1
    endloop
  endfacet
  facet normal 0 0 -1
    outer loop
      vertex -5 0 0
      vertex -4.5 0 0
      vertex -4.89074 -1.03956 0
    endloop
  endfacet
  facet normal 0 0 -1
    outer loop
      vertex -4.5 0 0
      vertex -4.89074 1.03956 0
      vertex -4.56773 2.03368 0
    endloop
  endfacet
  facet normal 0 0 -1
    outer loop
      vertex -4.5 0 0
      vertex -5 0 0
      vertex -4.89074 1.03956 0
    endloop
  endfacet
  facet normal 0 0 -1
    outer loop
      vertex 1.02239 -1.3 0
      vertex -0.427096 9.48344e-017 0
      vertex 1.02239 -2.27016e-016 0
    endloop
  endfacet
  facet normal 0 -0 -1
    outer loop
      vertex -0.427096 9.48344e-017 0
      vertex 1.02239 -1.3 0
      vertex -1.19166 -1.3 0
    endloop
  endfacet
  facet normal 0 0 -1
    outer loop
      vertex 2.17362 -0.595533 0
      vertex 2.17341 -0.591381 0
      vertex 2.17373 -0.593446 0
    endloop
  endfacet
  facet normal 0 0 -1
    outer loop
      vertex 2.17308 -0.597553 0
      vertex 2.17341 -0.591381 0
      vertex 2.17362 -0.595533 0
    endloop
  endfacet
  facet normal 0 0 -1
    outer loop
      vertex 2.17308 -0.597553 0
      vertex 2.17266 -0.589429 0
      vertex 2.17341 -0.591381 0
    endloop
  endfacet
  facet normal 0 0 -1
    outer loop
      vertex 2.17213 -0.599416 0
      vertex 2.17266 -0.589429 0
      vertex 2.17308 -0.597553 0
    endloop
  endfacet
  facet normal 0 0 -1
    outer loop
      vertex 2.17213 -0.599416 0
      vertex 2.17152 -0.587676 0
      vertex 2.17266 -0.589429 0
    endloop
  endfacet
  facet normal 0 0 -1
    outer loop
      vertex 2.17082 -0.60104 0
      vertex 2.17152 -0.587676 0
      vertex 2.17213 -0.599416 0
    endloop
  endfacet
  facet normal 0 0 -1
    outer loop
      vertex 1.02239 -1.3 0
      vertex 2.17082 -0.60104 0
      vertex 1.03945 -1.73241 0
    endloop
  endfacet
  facet normal 0 0 -1
    outer loop
      vertex 1.02239 -2.27016e-016 0
      vertex 2.17082 -0.60104 0
      vertex 1.02239 -1.3 0
    endloop
  endfacet
  facet normal 0 0 -1
    outer loop
      vertex 1.02239 -1.72586 0
      vertex 1.03945 -1.73241 0
      vertex 1.03782 -1.73373 0
    endloop
  endfacet
  facet normal 0 0 -1
    outer loop
      vertex 2.17082 -0.60104 0
      vertex 1.02239 -2.27016e-016 0
      vertex 2.17152 -0.587676 0
    endloop
  endfacet
  facet normal 0 0 -1
    outer loop
      vertex 1.02239 -1.72586 0
      vertex 1.03782 -1.73373 0
      vertex 1.03596 -1.73468 0
    endloop
  endfacet
  facet normal 0 0 -1
    outer loop
      vertex 2.17152 -0.587676 0
      vertex 1.02239 -2.27016e-016 0
      vertex 1.03867 0.545172 0
    endloop
  endfacet
  facet normal 0 0 -1
    outer loop
      vertex 1.02239 -1.72586 0
      vertex 1.03596 -1.73468 0
      vertex 1.03394 -1.73522 0
    endloop
  endfacet
  facet normal 0 0 -1
    outer loop
      vertex 1.02239 0.536878 0
      vertex 1.03867 0.545172 0
      vertex 1.02239 -2.27016e-016 0
    endloop
  endfacet
  facet normal 0 0 -1
    outer loop
      vertex 1.02239 -1.72586 0
      vertex 1.03394 -1.73522 0
      vertex 1.03185 -1.73533 0
    endloop
  endfacet
  facet normal -0 0 -1
    outer loop
      vertex 1.03867 0.545172 0
      vertex 1.02239 0.536878 0
      vertex 1.03692 0.54631 0
    endloop
  endfacet
  facet normal 0 0 -1
    outer loop
      vertex 1.02239 -1.72586 0
      vertex 1.03185 -1.73533 0
      vertex 1.02979 -1.735 0
    endloop
  endfacet
  facet normal -0 0 -1
    outer loop
      vertex 1.03692 0.54631 0
      vertex 1.02239 0.536878 0
      vertex 1.03496 0.54706 0
    endloop
  endfacet
  facet normal 0 0 -1
    outer loop
      vertex 1.02239 -1.72586 0
      vertex 1.02979 -1.735 0
      vertex 1.02784 -1.73425 0
    endloop
  endfacet
  facet normal -0 0 -1
    outer loop
      vertex 1.03496 0.54706 0
      vertex 1.02239 0.536878 0
      vertex 1.0329 0.547387 0
    endloop
  endfacet
  facet normal 0 0 -1
    outer loop
      vertex 1.02239 -1.72586 0
      vertex 1.02784 -1.73425 0
      vertex 1.02608 -1.73311 0
    endloop
  endfacet
  facet normal 0 0 -1
    outer loop
      vertex 1.0329 0.547387 0
      vertex 1.02239 0.536878 0
      vertex 1.03081 0.547277 0
    endloop
  endfacet
  facet normal 0 0 -1
    outer loop
      vertex 1.02239 -1.72586 0
      vertex 1.02608 -1.73311 0
      vertex 1.0246 -1.73163 0
    endloop
  endfacet
  facet normal 0 0 -1
    outer loop
      vertex 1.03081 0.547277 0
      vertex 1.02239 0.536878 0
      vertex 1.02879 0.546737 0
    endloop
  endfacet
  facet normal 0 0 -1
    outer loop
      vertex 1.02239 -1.72586 0
      vertex 1.0246 -1.73163 0
      vertex 1.02347 -1.72988 0
    endloop
  endfacet
  facet normal 0 0 -1
    outer loop
      vertex 1.02879 0.546737 0
      vertex 1.02239 0.536878 0
      vertex 1.02693 0.545788 0
    endloop
  endfacet
  facet normal 0 0 -1
    outer loop
      vertex 1.02239 -1.72586 0
      vertex 1.02347 -1.72988 0
      vertex 1.02272 -1.72793 0
    endloop
  endfacet
  facet normal 0 0 -1
    outer loop
      vertex 1.02693 0.545788 0
      vertex 1.02239 0.536878 0
      vertex 1.0253 0.544472 0
    endloop
  endfacet
  facet normal 0 0 -1
    outer loop
      vertex 1.03945 -1.73241 0
      vertex 1.02239 -1.72586 0
      vertex 1.02239 -1.3 0
    endloop
  endfacet
  facet normal 0 0 -1
    outer loop
      vertex 1.0253 0.544472 0
      vertex 1.02239 0.536878 0
      vertex 1.02399 0.542847 0
    endloop
  endfacet
  facet normal 0 0 -1
    outer loop
      vertex 1.02399 0.542847 0
      vertex 1.02239 0.536878 0
      vertex 1.02304 0.540984 0
    endloop
  endfacet
  facet normal 0 0 -1
    outer loop
      vertex 1.02304 0.540984 0
      vertex 1.02239 0.536878 0
      vertex 1.0225 0.538965 0
    endloop
  endfacet
  facet normal 0 0 -1
    outer loop
      vertex 2.27273 -0.565162 0
      vertex 3.00994 3.34498 0
      vertex 3.00994 -3.2 0
    endloop
  endfacet
  facet normal 0 0 -1
    outer loop
      vertex 2.2724 -0.563097 0
      vertex 3.00994 3.34498 0
      vertex 2.27273 -0.565162 0
    endloop
  endfacet
  facet normal 0 0 -1
    outer loop
      vertex 3.00994 3.95963 0
      vertex 3.00951 5.99691 0
      vertex 3.00994 5.99895 0
    endloop
  endfacet
  facet normal 0 0 -1
    outer loop
      vertex 2.27165 -0.561145 0
      vertex 3.00994 3.34498 0
      vertex 2.2724 -0.563097 0
    endloop
  endfacet
  facet normal 0 0 -1
    outer loop
      vertex 2.27051 -0.559392 0
      vertex 3.00994 3.34498 0
      vertex 2.27165 -0.561145 0
    endloop
  endfacet
  facet normal 0 0 -1
    outer loop
      vertex 3.00994 3.95963 0
      vertex 3.00866 5.995 0
      vertex 3.00951 5.99691 0
    endloop
  endfacet
  facet normal 0 0 -1
    outer loop
      vertex 1.05808 0.653044 0
      vertex 3.00994 3.34498 0
      vertex 2.27051 -0.559392 0
    endloop
  endfacet
  facet normal 0 0 -1
    outer loop
      vertex 3.00994 3.95963 0
      vertex 3.00743 5.99331 0
      vertex 3.00866 5.995 0
    endloop
  endfacet
  facet normal 0 0 -1
    outer loop
      vertex 1.20258 2.72584 0
      vertex 3.00994 3.34498 0
      vertex 1.20288 2.72377 0
    endloop
  endfacet
  facet normal 0 0 -1
    outer loop
      vertex 3.00994 3.95963 0
      vertex 3.00588 5.99191 0
      vertex 3.00743 5.99331 0
    endloop
  endfacet
  facet normal 0 0 -1
    outer loop
      vertex 3.00994 -3.2 0
      vertex 2.27262 -0.567249 0
      vertex 2.27273 -0.565162 0
    endloop
  endfacet
  facet normal 0 0 -1
    outer loop
      vertex 3.00994 -3.2 0
      vertex 2.27208 -0.569268 0
      vertex 2.27262 -0.567249 0
    endloop
  endfacet
  facet normal 0 0 -1
    outer loop
      vertex 3.00994 -3.2 0
      vertex 2.27113 -0.571132 0
      vertex 2.27208 -0.569268 0
    endloop
  endfacet
  facet normal 0 0 -1
    outer loop
      vertex 3.00994 -3.2 0
      vertex 2.26981 -0.572756 0
      vertex 2.27113 -0.571132 0
    endloop
  endfacet
  facet normal 0 0 -1
    outer loop
      vertex 1.00994 -1.83262 0
      vertex 3.00994 -3.2 0
      vertex 1.00994 -3.2 0
    endloop
  endfacet
  facet normal 0 0 -1
    outer loop
      vertex 3.00994 -3.2 0
      vertex 1.00994 -1.83262 0
      vertex 2.26981 -0.572756 0
    endloop
  endfacet
  facet normal 0 0 -1
    outer loop
      vertex 4.5 0 0
      vertex 5 0 0
      vertex 4.89074 -1.03956 0
    endloop
  endfacet
  facet normal 0 0 -1
    outer loop
      vertex 4.40166 -0.935602 0
      vertex 4.89074 -1.03956 0
      vertex 4.56773 -2.03368 0
    endloop
  endfacet
  facet normal 0 0 -1
    outer loop
      vertex 5 0 0
      vertex 4.5 0 0
      vertex 4.89074 1.03956 0
    endloop
  endfacet
  facet normal 0 0 -1
    outer loop
      vertex 4.40166 0.935602 0
      vertex 4.89074 1.03956 0
      vertex 4.5 0 0
    endloop
  endfacet
  facet normal 0 0 -1
    outer loop
      vertex 4.89074 -1.03956 0
      vertex 4.40166 -0.935602 0
      vertex 4.5 0 0
    endloop
  endfacet
  facet normal 0 0 -1
    outer loop
      vertex 4.56773 -2.03368 0
      vertex 4.11095 -1.83031 0
      vertex 4.40166 -0.935602 0
    endloop
  endfacet
  facet normal 0 0 -1
    outer loop
      vertex 4.04508 -2.93893 0
      vertex 4.11095 -1.83031 0
      vertex 4.56773 -2.03368 0
    endloop
  endfacet
  facet normal 0 0 -1
    outer loop
      vertex 4.04508 -2.93893 0
      vertex 3.64058 -2.64503 0
      vertex 4.11095 -1.83031 0
    endloop
  endfacet
  facet normal 0 0 -1
    outer loop
      vertex 3.34565 -3.71572 0
      vertex 3.64058 -2.64503 0
      vertex 4.04508 -2.93893 0
    endloop
  endfacet
  facet normal 0 0 -1
    outer loop
      vertex 3.34565 -3.71572 0
      vertex 3.01109 -3.34415 0
      vertex 3.64058 -2.64503 0
    endloop
  endfacet
  facet normal 0 0 -1
    outer loop
      vertex 2.5 -4.33013 0
      vertex 3.01109 -3.34415 0
      vertex 3.34565 -3.71572 0
    endloop
  endfacet
  facet normal 0 0 -1
    outer loop
      vertex 2.5 -4.33013 0
      vertex 2.25 -3.89711 0
      vertex 3.01109 -3.34415 0
    endloop
  endfacet
  facet normal 0 0 -1
    outer loop
      vertex 1.54508 -4.75528 0
      vertex 2.25 -3.89711 0
      vertex 2.5 -4.33013 0
    endloop
  endfacet
  facet normal 0 0 -1
    outer loop
      vertex 1.54508 -4.75528 0
      vertex 1.39058 -4.27975 0
      vertex 2.25 -3.89711 0
    endloop
  endfacet
  facet normal 0 0 -1
    outer loop
      vertex 0.522642 -4.97261 0
      vertex 1.39058 -4.27975 0
      vertex 1.54508 -4.75528 0
    endloop
  endfacet
  facet normal 0 0 -1
    outer loop
      vertex 0.522642 -4.97261 0
      vertex 0.470378 -4.47535 0
      vertex 1.39058 -4.27975 0
    endloop
  endfacet
  facet normal 0 0 -1
    outer loop
      vertex 0.522642 -4.97261 0
      vertex -0.470378 -4.47535 0
      vertex 0.470378 -4.47535 0
    endloop
  endfacet
  facet normal 0 0 -1
    outer loop
      vertex -0.522642 -4.97261 0
      vertex -0.470378 -4.47535 0
      vertex 0.522642 -4.97261 0
    endloop
  endfacet
  facet normal 0 0 -1
    outer loop
      vertex -0.522642 -4.97261 0
      vertex -1.39058 -4.27975 0
      vertex -0.470378 -4.47535 0
    endloop
  endfacet
  facet normal 0 0 -1
    outer loop
      vertex -1.54508 -4.75528 0
      vertex -1.39058 -4.27975 0
      vertex -0.522642 -4.97261 0
    endloop
  endfacet
  facet normal 0 0 -1
    outer loop
      vertex -1.54508 -4.75528 0
      vertex -2.25 -3.89711 0
      vertex -1.39058 -4.27975 0
    endloop
  endfacet
  facet normal 0 0 -1
    outer loop
      vertex -2.5 -4.33013 0
      vertex -2.25 -3.89711 0
      vertex -1.54508 -4.75528 0
    endloop
  endfacet
  facet normal 0 0 -1
    outer loop
      vertex -2.85499 -4.07221 0
      vertex -2.25 -3.89711 0
      vertex -2.5 -4.33013 0
    endloop
  endfacet
  facet normal -0 0 -1
    outer loop
      vertex -2.25 -3.89711 0
      vertex -2.85499 -4.07221 0
      vertex -2.59816 -3.64416 0
    endloop
  endfacet
  facet normal -0 0 -1
    outer loop
      vertex 4.89074 1.03956 0
      vertex 4.40166 0.935602 0
      vertex 4.56773 2.03368 0
    endloop
  endfacet
  facet normal 0 0 -1
    outer loop
      vertex 4.11095 1.83031 0
      vertex 4.56773 2.03368 0
      vertex 4.40166 0.935602 0
    endloop
  endfacet
  facet normal 0 0 -1
    outer loop
      vertex 4.11095 1.83031 0
      vertex 4.04508 2.93893 0
      vertex 4.56773 2.03368 0
    endloop
  endfacet
  facet normal 0 0 -1
    outer loop
      vertex 3.64058 2.64503 0
      vertex 4.04508 2.93893 0
      vertex 4.11095 1.83031 0
    endloop
  endfacet
  facet normal 0 0 -1
    outer loop
      vertex 3.64058 2.64503 0
      vertex 3.34565 3.71572 0
      vertex 4.04508 2.93893 0
    endloop
  endfacet
  facet normal 0 0 -1
    outer loop
      vertex 3.01109 3.34415 0
      vertex 3.34565 3.71572 0
      vertex 3.64058 2.64503 0
    endloop
  endfacet
  facet normal 0 0 -1
    outer loop
      vertex 3.00994 3.34498 0
      vertex 3.34565 3.71572 0
      vertex 3.01109 3.34415 0
    endloop
  endfacet
  facet normal -0 0 -1
    outer loop
      vertex 3.34565 3.71572 0
      vertex 3.00994 3.34498 0
      vertex 3.00994 3.95963 0
    endloop
  endfacet
  facet normal 0 0 -1
    outer loop
      vertex 1.20187 2.72781 0
      vertex 3.00994 3.34498 0
      vertex 1.20258 2.72584 0
    endloop
  endfacet
  facet normal 0 0 -1
    outer loop
      vertex 3.00994 3.95963 0
      vertex 3.00407 5.99086 0
      vertex 3.00588 5.99191 0
    endloop
  endfacet
  facet normal 0 0 -1
    outer loop
      vertex 1.20076 2.72958 0
      vertex 3.00994 3.34498 0
      vertex 1.20187 2.72781 0
    endloop
  endfacet
  facet normal 0 0 -1
    outer loop
      vertex 3.00994 3.95963 0
      vertex 3.00208 5.99022 0
      vertex 3.00407 5.99086 0
    endloop
  endfacet
  facet normal 0 0 -1
    outer loop
      vertex 1.19931 2.73108 0
      vertex 3.00994 3.34498 0
      vertex 1.20076 2.72958 0
    endloop
  endfacet
  facet normal 0 0 -1
    outer loop
      vertex 3.00994 3.34498 0
      vertex 1.05808 0.653044 0
      vertex 1.20288 2.72377 0
    endloop
  endfacet
  facet normal 0 0 -1
    outer loop
      vertex 3.00994 3.95963 0
      vertex 3 5.99 0
      vertex 3.00208 5.99022 0
    endloop
  endfacet
  facet normal -0 0 -1
    outer loop
      vertex 3.00994 3.34498 0
      vertex 1.19931 2.73108 0
      vertex 3.00994 3.95963 0
    endloop
  endfacet
  facet normal 0 0 -1
    outer loop
      vertex 1.19758 2.73225 0
      vertex 3.00994 3.95963 0
      vertex 1.19931 2.73108 0
    endloop
  endfacet
  facet normal 0 -0 -1
    outer loop
      vertex 1.44127 5.99 0
      vertex 3.00994 3.95963 0
      vertex 0.639544 4.94776 0
    endloop
  endfacet
  facet normal 0 0 -1
    outer loop
      vertex 1.19564 2.73304 0
      vertex 3.00994 3.95963 0
      vertex 1.19758 2.73225 0
    endloop
  endfacet
  facet normal -0 0 -1
    outer loop
      vertex 3.00994 3.95963 0
      vertex 1.19564 2.73304 0
      vertex 0.639544 4.94776 0
    endloop
  endfacet
  facet normal 0 0 -1
    outer loop
      vertex 0.639544 4.94776 0
      vertex 1.19564 2.73304 0
      vertex 1.19358 2.7334 0
    endloop
  endfacet
  facet normal 0 0 -1
    outer loop
      vertex 0.276151 4.47535 0
      vertex 1.19358 2.7334 0
      vertex 1.19149 2.73333 0
    endloop
  endfacet
  facet normal 0 0 -1
    outer loop
      vertex 0.276151 4.47535 0
      vertex 1.19149 2.73333 0
      vertex 1.18946 2.73282 0
    endloop
  endfacet
  facet normal 0 0 -1
    outer loop
      vertex 0.276151 4.47535 0
      vertex 1.18946 2.73282 0
      vertex 1.18758 2.7319 0
    endloop
  endfacet
  facet normal 0 0 -1
    outer loop
      vertex 0.276151 4.47535 0
      vertex 1.18758 2.7319 0
      vertex 1.18594 2.73062 0
    endloop
  endfacet
  facet normal 0 0 -1
    outer loop
      vertex 0.276151 4.47535 0
      vertex 1.18594 2.73062 0
      vertex 1.18459 2.72901 0
    endloop
  endfacet
  facet normal 0 0 -1
    outer loop
      vertex 3.00994 3.95963 0
      vertex 1.44127 5.99 0
      vertex 3 5.99 0
    endloop
  endfacet
  facet normal 0 0 -1
    outer loop
      vertex 1.19358 2.7334 0
      vertex 0.276151 4.47535 0
      vertex 0.639544 4.94776 0
    endloop
  endfacet
  facet normal -0 0 -1
    outer loop
      vertex 0.639544 4.94776 0
      vertex 0.276151 4.47535 0
      vertex 0.522642 4.97261 0
    endloop
  endfacet
  facet normal 0 0 -1
    outer loop
      vertex -0.427096 9.48344e-017 0
      vertex 0.276151 4.47535 0
      vertex 1.18459 2.72901 0
    endloop
  endfacet
  facet normal 0 0 -1
    outer loop
      vertex -4.24857 -1.40679 0
      vertex -0.427096 9.48344e-017 0
      vertex -1.19166 -1.3 0
    endloop
  endfacet
  facet normal 0 0 -1
    outer loop
      vertex -4.24857 -1.40679 0
      vertex -1.19166 -1.3 0
      vertex -2.59816 -3.64416 0
    endloop
  endfacet
  facet normal 0 0 -1
    outer loop
      vertex -4.61615 -1.88465 0
      vertex -2.59816 -3.64416 0
      vertex -2.85499 -4.07221 0
    endloop
  endfacet
  facet normal 0 0 -1
    outer loop
      vertex -4.61615 -1.88465 0
      vertex -2.85499 -4.07221 0
      vertex -3.41766 -5.01 0
    endloop
  endfacet
  facet normal -0 0 -1
    outer loop
      vertex -0.427096 9.48344e-017 0
      vertex -4.24857 -1.40679 0
      vertex 0.276151 4.47535 0
    endloop
  endfacet
  facet normal 0 0 -1
    outer loop
      vertex -2.59816 -3.64416 0
      vertex -4.61615 -1.88465 0
      vertex -4.24857 -1.40679 0
    endloop
  endfacet
  facet normal -0 0 -1
    outer loop
      vertex -4.40166 -0.935602 0
      vertex -4.89074 -1.03956 0
      vertex -4.5 0 0
    endloop
  endfacet
  facet normal 0 0 -1
    outer loop
      vertex -4.24857 -1.40679 0
      vertex -4.89074 -1.03956 0
      vertex -4.40166 -0.935602 0
    endloop
  endfacet
  facet normal 0 0 -1
    outer loop
      vertex -4.89074 -1.03956 0
      vertex -4.24857 -1.40679 0
      vertex -4.61615 -1.88465 0
    endloop
  endfacet
  facet normal 0 0 -1
    outer loop
      vertex -7.00743 -4.99331 0
      vertex -3.41766 -5.01 0
      vertex -7 -5.01 0
    endloop
  endfacet
  facet normal 0 0 -1
    outer loop
      vertex -7.00743 -4.99331 0
      vertex -7 -5.01 0
      vertex -7.00208 -5.00978 0
    endloop
  endfacet
  facet normal 0 0 -1
    outer loop
      vertex -7.00743 -4.99331 0
      vertex -7.00208 -5.00978 0
      vertex -7.00407 -5.00914 0
    endloop
  endfacet
  facet normal 0 0 -1
    outer loop
      vertex -7.00743 -4.99331 0
      vertex -7.00407 -5.00914 0
      vertex -7.00588 -5.00809 0
    endloop
  endfacet
  facet normal 0 0 -1
    outer loop
      vertex -7.00743 -4.99331 0
      vertex -7.00588 -5.00809 0
      vertex -7.00743 -5.00669 0
    endloop
  endfacet
  facet normal 0 0 -1
    outer loop
      vertex -3.41766 -5.01 0
      vertex -7.00743 -4.99331 0
      vertex -4.61615 -1.88465 0
    endloop
  endfacet
  facet normal 0 0 -1
    outer loop
      vertex -7.00866 -5.005 0
      vertex -7.00743 -4.99331 0
      vertex -7.00743 -5.00669 0
    endloop
  endfacet
  facet normal 0 0 -1
    outer loop
      vertex -7.00866 -5.005 0
      vertex -7.00866 -4.995 0
      vertex -7.00743 -4.99331 0
    endloop
  endfacet
  facet normal 0 0 -1
    outer loop
      vertex -7.00951 -5.00309 0
      vertex -7.00866 -4.995 0
      vertex -7.00866 -5.005 0
    endloop
  endfacet
  facet normal 0 0 -1
    outer loop
      vertex -7.00951 -5.00309 0
      vertex -7.00951 -4.99691 0
      vertex -7.00866 -4.995 0
    endloop
  endfacet
  facet normal 0 0 -1
    outer loop
      vertex -7.00994 -5.00105 0
      vertex -7.00951 -4.99691 0
      vertex -7.00951 -5.00309 0
    endloop
  endfacet
  facet normal 0 0 -1
    outer loop
      vertex -7.00951 -4.99691 0
      vertex -7.00994 -5.00105 0
      vertex -7.00994 -4.99895 0
    endloop
  endfacet
  facet normal 0 0 -1
    outer loop
      vertex -0.522642 4.97261 0
      vertex 0.276151 4.47535 0
      vertex -0.470378 4.47535 0
    endloop
  endfacet
  facet normal 0 0 -1
    outer loop
      vertex 0.276151 4.47535 0
      vertex -0.522642 4.97261 0
      vertex 0.522642 4.97261 0
    endloop
  endfacet
  facet normal 0 0 -1
    outer loop
      vertex -1.39058 4.27975 0
      vertex -0.522642 4.97261 0
      vertex -0.470378 4.47535 0
    endloop
  endfacet
  facet normal 0 0 -1
    outer loop
      vertex -1.39058 4.27975 0
      vertex -1.54508 4.75528 0
      vertex -0.522642 4.97261 0
    endloop
  endfacet
  facet normal 0 0 -1
    outer loop
      vertex -2.25 3.89711 0
      vertex -1.54508 4.75528 0
      vertex -1.39058 4.27975 0
    endloop
  endfacet
  facet normal 0 0 -1
    outer loop
      vertex -2.25 3.89711 0
      vertex -2.5 4.33013 0
      vertex -1.54508 4.75528 0
    endloop
  endfacet
  facet normal 0 0 -1
    outer loop
      vertex -3.01109 3.34415 0
      vertex -2.5 4.33013 0
      vertex -2.25 3.89711 0
    endloop
  endfacet
  facet normal 0 0 -1
    outer loop
      vertex -3.01109 3.34415 0
      vertex -3.34565 3.71572 0
      vertex -2.5 4.33013 0
    endloop
  endfacet
  facet normal 0 0 -1
    outer loop
      vertex -3.64058 2.64503 0
      vertex -3.34565 3.71572 0
      vertex -3.01109 3.34415 0
    endloop
  endfacet
  facet normal 0 0 -1
    outer loop
      vertex -3.64058 2.64503 0
      vertex -4.04508 2.93893 0
      vertex -3.34565 3.71572 0
    endloop
  endfacet
  facet normal 0 0 -1
    outer loop
      vertex -4.11095 1.83031 0
      vertex -4.04508 2.93893 0
      vertex -3.64058 2.64503 0
    endloop
  endfacet
  facet normal 0 0 -1
    outer loop
      vertex -4.56773 2.03368 0
      vertex -4.11095 1.83031 0
      vertex -4.40166 0.935602 0
    endloop
  endfacet
  facet normal 0 0 -1
    outer loop
      vertex -4.11095 1.83031 0
      vertex -4.56773 2.03368 0
      vertex -4.04508 2.93893 0
    endloop
  endfacet
  facet normal 0 0 -1
    outer loop
      vertex -4.56773 2.03368 0
      vertex -4.40166 0.935602 0
      vertex -4.5 0 0
    endloop
  endfacet
  facet normal 0.207911 -0.978148 0
    outer loop
      vertex 0.522642 -4.97261 0
      vertex 1.54508 -4.75528 1
      vertex 0.522642 -4.97261 1
    endloop
  endfacet
  facet normal 0.207911 -0.978148 0
    outer loop
      vertex 1.54508 -4.75528 1
      vertex 0.522642 -4.97261 0
      vertex 1.54508 -4.75528 0
    endloop
  endfacet
  facet normal 0.406737 -0.913545 0
    outer loop
      vertex 1.54508 -4.75528 0
      vertex 2.5 -4.33013 1
      vertex 1.54508 -4.75528 1
    endloop
  endfacet
  facet normal 0.406737 -0.913545 0
    outer loop
      vertex 2.5 -4.33013 1
      vertex 1.54508 -4.75528 0
      vertex 2.5 -4.33013 0
    endloop
  endfacet
  facet normal -0.207911 -0.978148 0
    outer loop
      vertex -1.54508 -4.75528 0
      vertex -0.522642 -4.97261 1
      vertex -1.54508 -4.75528 1
    endloop
  endfacet
  facet normal -0.207911 -0.978148 -0
    outer loop
      vertex -0.522642 -4.97261 1
      vertex -1.54508 -4.75528 0
      vertex -0.522642 -4.97261 0
    endloop
  endfacet
  facet normal -0.951057 -0.309017 0
    outer loop
      vertex -4.61615 -1.88465 0
      vertex -4.89074 -1.03956 1
      vertex -4.89074 -1.03956 0
    endloop
  endfacet
  facet normal -0.951057 -0.309017 0
    outer loop
      vertex -4.89074 -1.03956 1
      vertex -4.61615 -1.88465 0
      vertex -4.61615 -1.88465 1
    endloop
  endfacet
  facet normal 0.743145 -0.669131 0
    outer loop
      vertex 3.34565 -3.71572 1
      vertex 4.04508 -2.93893 0
      vertex 4.04508 -2.93893 1
    endloop
  endfacet
  facet normal 0.743145 -0.669131 0
    outer loop
      vertex 4.04508 -2.93893 0
      vertex 3.34565 -3.71572 1
      vertex 3.34565 -3.71572 0
    endloop
  endfacet
  facet normal -0.406737 -0.913545 0
    outer loop
      vertex -2.5 -4.33013 0
      vertex -1.54508 -4.75528 1
      vertex -2.5 -4.33013 1
    endloop
  endfacet
  facet normal -0.406737 -0.913545 -0
    outer loop
      vertex -1.54508 -4.75528 1
      vertex -2.5 -4.33013 0
      vertex -1.54508 -4.75528 0
    endloop
  endfacet
  facet normal -0.994522 -0.104529 0
    outer loop
      vertex 4.5 0 0
      vertex 4.40166 0.935602 1
      vertex 4.40166 0.935602 0
    endloop
  endfacet
  facet normal -0.994522 -0.104529 0
    outer loop
      vertex 4.40166 0.935602 1
      vertex 4.5 0 0
      vertex 4.5 0 1
    endloop
  endfacet
  facet normal 0.994522 -0.104529 0
    outer loop
      vertex -4.5 0 1
      vertex -4.40166 0.935602 0
      vertex -4.40166 0.935602 1
    endloop
  endfacet
  facet normal 0.994522 -0.104529 0
    outer loop
      vertex -4.40166 0.935602 0
      vertex -4.5 0 1
      vertex -4.5 0 0
    endloop
  endfacet
  facet normal 0 -1 0
    outer loop
      vertex -0.470378 4.47535 0
      vertex 0.276151 4.47535 1
      vertex -0.470378 4.47535 1
    endloop
  endfacet
  facet normal 0 -1 -0
    outer loop
      vertex 0.276151 4.47535 1
      vertex -0.470378 4.47535 0
      vertex 0.276151 4.47535 0
    endloop
  endfacet
  facet normal 0 1 -0
    outer loop
      vertex 0.470378 -4.47535 0
      vertex -0.470378 -4.47535 1
      vertex 0.470378 -4.47535 1
    endloop
  endfacet
  facet normal 0 1 0
    outer loop
      vertex -0.470378 -4.47535 1
      vertex 0.470378 -4.47535 0
      vertex -0.470378 -4.47535 0
    endloop
  endfacet
  facet normal -0.743145 -0.66913 0
    outer loop
      vertex 3.64058 2.64503 0
      vertex 3.01109 3.34415 1
      vertex 3.01109 3.34415 0
    endloop
  endfacet
  facet normal -0.743145 -0.66913 0
    outer loop
      vertex 3.01109 3.34415 1
      vertex 3.64058 2.64503 0
      vertex 3.64058 2.64503 1
    endloop
  endfacet
  facet normal -0.951057 -0.309017 0
    outer loop
      vertex 4.40166 0.935602 0
      vertex 4.11095 1.83031 1
      vertex 4.11095 1.83031 0
    endloop
  endfacet
  facet normal -0.951057 -0.309017 0
    outer loop
      vertex 4.11095 1.83031 1
      vertex 4.40166 0.935602 0
      vertex 4.40166 0.935602 1
    endloop
  endfacet
  facet normal 0.587785 -0.809017 0
    outer loop
      vertex -3.01109 3.34415 0
      vertex -2.25 3.89711 1
      vertex -3.01109 3.34415 1
    endloop
  endfacet
  facet normal 0.587785 -0.809017 0
    outer loop
      vertex -2.25 3.89711 1
      vertex -3.01109 3.34415 0
      vertex -2.25 3.89711 0
    endloop
  endfacet
  facet normal 0.207912 -0.978147 0
    outer loop
      vertex -1.39058 4.27975 0
      vertex -0.470378 4.47535 1
      vertex -1.39058 4.27975 1
    endloop
  endfacet
  facet normal 0.207912 -0.978147 0
    outer loop
      vertex -0.470378 4.47535 1
      vertex -1.39058 4.27975 0
      vertex -0.470378 4.47535 0
    endloop
  endfacet
  facet normal -0.866025 -0.5 0
    outer loop
      vertex 4.11095 1.83031 0
      vertex 3.64058 2.64503 1
      vertex 3.64058 2.64503 0
    endloop
  endfacet
  facet normal -0.866025 -0.5 0
    outer loop
      vertex 3.64058 2.64503 1
      vertex 4.11095 1.83031 0
      vertex 4.11095 1.83031 1
    endloop
  endfacet
  facet normal -0.58783 -0.808984 0
    outer loop
      vertex 3.00994 3.34498 0
      vertex 3.01109 3.34415 1
      vertex 3.00994 3.34498 1
    endloop
  endfacet
  facet normal -0.58783 -0.808984 -0
    outer loop
      vertex 3.01109 3.34415 1
      vertex 3.00994 3.34498 0
      vertex 3.01109 3.34415 0
    endloop
  endfacet
  facet normal 0.866025 -0.5 0
    outer loop
      vertex -4.11095 1.83031 1
      vertex -3.64058 2.64503 0
      vertex -3.64058 2.64503 1
    endloop
  endfacet
  facet normal 0.866025 -0.5 0
    outer loop
      vertex -3.64058 2.64503 0
      vertex -4.11095 1.83031 1
      vertex -4.11095 1.83031 0
    endloop
  endfacet
  facet normal 0.743145 -0.66913 0
    outer loop
      vertex -3.64058 2.64503 1
      vertex -3.01109 3.34415 0
      vertex -3.01109 3.34415 1
    endloop
  endfacet
  facet normal 0.743145 -0.66913 0
    outer loop
      vertex -3.01109 3.34415 0
      vertex -3.64058 2.64503 1
      vertex -3.64058 2.64503 0
    endloop
  endfacet
  facet normal 0.951057 -0.309017 0
    outer loop
      vertex -4.40166 0.935602 1
      vertex -4.11095 1.83031 0
      vertex -4.11095 1.83031 1
    endloop
  endfacet
  facet normal 0.951057 -0.309017 0
    outer loop
      vertex -4.11095 1.83031 0
      vertex -4.40166 0.935602 1
      vertex -4.40166 0.935602 0
    endloop
  endfacet
  facet normal 0.406737 -0.913545 0
    outer loop
      vertex -2.25 3.89711 0
      vertex -1.39058 4.27975 1
      vertex -2.25 3.89711 1
    endloop
  endfacet
  facet normal 0.406737 -0.913545 0
    outer loop
      vertex -1.39058 4.27975 1
      vertex -2.25 3.89711 0
      vertex -1.39058 4.27975 0
    endloop
  endfacet
  facet normal -0.994522 0.104529 0
    outer loop
      vertex 4.40166 -0.935602 0
      vertex 4.5 0 1
      vertex 4.5 0 0
    endloop
  endfacet
  facet normal -0.994522 0.104529 0
    outer loop
      vertex 4.5 0 1
      vertex 4.40166 -0.935602 0
      vertex 4.40166 -0.935602 1
    endloop
  endfacet
  facet normal -0.743145 0.66913 0
    outer loop
      vertex 3.01109 -3.34415 0
      vertex 3.64058 -2.64503 1
      vertex 3.64058 -2.64503 0
    endloop
  endfacet
  facet normal -0.743145 0.66913 0
    outer loop
      vertex 3.64058 -2.64503 1
      vertex 3.01109 -3.34415 0
      vertex 3.01109 -3.34415 1
    endloop
  endfacet
  facet normal -0.951057 0.309017 0
    outer loop
      vertex 4.11095 -1.83031 0
      vertex 4.40166 -0.935602 1
      vertex 4.40166 -0.935602 0
    endloop
  endfacet
  facet normal -0.951057 0.309017 0
    outer loop
      vertex 4.40166 -0.935602 1
      vertex 4.11095 -1.83031 0
      vertex 4.11095 -1.83031 1
    endloop
  endfacet
  facet normal -0.866025 0.5 0
    outer loop
      vertex 3.64058 -2.64503 0
      vertex 4.11095 -1.83031 1
      vertex 4.11095 -1.83031 0
    endloop
  endfacet
  facet normal -0.866025 0.5 0
    outer loop
      vertex 4.11095 -1.83031 1
      vertex 3.64058 -2.64503 0
      vertex 3.64058 -2.64503 1
    endloop
  endfacet
  facet normal 0.587785 0.809017 -0
    outer loop
      vertex -2.25 -3.89711 0
      vertex -2.59816 -3.64416 1
      vertex -2.25 -3.89711 1
    endloop
  endfacet
  facet normal 0.587785 0.809017 0
    outer loop
      vertex -2.59816 -3.64416 1
      vertex -2.25 -3.89711 0
      vertex -2.59816 -3.64416 0
    endloop
  endfacet
  facet normal -0.587785 0.809017 0
    outer loop
      vertex 3.01109 -3.34415 0
      vertex 2.25 -3.89711 1
      vertex 3.01109 -3.34415 1
    endloop
  endfacet
  facet normal -0.587785 0.809017 0
    outer loop
      vertex 2.25 -3.89711 1
      vertex 3.01109 -3.34415 0
      vertex 2.25 -3.89711 0
    endloop
  endfacet
  facet normal 0.207912 0.978147 -0
    outer loop
      vertex -0.470378 -4.47535 0
      vertex -1.39058 -4.27975 1
      vertex -0.470378 -4.47535 1
    endloop
  endfacet
  facet normal 0.207912 0.978147 0
    outer loop
      vertex -1.39058 -4.27975 1
      vertex -0.470378 -4.47535 0
      vertex -1.39058 -4.27975 0
    endloop
  endfacet
  facet normal 0.406736 0.913546 -0
    outer loop
      vertex -1.39058 -4.27975 0
      vertex -2.25 -3.89711 1
      vertex -1.39058 -4.27975 1
    endloop
  endfacet
  facet normal 0.406736 0.913546 0
    outer loop
      vertex -2.25 -3.89711 1
      vertex -1.39058 -4.27975 0
      vertex -2.25 -3.89711 0
    endloop
  endfacet
  facet normal 0.951056 0.309017 0
    outer loop
      vertex -4.24857 -1.40679 1
      vertex -4.40166 -0.935602 0
      vertex -4.40166 -0.935602 1
    endloop
  endfacet
  facet normal 0.951056 0.309017 0
    outer loop
      vertex -4.40166 -0.935602 0
      vertex -4.24857 -1.40679 1
      vertex -4.24857 -1.40679 0
    endloop
  endfacet
  facet normal 0.994522 0.104529 0
    outer loop
      vertex -4.40166 -0.935602 1
      vertex -4.5 0 0
      vertex -4.5 0 1
    endloop
  endfacet
  facet normal 0.994522 0.104529 0
    outer loop
      vertex -4.5 0 0
      vertex -4.40166 -0.935602 1
      vertex -4.40166 -0.935602 0
    endloop
  endfacet
  facet normal -0.406736 0.913546 0
    outer loop
      vertex 2.25 -3.89711 0
      vertex 1.39058 -4.27975 1
      vertex 2.25 -3.89711 1
    endloop
  endfacet
  facet normal -0.406736 0.913546 0
    outer loop
      vertex 1.39058 -4.27975 1
      vertex 2.25 -3.89711 0
      vertex 1.39058 -4.27975 0
    endloop
  endfacet
  facet normal -0.207912 0.978147 0
    outer loop
      vertex 1.39058 -4.27975 0
      vertex 0.470378 -4.47535 1
      vertex 1.39058 -4.27975 1
    endloop
  endfacet
  facet normal -0.207912 0.978147 0
    outer loop
      vertex 0.470378 -4.47535 1
      vertex 1.39058 -4.27975 0
      vertex 0.470378 -4.47535 0
    endloop
  endfacet
  facet normal 0 -1 0
    outer loop
      vertex -7 -5.01 0
      vertex -3.41766 -5.01 1
      vertex -7 -5.01 1
    endloop
  endfacet
  facet normal 0 -1 -0
    outer loop
      vertex -3.41766 -5.01 1
      vertex -7 -5.01 0
      vertex -3.41766 -5.01 0
    endloop
  endfacet
  facet normal -0.669192 -0.74309 0
    outer loop
      vertex -7.00743 -5.00669 0
      vertex -7.00588 -5.00809 1
      vertex -7.00743 -5.00669 1
    endloop
  endfacet
  facet normal -0.669192 -0.74309 -0
    outer loop
      vertex -7.00588 -5.00809 1
      vertex -7.00743 -5.00669 0
      vertex -7.00588 -5.00809 0
    endloop
  endfacet
  facet normal -0.308962 -0.951074 0
    outer loop
      vertex -7.00407 -5.00914 0
      vertex -7.00208 -5.00978 1
      vertex -7.00407 -5.00914 1
    endloop
  endfacet
  facet normal -0.308962 -0.951074 -0
    outer loop
      vertex -7.00208 -5.00978 1
      vertex -7.00407 -5.00914 0
      vertex -7.00208 -5.00978 0
    endloop
  endfacet
  facet normal -0.104471 -0.994528 0
    outer loop
      vertex -7.00208 -5.00978 0
      vertex -7 -5.01 1
      vertex -7.00208 -5.00978 1
    endloop
  endfacet
  facet normal -0.104471 -0.994528 -0
    outer loop
      vertex -7 -5.01 1
      vertex -7.00208 -5.00978 0
      vertex -7 -5.01 0
    endloop
  endfacet
  facet normal -0.792624 0.609711 0
    outer loop
      vertex -7.00743 -4.99331 0
      vertex -4.61615 -1.88465 1
      vertex -4.61615 -1.88465 0
    endloop
  endfacet
  facet normal -0.792624 0.609711 0
    outer loop
      vertex -4.61615 -1.88465 1
      vertex -7.00743 -4.99331 0
      vertex -7.00743 -4.99331 1
    endloop
  endfacet
  facet normal -0.792624 0.609711 0
    outer loop
      vertex 0.639544 4.94776 0
      vertex 1.44127 5.99 1
      vertex 1.44127 5.99 0
    endloop
  endfacet
  facet normal -0.792624 0.609711 0
    outer loop
      vertex 1.44127 5.99 1
      vertex 0.639544 4.94776 0
      vertex 0.639544 4.94776 1
    endloop
  endfacet
  facet normal -0.792624 0.609711 0
    outer loop
      vertex -4.24857 -1.40679 0
      vertex 0.276151 4.47535 1
      vertex 0.276151 4.47535 0
    endloop
  endfacet
  facet normal -0.792624 0.609711 0
    outer loop
      vertex 0.276151 4.47535 1
      vertex -4.24857 -1.40679 0
      vertex -4.24857 -1.40679 1
    endloop
  endfacet
  facet normal 1 -0 0
    outer loop
      vertex 3.00994 3.95963 1
      vertex 3.00994 5.99895 0
      vertex 3.00994 5.99895 1
    endloop
  endfacet
  facet normal 1 0 0
    outer loop
      vertex 3.00994 5.99895 0
      vertex 3.00994 3.95963 1
      vertex 3.00994 3.95963 0
    endloop
  endfacet
  facet normal 1 -0 0
    outer loop
      vertex 3.00994 -3.2 1
      vertex 3.00994 3.34498 0
      vertex 3.00994 3.34498 1
    endloop
  endfacet
  facet normal 1 0 0
    outer loop
      vertex 3.00994 3.34498 0
      vertex 3.00994 -3.2 1
      vertex 3.00994 -3.2 0
    endloop
  endfacet
  facet normal -0.499867 -0.866102 0
    outer loop
      vertex -7.00588 -5.00809 0
      vertex -7.00407 -5.00914 1
      vertex -7.00588 -5.00809 1
    endloop
  endfacet
  facet normal -0.499867 -0.866102 -0
    outer loop
      vertex -7.00407 -5.00914 1
      vertex -7.00588 -5.00809 0
      vertex -7.00407 -5.00914 0
    endloop
  endfacet
  facet normal -0.809209 -0.587521 0
    outer loop
      vertex -7.00743 -5.00669 0
      vertex -7.00866 -5.005 1
      vertex -7.00866 -5.005 0
    endloop
  endfacet
  facet normal -0.809209 -0.587521 0
    outer loop
      vertex -7.00866 -5.005 1
      vertex -7.00743 -5.00669 0
      vertex -7.00743 -5.00669 1
    endloop
  endfacet
  facet normal -0.913435 -0.406985 0
    outer loop
      vertex -7.00866 -5.005 0
      vertex -7.00951 -5.00309 1
      vertex -7.00951 -5.00309 0
    endloop
  endfacet
  facet normal -0.913435 -0.406985 0
    outer loop
      vertex -7.00951 -5.00309 1
      vertex -7.00866 -5.005 0
      vertex -7.00866 -5.005 1
    endloop
  endfacet
  facet normal -0.978122 -0.208033 0
    outer loop
      vertex -7.00951 -5.00309 0
      vertex -7.00994 -5.00105 1
      vertex -7.00994 -5.00105 0
    endloop
  endfacet
  facet normal -0.978122 -0.208033 0
    outer loop
      vertex -7.00994 -5.00105 1
      vertex -7.00951 -5.00309 0
      vertex -7.00951 -5.00309 1
    endloop
  endfacet
  facet normal -1 0 0
    outer loop
      vertex -7.00994 -5.00105 0
      vertex -7.00994 -4.99895 1
      vertex -7.00994 -4.99895 0
    endloop
  endfacet
  facet normal -1 -0 0
    outer loop
      vertex -7.00994 -4.99895 1
      vertex -7.00994 -5.00105 0
      vertex -7.00994 -5.00105 1
    endloop
  endfacet
  facet normal -0.809209 0.587521 0
    outer loop
      vertex -7.00866 -4.995 0
      vertex -7.00743 -4.99331 1
      vertex -7.00743 -4.99331 0
    endloop
  endfacet
  facet normal -0.809209 0.587521 0
    outer loop
      vertex -7.00743 -4.99331 1
      vertex -7.00866 -4.995 0
      vertex -7.00866 -4.995 1
    endloop
  endfacet
  facet normal -0.978122 0.208033 0
    outer loop
      vertex -7.00994 -4.99895 0
      vertex -7.00951 -4.99691 1
      vertex -7.00951 -4.99691 0
    endloop
  endfacet
  facet normal -0.978122 0.208033 0
    outer loop
      vertex -7.00951 -4.99691 1
      vertex -7.00994 -4.99895 0
      vertex -7.00994 -4.99895 1
    endloop
  endfacet
  facet normal -0.913435 0.406985 0
    outer loop
      vertex -7.00951 -4.99691 0
      vertex -7.00866 -4.995 1
      vertex -7.00866 -4.995 0
    endloop
  endfacet
  facet normal -0.913435 0.406985 0
    outer loop
      vertex -7.00866 -4.995 1
      vertex -7.00951 -4.99691 0
      vertex -7.00951 -4.99691 1
    endloop
  endfacet
  facet normal 0.861052 -0.508516 0
    outer loop
      vertex -0.427096 9.48344e-017 1
      vertex 1.18459 2.72901 0
      vertex 1.18459 2.72901 1
    endloop
  endfacet
  facet normal 0.861052 -0.508516 0
    outer loop
      vertex 1.18459 2.72901 0
      vertex -0.427096 9.48344e-017 1
      vertex -0.427096 9.48344e-017 0
    endloop
  endfacet
  facet normal -0.997564 0.0697563 0
    outer loop
      vertex 1.05808 0.653044 0
      vertex 1.20288 2.72377 1
      vertex 1.20288 2.72377 0
    endloop
  endfacet
  facet normal -0.997564 0.0697563 0
    outer loop
      vertex 1.20288 2.72377 1
      vertex 1.05808 0.653044 0
      vertex 1.05808 0.653044 1
    endloop
  endfacet
  facet normal 0.438433 -0.898764 0
    outer loop
      vertex 1.18758 2.7319 0
      vertex 1.18946 2.73282 1
      vertex 1.18758 2.7319 1
    endloop
  endfacet
  facet normal 0.438433 -0.898764 0
    outer loop
      vertex 1.18946 2.73282 1
      vertex 1.18758 2.7319 0
      vertex 1.18946 2.73282 0
    endloop
  endfacet
  facet normal 0.76601 -0.642828 0
    outer loop
      vertex 1.18459 2.72901 1
      vertex 1.18594 2.73062 0
      vertex 1.18594 2.73062 1
    endloop
  endfacet
  facet normal 0.76601 -0.642828 0
    outer loop
      vertex 1.18594 2.73062 0
      vertex 1.18459 2.72901 1
      vertex 1.18459 2.72901 0
    endloop
  endfacet
  facet normal 0.615644 -0.788024 0
    outer loop
      vertex 1.18594 2.73062 0
      vertex 1.18758 2.7319 1
      vertex 1.18594 2.73062 1
    endloop
  endfacet
  facet normal 0.615644 -0.788024 0
    outer loop
      vertex 1.18758 2.7319 1
      vertex 1.18594 2.73062 0
      vertex 1.18758 2.7319 0
    endloop
  endfacet
  facet normal -0.374456 -0.927245 0
    outer loop
      vertex 1.19564 2.73304 0
      vertex 1.19758 2.73225 1
      vertex 1.19564 2.73304 1
    endloop
  endfacet
  facet normal -0.374456 -0.927245 -0
    outer loop
      vertex 1.19758 2.73225 1
      vertex 1.19564 2.73304 0
      vertex 1.19758 2.73225 0
    endloop
  endfacet
  facet normal -0.990275 -0.139122 0
    outer loop
      vertex 1.20288 2.72377 0
      vertex 1.20258 2.72584 1
      vertex 1.20258 2.72584 0
    endloop
  endfacet
  facet normal -0.990275 -0.139122 0
    outer loop
      vertex 1.20258 2.72584 1
      vertex 1.20288 2.72377 0
      vertex 1.20288 2.72377 1
    endloop
  endfacet
  facet normal -0.719315 -0.694684 0
    outer loop
      vertex 1.20076 2.72958 0
      vertex 1.19931 2.73108 1
      vertex 1.19931 2.73108 0
    endloop
  endfacet
  facet normal -0.719315 -0.694684 0
    outer loop
      vertex 1.19931 2.73108 1
      vertex 1.20076 2.72958 0
      vertex 1.20076 2.72958 1
    endloop
  endfacet
  facet normal -0.847973 -0.53004 0
    outer loop
      vertex 1.20187 2.72781 0
      vertex 1.20076 2.72958 1
      vertex 1.20076 2.72958 0
    endloop
  endfacet
  facet normal -0.847973 -0.53004 0
    outer loop
      vertex 1.20076 2.72958 1
      vertex 1.20187 2.72781 0
      vertex 1.20187 2.72781 1
    endloop
  endfacet
  facet normal 0.0351221 -0.999383 0
    outer loop
      vertex 1.19149 2.73333 0
      vertex 1.19358 2.7334 1
      vertex 1.19149 2.73333 1
    endloop
  endfacet
  facet normal 0.0351221 -0.999383 0
    outer loop
      vertex 1.19358 2.7334 1
      vertex 1.19149 2.73333 0
      vertex 1.19358 2.7334 0
    endloop
  endfacet
  facet normal 0.241784 -0.97033 0
    outer loop
      vertex 1.18946 2.73282 0
      vertex 1.19149 2.73333 1
      vertex 1.18946 2.73282 1
    endloop
  endfacet
  facet normal 0.241784 -0.97033 0
    outer loop
      vertex 1.19149 2.73333 1
      vertex 1.18946 2.73282 0
      vertex 1.19149 2.73333 0
    endloop
  endfacet
  facet normal -0.939807 -0.341706 0
    outer loop
      vertex 1.20258 2.72584 0
      vertex 1.20187 2.72781 1
      vertex 1.20187 2.72781 0
    endloop
  endfacet
  facet normal -0.939807 -0.341706 0
    outer loop
      vertex 1.20187 2.72781 1
      vertex 1.20258 2.72584 0
      vertex 1.20258 2.72584 1
    endloop
  endfacet
  facet normal -0.173863 -0.98477 0
    outer loop
      vertex 1.19358 2.7334 0
      vertex 1.19564 2.73304 1
      vertex 1.19358 2.7334 1
    endloop
  endfacet
  facet normal -0.173863 -0.98477 -0
    outer loop
      vertex 1.19564 2.73304 1
      vertex 1.19358 2.7334 0
      vertex 1.19564 2.73304 0
    endloop
  endfacet
  facet normal -0.559324 -0.828949 0
    outer loop
      vertex 1.19758 2.73225 0
      vertex 1.19931 2.73108 1
      vertex 1.19758 2.73225 1
    endloop
  endfacet
  facet normal -0.559324 -0.828949 -0
    outer loop
      vertex 1.19931 2.73108 1
      vertex 1.19758 2.73225 0
      vertex 1.19931 2.73108 0
    endloop
  endfacet
  facet normal 0 1 -0
    outer loop
      vertex 3 5.99 0
      vertex 1.44127 5.99 1
      vertex 3 5.99 1
    endloop
  endfacet
  facet normal 0 1 0
    outer loop
      vertex 1.44127 5.99 1
      vertex 3 5.99 0
      vertex 1.44127 5.99 0
    endloop
  endfacet
  facet normal -0.104471 0.994528 0
    outer loop
      vertex 3.00208 5.99022 0
      vertex 3 5.99 1
      vertex 3.00208 5.99022 1
    endloop
  endfacet
  facet normal -0.104471 0.994528 0
    outer loop
      vertex 3 5.99 1
      vertex 3.00208 5.99022 0
      vertex 3 5.99 0
    endloop
  endfacet
  facet normal -0.308962 0.951074 0
    outer loop
      vertex 3.00407 5.99086 0
      vertex 3.00208 5.99022 1
      vertex 3.00407 5.99086 1
    endloop
  endfacet
  facet normal -0.308962 0.951074 0
    outer loop
      vertex 3.00208 5.99022 1
      vertex 3.00407 5.99086 0
      vertex 3.00208 5.99022 0
    endloop
  endfacet
  facet normal -0.978122 0.208033 0
    outer loop
      vertex 3.00951 5.99691 0
      vertex 3.00994 5.99895 1
      vertex 3.00994 5.99895 0
    endloop
  endfacet
  facet normal -0.978122 0.208033 0
    outer loop
      vertex 3.00994 5.99895 1
      vertex 3.00951 5.99691 0
      vertex 3.00951 5.99691 1
    endloop
  endfacet
  facet normal -0.499867 0.866102 0
    outer loop
      vertex 3.00588 5.99191 0
      vertex 3.00407 5.99086 1
      vertex 3.00588 5.99191 1
    endloop
  endfacet
  facet normal -0.499867 0.866102 0
    outer loop
      vertex 3.00407 5.99086 1
      vertex 3.00588 5.99191 0
      vertex 3.00407 5.99086 0
    endloop
  endfacet
  facet normal -0.809209 0.587521 0
    outer loop
      vertex 3.00743 5.99331 0
      vertex 3.00866 5.995 1
      vertex 3.00866 5.995 0
    endloop
  endfacet
  facet normal -0.809209 0.587521 0
    outer loop
      vertex 3.00866 5.995 1
      vertex 3.00743 5.99331 0
      vertex 3.00743 5.99331 1
    endloop
  endfacet
  facet normal -0.669192 0.74309 0
    outer loop
      vertex 3.00743 5.99331 0
      vertex 3.00588 5.99191 1
      vertex 3.00743 5.99331 1
    endloop
  endfacet
  facet normal -0.669192 0.74309 0
    outer loop
      vertex 3.00588 5.99191 1
      vertex 3.00743 5.99331 0
      vertex 3.00588 5.99191 0
    endloop
  endfacet
  facet normal -0.913435 0.406985 0
    outer loop
      vertex 3.00866 5.995 0
      vertex 3.00951 5.99691 1
      vertex 3.00951 5.99691 0
    endloop
  endfacet
  facet normal -0.913435 0.406985 0
    outer loop
      vertex 3.00951 5.99691 1
      vertex 3.00866 5.995 0
      vertex 3.00866 5.995 1
    endloop
  endfacet
  facet normal 0.857493 -0.514496 0
    outer loop
      vertex -3.41766 -5.01 1
      vertex -2.85499 -4.07221 0
      vertex -2.85499 -4.07221 1
    endloop
  endfacet
  facet normal 0.857493 -0.514496 0
    outer loop
      vertex -2.85499 -4.07221 0
      vertex -3.41766 -5.01 1
      vertex -3.41766 -5.01 0
    endloop
  endfacet
  facet normal 0.857493 -0.514496 0
    outer loop
      vertex -2.59816 -3.64416 1
      vertex -1.19166 -1.3 0
      vertex -1.19166 -1.3 1
    endloop
  endfacet
  facet normal 0.857493 -0.514496 0
    outer loop
      vertex -1.19166 -1.3 0
      vertex -2.59816 -3.64416 1
      vertex -2.59816 -3.64416 0
    endloop
  endfacet
  facet normal -1 0 0
    outer loop
      vertex 1.00994 -3.2 0
      vertex 1.00994 -1.83262 1
      vertex 1.00994 -1.83262 0
    endloop
  endfacet
  facet normal -1 -0 0
    outer loop
      vertex 1.00994 -1.83262 1
      vertex 1.00994 -3.2 0
      vertex 1.00994 -3.2 1
    endloop
  endfacet
  facet normal 0 -1 0
    outer loop
      vertex 1.00994 -3.2 0
      vertex 3.00994 -3.2 1
      vertex 1.00994 -3.2 1
    endloop
  endfacet
  facet normal 0 -1 -0
    outer loop
      vertex 3.00994 -3.2 1
      vertex 1.00994 -3.2 0
      vertex 3.00994 -3.2 0
    endloop
  endfacet
  facet normal -0.77716 0.629303 0
    outer loop
      vertex 2.26981 -0.572756 0
      vertex 2.27113 -0.571132 1
      vertex 2.27113 -0.571132 0
    endloop
  endfacet
  facet normal -0.77716 0.629303 0
    outer loop
      vertex 2.27113 -0.571132 1
      vertex 2.26981 -0.572756 0
      vertex 2.26981 -0.572756 1
    endloop
  endfacet
  facet normal -0.707107 0.707107 0
    outer loop
      vertex 1.00994 -1.83262 0
      vertex 2.26981 -0.572756 1
      vertex 2.26981 -0.572756 0
    endloop
  endfacet
  facet normal -0.707107 0.707107 0
    outer loop
      vertex 2.26981 -0.572756 1
      vertex 1.00994 -1.83262 0
      vertex 1.00994 -1.83262 1
    endloop
  endfacet
  facet normal -0.707107 -0.707107 0
    outer loop
      vertex 1.05808 0.653044 0
      vertex 2.27051 -0.559392 1
      vertex 1.05808 0.653044 1
    endloop
  endfacet
  facet normal -0.707107 -0.707107 -0
    outer loop
      vertex 2.27051 -0.559392 1
      vertex 1.05808 0.653044 0
      vertex 2.27051 -0.559392 0
    endloop
  endfacet
  facet normal -0.987681 -0.156478 0
    outer loop
      vertex 2.27273 -0.565162 0
      vertex 2.2724 -0.563097 1
      vertex 2.2724 -0.563097 0
    endloop
  endfacet
  facet normal -0.987681 -0.156478 0
    outer loop
      vertex 2.2724 -0.563097 1
      vertex 2.27273 -0.565162 0
      vertex 2.27273 -0.565162 1
    endloop
  endfacet
  facet normal -0.89112 0.453769 0
    outer loop
      vertex 2.27113 -0.571132 0
      vertex 2.27208 -0.569268 1
      vertex 2.27208 -0.569268 0
    endloop
  endfacet
  facet normal -0.89112 0.453769 0
    outer loop
      vertex 2.27208 -0.569268 1
      vertex 2.27113 -0.571132 0
      vertex 2.27113 -0.571132 1
    endloop
  endfacet
  facet normal -0.83859 -0.544764 0
    outer loop
      vertex 2.27165 -0.561145 0
      vertex 2.27051 -0.559392 1
      vertex 2.27051 -0.559392 0
    endloop
  endfacet
  facet normal -0.83859 -0.544764 0
    outer loop
      vertex 2.27051 -0.559392 1
      vertex 2.27165 -0.561145 0
      vertex 2.27165 -0.561145 1
    endloop
  endfacet
  facet normal -0.933545 -0.358459 0
    outer loop
      vertex 2.2724 -0.563097 0
      vertex 2.27165 -0.561145 1
      vertex 2.27165 -0.561145 0
    endloop
  endfacet
  facet normal -0.933545 -0.358459 0
    outer loop
      vertex 2.27165 -0.561145 1
      vertex 2.2724 -0.563097 0
      vertex 2.2724 -0.563097 1
    endloop
  endfacet
  facet normal -0.96584 0.259139 0
    outer loop
      vertex 2.27208 -0.569268 0
      vertex 2.27262 -0.567249 1
      vertex 2.27262 -0.567249 0
    endloop
  endfacet
  facet normal -0.96584 0.259139 0
    outer loop
      vertex 2.27262 -0.567249 1
      vertex 2.27208 -0.569268 0
      vertex 2.27208 -0.569268 1
    endloop
  endfacet
  facet normal -0.998623 0.0524631 0
    outer loop
      vertex 2.27262 -0.567249 0
      vertex 2.27273 -0.565162 1
      vertex 2.27273 -0.565162 0
    endloop
  endfacet
  facet normal -0.998623 0.0524631 0
    outer loop
      vertex 2.27273 -0.565162 1
      vertex 2.27262 -0.567249 0
      vertex 2.27262 -0.567249 1
    endloop
  endfacet
  facet normal -0.629579 0.776937 0
    outer loop
      vertex 1.02693 0.545788 0
      vertex 1.0253 0.544472 1
      vertex 1.02693 0.545788 1
    endloop
  endfacet
  facet normal -0.629579 0.776937 0
    outer loop
      vertex 1.0253 0.544472 1
      vertex 1.02693 0.545788 0
      vertex 1.0253 0.544472 0
    endloop
  endfacet
  facet normal 0.707106 0.707107 -0
    outer loop
      vertex 2.17152 -0.587676 0
      vertex 1.03867 0.545172 1
      vertex 2.17152 -0.587676 1
    endloop
  endfacet
  facet normal 0.707106 0.707107 0
    outer loop
      vertex 1.03867 0.545172 1
      vertex 2.17152 -0.587676 0
      vertex 1.03867 0.545172 0
    endloop
  endfacet
  facet normal 0.707107 -0.707106 0
    outer loop
      vertex 1.03945 -1.73241 1
      vertex 2.17082 -0.60104 0
      vertex 2.17082 -0.60104 1
    endloop
  endfacet
  facet normal 0.707107 -0.707106 0
    outer loop
      vertex 2.17082 -0.60104 0
      vertex 1.03945 -1.73241 1
      vertex 1.03945 -1.73241 0
    endloop
  endfacet
  facet normal -0.453953 0.891026 0
    outer loop
      vertex 1.02879 0.546737 0
      vertex 1.02693 0.545788 1
      vertex 1.02879 0.546737 1
    endloop
  endfacet
  facet normal -0.453953 0.891026 0
    outer loop
      vertex 1.02693 0.545788 1
      vertex 1.02879 0.546737 0
      vertex 1.02693 0.545788 0
    endloop
  endfacet
  facet normal -0.83859 -0.544764 0
    outer loop
      vertex 1.0246 -1.73163 0
      vertex 1.02347 -1.72988 1
      vertex 1.02347 -1.72988 0
    endloop
  endfacet
  facet normal -0.83859 -0.544764 0
    outer loop
      vertex 1.02347 -1.72988 1
      vertex 1.0246 -1.73163 0
      vertex 1.0246 -1.73163 1
    endloop
  endfacet
  facet normal -0.891026 0.453953 0
    outer loop
      vertex 1.02304 0.540984 0
      vertex 1.02399 0.542847 1
      vertex 1.02399 0.542847 0
    endloop
  endfacet
  facet normal -0.891026 0.453953 0
    outer loop
      vertex 1.02399 0.542847 1
      vertex 1.02304 0.540984 0
      vertex 1.02304 0.540984 1
    endloop
  endfacet
  facet normal -0.777117 0.629356 0
    outer loop
      vertex 1.02399 0.542847 0
      vertex 1.0253 0.544472 1
      vertex 1.0253 0.544472 0
    endloop
  endfacet
  facet normal -0.777117 0.629356 0
    outer loop
      vertex 1.0253 0.544472 1
      vertex 1.02399 0.542847 0
      vertex 1.02399 0.542847 1
    endloop
  endfacet
  facet normal -0.987681 -0.156478 0
    outer loop
      vertex 1.02272 -1.72793 0
      vertex 1.02239 -1.72586 1
      vertex 1.02239 -1.72586 0
    endloop
  endfacet
  facet normal -0.987681 -0.156478 0
    outer loop
      vertex 1.02239 -1.72586 1
      vertex 1.02272 -1.72793 0
      vertex 1.02272 -1.72793 1
    endloop
  endfacet
  facet normal -0.933698 -0.358062 0
    outer loop
      vertex 1.02347 -1.72988 0
      vertex 1.02272 -1.72793 1
      vertex 1.02272 -1.72793 0
    endloop
  endfacet
  facet normal -0.933698 -0.358062 0
    outer loop
      vertex 1.02272 -1.72793 1
      vertex 1.02347 -1.72988 0
      vertex 1.02347 -1.72988 1
    endloop
  endfacet
  facet normal 0.965985 -0.258599 0
    outer loop
      vertex 2.17308 -0.597553 1
      vertex 2.17362 -0.595533 0
      vertex 2.17362 -0.595533 1
    endloop
  endfacet
  facet normal 0.965985 -0.258599 0
    outer loop
      vertex 2.17362 -0.595533 0
      vertex 2.17308 -0.597553 1
      vertex 2.17308 -0.597553 0
    endloop
  endfacet
  facet normal 0.987681 0.156478 0
    outer loop
      vertex 2.17373 -0.593446 1
      vertex 2.17341 -0.591381 0
      vertex 2.17341 -0.591381 1
    endloop
  endfacet
  facet normal 0.987681 0.156478 0
    outer loop
      vertex 2.17341 -0.591381 0
      vertex 2.17373 -0.593446 1
      vertex 2.17373 -0.593446 0
    endloop
  endfacet
  facet normal -0.156478 -0.987681 0
    outer loop
      vertex 1.02979 -1.735 0
      vertex 1.03185 -1.73533 1
      vertex 1.02979 -1.735 1
    endloop
  endfacet
  facet normal -0.156478 -0.987681 -0
    outer loop
      vertex 1.03185 -1.73533 1
      vertex 1.02979 -1.735 0
      vertex 1.03185 -1.73533 0
    endloop
  endfacet
  facet normal 0.156478 0.987681 -0
    outer loop
      vertex 1.03496 0.54706 0
      vertex 1.0329 0.547387 1
      vertex 1.03496 0.54706 1
    endloop
  endfacet
  facet normal 0.156478 0.987681 0
    outer loop
      vertex 1.0329 0.547387 1
      vertex 1.03496 0.54706 0
      vertex 1.0329 0.547387 0
    endloop
  endfacet
  facet normal -1 0 0
    outer loop
      vertex 1.02239 -1.72586 0
      vertex 1.02239 -1.3 1
      vertex 1.02239 -1.3 0
    endloop
  endfacet
  facet normal -1 -0 0
    outer loop
      vertex 1.02239 -1.3 1
      vertex 1.02239 -1.72586 0
      vertex 1.02239 -1.72586 1
    endloop
  endfacet
  facet normal -1 0 0
    outer loop
      vertex 1.02239 -2.27016e-016 0
      vertex 1.02239 0.536878 1
      vertex 1.02239 0.536878 0
    endloop
  endfacet
  facet normal -1 -0 0
    outer loop
      vertex 1.02239 0.536878 1
      vertex 1.02239 -2.27016e-016 0
      vertex 1.02239 -2.27016e-016 1
    endloop
  endfacet
  facet normal -0.998647 0.0520081 0
    outer loop
      vertex 1.02239 0.536878 0
      vertex 1.0225 0.538965 1
      vertex 1.0225 0.538965 0
    endloop
  endfacet
  facet normal -0.998647 0.0520081 0
    outer loop
      vertex 1.0225 0.538965 1
      vertex 1.02239 0.536878 0
      vertex 1.02239 0.536878 1
    endloop
  endfacet
  facet normal -0.96584 0.259139 0
    outer loop
      vertex 1.0225 0.538965 0
      vertex 1.02304 0.540984 1
      vertex 1.02304 0.540984 0
    endloop
  endfacet
  facet normal -0.96584 0.259139 0
    outer loop
      vertex 1.02304 0.540984 1
      vertex 1.0225 0.538965 0
      vertex 1.0225 0.538965 1
    endloop
  endfacet
  facet normal 0.776937 -0.629579 0
    outer loop
      vertex 2.17082 -0.60104 1
      vertex 2.17213 -0.599416 0
      vertex 2.17213 -0.599416 1
    endloop
  endfacet
  facet normal 0.776937 -0.629579 0
    outer loop
      vertex 2.17213 -0.599416 0
      vertex 2.17082 -0.60104 1
      vertex 2.17082 -0.60104 0
    endloop
  endfacet
  facet normal 0.891026 -0.453953 0
    outer loop
      vertex 2.17213 -0.599416 1
      vertex 2.17308 -0.597553 0
      vertex 2.17308 -0.597553 1
    endloop
  endfacet
  facet normal 0.891026 -0.453953 0
    outer loop
      vertex 2.17308 -0.597553 0
      vertex 2.17213 -0.599416 1
      vertex 2.17213 -0.599416 0
    endloop
  endfacet
  facet normal 0.933545 0.358459 0
    outer loop
      vertex 2.17341 -0.591381 1
      vertex 2.17266 -0.589429 0
      vertex 2.17266 -0.589429 1
    endloop
  endfacet
  facet normal 0.933545 0.358459 0
    outer loop
      vertex 2.17266 -0.589429 0
      vertex 2.17341 -0.591381 1
      vertex 2.17341 -0.591381 0
    endloop
  endfacet
  facet normal 0.62908 -0.77734 0
    outer loop
      vertex 1.03782 -1.73373 0
      vertex 1.03945 -1.73241 1
      vertex 1.03782 -1.73373 1
    endloop
  endfacet
  facet normal 0.62908 -0.77734 0
    outer loop
      vertex 1.03945 -1.73241 1
      vertex 1.03782 -1.73373 0
      vertex 1.03945 -1.73241 0
    endloop
  endfacet
  facet normal 0.453953 -0.891026 0
    outer loop
      vertex 1.03596 -1.73468 0
      vertex 1.03782 -1.73373 1
      vertex 1.03596 -1.73468 1
    endloop
  endfacet
  facet normal 0.453953 -0.891026 0
    outer loop
      vertex 1.03782 -1.73373 1
      vertex 1.03596 -1.73468 0
      vertex 1.03782 -1.73373 0
    endloop
  endfacet
  facet normal -0.707107 -0.707107 0
    outer loop
      vertex 1.02608 -1.73311 0
      vertex 1.0246 -1.73163 1
      vertex 1.0246 -1.73163 0
    endloop
  endfacet
  facet normal -0.707107 -0.707107 0
    outer loop
      vertex 1.0246 -1.73163 1
      vertex 1.02608 -1.73311 0
      vertex 1.02608 -1.73311 1
    endloop
  endfacet
  facet normal -0.258599 0.965985 0
    outer loop
      vertex 1.03081 0.547277 0
      vertex 1.02879 0.546737 1
      vertex 1.03081 0.547277 1
    endloop
  endfacet
  facet normal -0.258599 0.965985 0
    outer loop
      vertex 1.02879 0.546737 1
      vertex 1.03081 0.547277 0
      vertex 1.02879 0.546737 0
    endloop
  endfacet
  facet normal 0.998623 -0.0524631 0
    outer loop
      vertex 2.17362 -0.595533 1
      vertex 2.17373 -0.593446 0
      vertex 2.17373 -0.593446 1
    endloop
  endfacet
  facet normal 0.998623 -0.0524631 0
    outer loop
      vertex 2.17373 -0.593446 0
      vertex 2.17362 -0.595533 1
      vertex 2.17362 -0.595533 0
    endloop
  endfacet
  facet normal 0.83859 0.544764 0
    outer loop
      vertex 2.17266 -0.589429 1
      vertex 2.17152 -0.587676 0
      vertex 2.17152 -0.587676 1
    endloop
  endfacet
  facet normal 0.83859 0.544764 0
    outer loop
      vertex 2.17152 -0.587676 0
      vertex 2.17266 -0.589429 1
      vertex 2.17266 -0.589429 0
    endloop
  endfacet
  facet normal 0.0524631 -0.998623 0
    outer loop
      vertex 1.03185 -1.73533 0
      vertex 1.03394 -1.73522 1
      vertex 1.03185 -1.73533 1
    endloop
  endfacet
  facet normal 0.0524631 -0.998623 0
    outer loop
      vertex 1.03394 -1.73522 1
      vertex 1.03185 -1.73533 0
      vertex 1.03394 -1.73522 0
    endloop
  endfacet
  facet normal -0.0524631 0.998623 0
    outer loop
      vertex 1.0329 0.547387 0
      vertex 1.03081 0.547277 1
      vertex 1.0329 0.547387 1
    endloop
  endfacet
  facet normal -0.0524631 0.998623 0
    outer loop
      vertex 1.03081 0.547277 1
      vertex 1.0329 0.547387 0
      vertex 1.03081 0.547277 0
    endloop
  endfacet
  facet normal 0.358459 0.933545 -0
    outer loop
      vertex 1.03692 0.54631 0
      vertex 1.03496 0.54706 1
      vertex 1.03692 0.54631 1
    endloop
  endfacet
  facet normal 0.358459 0.933545 0
    outer loop
      vertex 1.03496 0.54706 1
      vertex 1.03692 0.54631 0
      vertex 1.03496 0.54706 0
    endloop
  endfacet
  facet normal 0.544764 0.83859 -0
    outer loop
      vertex 1.03867 0.545172 0
      vertex 1.03692 0.54631 1
      vertex 1.03867 0.545172 1
    endloop
  endfacet
  facet normal 0.544764 0.83859 0
    outer loop
      vertex 1.03692 0.54631 1
      vertex 1.03867 0.545172 0
      vertex 1.03692 0.54631 0
    endloop
  endfacet
  facet normal 0.259025 -0.965871 0
    outer loop
      vertex 1.03394 -1.73522 0
      vertex 1.03596 -1.73468 1
      vertex 1.03394 -1.73522 1
    endloop
  endfacet
  facet normal 0.259025 -0.965871 0
    outer loop
      vertex 1.03596 -1.73468 1
      vertex 1.03394 -1.73522 0
      vertex 1.03596 -1.73468 0
    endloop
  endfacet
  facet normal -0.358612 -0.933487 0
    outer loop
      vertex 1.02784 -1.73425 0
      vertex 1.02979 -1.735 1
      vertex 1.02784 -1.73425 1
    endloop
  endfacet
  facet normal -0.358612 -0.933487 -0
    outer loop
      vertex 1.02979 -1.735 1
      vertex 1.02784 -1.73425 0
      vertex 1.02979 -1.735 0
    endloop
  endfacet
  facet normal -0.544555 -0.838725 0
    outer loop
      vertex 1.02608 -1.73311 0
      vertex 1.02784 -1.73425 1
      vertex 1.02608 -1.73311 1
    endloop
  endfacet
  facet normal -0.544555 -0.838725 -0
    outer loop
      vertex 1.02784 -1.73425 1
      vertex 1.02608 -1.73311 0
      vertex 1.02784 -1.73425 0
    endloop
  endfacet
  facet normal 0 -1 0
    outer loop
      vertex -1.19166 -1.3 0
      vertex 1.02239 -1.3 1
      vertex -1.19166 -1.3 1
    endloop
  endfacet
  facet normal 0 -1 -0
    outer loop
      vertex 1.02239 -1.3 1
      vertex -1.19166 -1.3 0
      vertex 1.02239 -1.3 0
    endloop
  endfacet
  facet normal 2.22045e-016 1 -0
    outer loop
      vertex 1.02239 -2.27016e-016 0
      vertex -0.427096 9.48344e-017 1
      vertex 1.02239 -2.27016e-016 1
    endloop
  endfacet
  facet normal 2.22045e-016 1 0
    outer loop
      vertex -0.427096 9.48344e-017 1
      vertex 1.02239 -2.27016e-016 0
      vertex -0.427096 9.48344e-017 0
    endloop
  endfacet
endsolid OpenSCAD_Model
