solid OpenSCAD_Model
  facet normal 0.994522 0.104529 0
    outer loop
      vertex 5 0 1
      vertex 4.89074 1.03956 0
      vertex 4.89074 1.03956 1
    endloop
  endfacet
  facet normal 0.994522 0.104529 0
    outer loop
      vertex 4.89074 1.03956 0
      vertex 5 0 1
      vertex 5 0 0
    endloop
  endfacet
  facet normal -0.994522 0.104529 0
    outer loop
      vertex -5 0 0
      vertex -4.89074 1.03956 1
      vertex -4.89074 1.03956 0
    endloop
  endfacet
  facet normal -0.994522 0.104529 0
    outer loop
      vertex -4.89074 1.03956 1
      vertex -5 0 0
      vertex -5 0 1
    endloop
  endfacet
  facet normal 0 1 -0
    outer loop
      vertex 0.522642 4.97261 0
      vertex -0.522642 4.97261 1
      vertex 0.522642 4.97261 1
    endloop
  endfacet
  facet normal 0 1 0
    outer loop
      vertex -0.522642 4.97261 1
      vertex 0.522642 4.97261 0
      vertex -0.522642 4.97261 0
    endloop
  endfacet
  facet normal 0 -1 0
    outer loop
      vertex -0.522642 -4.97261 0
      vertex 0.522642 -4.97261 1
      vertex -0.522642 -4.97261 1
    endloop
  endfacet
  facet normal 0 -1 -0
    outer loop
      vertex 0.522642 -4.97261 1
      vertex -0.522642 -4.97261 0
      vertex 0.522642 -4.97261 0
    endloop
  endfacet
  facet normal 0.587785 0.809017 -0
    outer loop
      vertex 3.34565 3.71572 0
      vertex 3.00994 3.95963 1
      vertex 3.34565 3.71572 1
    endloop
  endfacet
  facet normal 0.587785 0.809017 0
    outer loop
      vertex 3.00994 3.95963 1
      vertex 3.34565 3.71572 0
      vertex 3.00994 3.95963 0
    endloop
  endfacet
  facet normal -0.587785 0.809017 0
    outer loop
      vertex -2.5 4.33013 0
      vertex -3.34565 3.71572 1
      vertex -2.5 4.33013 1
    endloop
  endfacet
  facet normal -0.587785 0.809017 0
    outer loop
      vertex -3.34565 3.71572 1
      vertex -2.5 4.33013 0
      vertex -3.34565 3.71572 0
    endloop
  endfacet
  facet normal -0.207911 0.978148 0
    outer loop
      vertex -0.522642 4.97261 0
      vertex -1.54508 4.75528 1
      vertex -0.522642 4.97261 1
    endloop
  endfacet
  facet normal -0.207911 0.978148 0
    outer loop
      vertex -1.54508 4.75528 1
      vertex -0.522642 4.97261 0
      vertex -1.54508 4.75528 0
    endloop
  endfacet
  facet normal 0.951057 -0.309017 0
    outer loop
      vertex 4.56773 -2.03368 1
      vertex 4.89074 -1.03956 0
      vertex 4.89074 -1.03956 1
    endloop
  endfacet
  facet normal 0.951057 -0.309017 0
    outer loop
      vertex 4.89074 -1.03956 0
      vertex 4.56773 -2.03368 1
      vertex 4.56773 -2.03368 0
    endloop
  endfacet
  facet normal 0.866025 0.5 0
    outer loop
      vertex 4.56773 2.03368 1
      vertex 4.04508 2.93893 0
      vertex 4.04508 2.93893 1
    endloop
  endfacet
  facet normal 0.866025 0.5 0
    outer loop
      vertex 4.04508 2.93893 0
      vertex 4.56773 2.03368 1
      vertex 4.56773 2.03368 0
    endloop
  endfacet
  facet normal 0.951057 0.309017 0
    outer loop
      vertex 4.89074 1.03956 1
      vertex 4.56773 2.03368 0
      vertex 4.56773 2.03368 1
    endloop
  endfacet
  facet normal 0.951057 0.309017 0
    outer loop
      vertex 4.56773 2.03368 0
      vertex 4.89074 1.03956 1
      vertex 4.89074 1.03956 0
    endloop
  endfacet
  facet normal 0.743145 0.669131 0
    outer loop
      vertex 4.04508 2.93893 1
      vertex 3.34565 3.71572 0
      vertex 3.34565 3.71572 1
    endloop
  endfacet
  facet normal 0.743145 0.669131 0
    outer loop
      vertex 3.34565 3.71572 0
      vertex 4.04508 2.93893 1
      vertex 4.04508 2.93893 0
    endloop
  endfacet
  facet normal 0.207912 0.978147 -0
    outer loop
      vertex 0.639544 4.94776 0
      vertex 0.522642 4.97261 1
      vertex 0.639544 4.94776 1
    endloop
  endfacet
  facet normal 0.207912 0.978147 0
    outer loop
      vertex 0.522642 4.97261 1
      vertex 0.639544 4.94776 0
      vertex 0.522642 4.97261 0
    endloop
  endfacet
  facet normal -0.866025 0.5 0
    outer loop
      vertex -4.56773 2.03368 0
      vertex -4.04508 2.93893 1
      vertex -4.04508 2.93893 0
    endloop
  endfacet
  facet normal -0.866025 0.5 0
    outer loop
      vertex -4.04508 2.93893 1
      vertex -4.56773 2.03368 0
      vertex -4.56773 2.03368 1
    endloop
  endfacet
  facet normal -0.743145 0.669131 0
    outer loop
      vertex -4.04508 2.93893 0
      vertex -3.34565 3.71572 1
      vertex -3.34565 3.71572 0
    endloop
  endfacet
  facet normal -0.743145 0.669131 0
    outer loop
      vertex -3.34565 3.71572 1
      vertex -4.04508 2.93893 0
      vertex -4.04508 2.93893 1
    endloop
  endfacet
  facet normal -0.951057 0.309017 0
    outer loop
      vertex -4.89074 1.03956 0
      vertex -4.56773 2.03368 1
      vertex -4.56773 2.03368 0
    endloop
  endfacet
  facet normal -0.951057 0.309017 0
    outer loop
      vertex -4.56773 2.03368 1
      vertex -4.89074 1.03956 0
      vertex -4.89074 1.03956 1
    endloop
  endfacet
  facet normal 0 0 1
    outer loop
      vertex -5 0 1
      vertex -4.5 0 1
      vertex -4.89074 1.03956 1
    endloop
  endfacet
  facet normal 0 -0 1
    outer loop
      vertex -4.89074 -1.03956 1
      vertex -4.5 0 1
      vertex -5 0 1
    endloop
  endfacet
  facet normal 0 0 1
    outer loop
      vertex -4.5 0 1
      vertex -4.89074 -1.03956 1
      vertex -4.61615 -1.88465 1
    endloop
  endfacet
  facet normal -0 0 1
    outer loop
      vertex -0.522642 4.97261 1
      vertex 0.276151 4.47535 1
      vertex 0.522642 4.97261 1
    endloop
  endfacet
  facet normal 0 0 1
    outer loop
      vertex 0.276151 4.47535 1
      vertex -0.522642 4.97261 1
      vertex -0.470378 4.47535 1
    endloop
  endfacet
  facet normal 0 0 1
    outer loop
      vertex -0.522642 4.97261 1
      vertex -1.39058 4.27975 1
      vertex -0.470378 4.47535 1
    endloop
  endfacet
  facet normal -0 0 1
    outer loop
      vertex -1.54508 4.75528 1
      vertex -1.39058 4.27975 1
      vertex -0.522642 4.97261 1
    endloop
  endfacet
  facet normal 0 0 1
    outer loop
      vertex -1.54508 4.75528 1
      vertex -2.25 3.89711 1
      vertex -1.39058 4.27975 1
    endloop
  endfacet
  facet normal -0 0 1
    outer loop
      vertex -2.5 4.33013 1
      vertex -2.25 3.89711 1
      vertex -1.54508 4.75528 1
    endloop
  endfacet
  facet normal 0 0 1
    outer loop
      vertex -2.5 4.33013 1
      vertex -3.01109 3.34415 1
      vertex -2.25 3.89711 1
    endloop
  endfacet
  facet normal -0 0 1
    outer loop
      vertex -3.34565 3.71572 1
      vertex -3.01109 3.34415 1
      vertex -2.5 4.33013 1
    endloop
  endfacet
  facet normal 0 0 1
    outer loop
      vertex -3.34565 3.71572 1
      vertex -3.64058 2.64503 1
      vertex -3.01109 3.34415 1
    endloop
  endfacet
  facet normal -0 0 1
    outer loop
      vertex -4.04508 2.93893 1
      vertex -3.64058 2.64503 1
      vertex -3.34565 3.71572 1
    endloop
  endfacet
  facet normal 0 0 1
    outer loop
      vertex -4.04508 2.93893 1
      vertex -4.11095 1.83031 1
      vertex -3.64058 2.64503 1
    endloop
  endfacet
  facet normal -0 0 1
    outer loop
      vertex -4.56773 2.03368 1
      vertex -4.11095 1.83031 1
      vertex -4.04508 2.93893 1
    endloop
  endfacet
  facet normal -0 0 1
    outer loop
      vertex -4.89074 1.03956 1
      vertex -4.40166 0.935602 1
      vertex -4.56773 2.03368 1
    endloop
  endfacet
  facet normal 0 0 1
    outer loop
      vertex -4.11095 1.83031 1
      vertex -4.56773 2.03368 1
      vertex -4.40166 0.935602 1
    endloop
  endfacet
  facet normal 0 0 1
    outer loop
      vertex 3.00994 3.34498 1
      vertex 1.20258 2.72584 1
      vertex 1.20288 2.72377 1
    endloop
  endfacet
  facet normal 0 0 1
    outer loop
      vertex 3.00994 3.95963 1
      vertex 1.20187 2.72781 1
      vertex 1.20258 2.72584 1
    endloop
  endfacet
  facet normal 0 0 1
    outer loop
      vertex 3.00994 3.95963 1
      vertex 1.20076 2.72958 1
      vertex 1.20187 2.72781 1
    endloop
  endfacet
  facet normal 0 0 1
    outer loop
      vertex 3.00994 3.95963 1
      vertex 1.19931 2.73108 1
      vertex 1.20076 2.72958 1
    endloop
  endfacet
  facet normal 0 -0 1
    outer loop
      vertex 1.19564 2.73304 1
      vertex 3.00994 3.95963 1
      vertex 0.639544 4.94776 1
    endloop
  endfacet
  facet normal 0 0 1
    outer loop
      vertex 3.00994 3.95963 1
      vertex 1.19758 2.73225 1
      vertex 1.19931 2.73108 1
    endloop
  endfacet
  facet normal 0 0 1
    outer loop
      vertex 3.00994 3.95963 1
      vertex 1.19564 2.73304 1
      vertex 1.19758 2.73225 1
    endloop
  endfacet
  facet normal 0 0 1
    outer loop
      vertex 1.19564 2.73304 1
      vertex 0.639544 4.94776 1
      vertex 1.19358 2.7334 1
    endloop
  endfacet
  facet normal -0 0 1
    outer loop
      vertex 0.276151 4.47535 1
      vertex 1.19358 2.7334 1
      vertex 0.639544 4.94776 1
    endloop
  endfacet
  facet normal 0 0 1
    outer loop
      vertex 1.19358 2.7334 1
      vertex 0.276151 4.47535 1
      vertex 1.19149 2.73333 1
    endloop
  endfacet
  facet normal 0 0 1
    outer loop
      vertex 1.19149 2.73333 1
      vertex 0.276151 4.47535 1
      vertex 1.18946 2.73282 1
    endloop
  endfacet
  facet normal 0 0 1
    outer loop
      vertex 1.18946 2.73282 1
      vertex 0.276151 4.47535 1
      vertex 1.18758 2.7319 1
    endloop
  endfacet
  facet normal 0 0 1
    outer loop
      vertex 1.18758 2.7319 1
      vertex 0.276151 4.47535 1
      vertex 1.18594 2.73062 1
    endloop
  endfacet
  facet normal 0 0 1
    outer loop
      vertex 0.276151 4.47535 1
      vertex 0.639544 4.94776 1
      vertex 0.522642 4.97261 1
    endloop
  endfacet
  facet normal 0 0 1
    outer loop
      vertex 1.18594 2.73062 1
      vertex 0.276151 4.47535 1
      vertex 1.18459 2.72901 1
    endloop
  endfacet
  facet normal 0 0 1
    outer loop
      vertex 0.276151 4.47535 1
      vertex -0.427096 9.48344e-017 1
      vertex 1.18459 2.72901 1
    endloop
  endfacet
  facet normal 0 0 1
    outer loop
      vertex -4.24857 -1.40679 1
      vertex -0.427096 9.48344e-017 1
      vertex 0.276151 4.47535 1
    endloop
  endfacet
  facet normal 0 0 1
    outer loop
      vertex -0.427096 9.48344e-017 1
      vertex -4.24857 -1.40679 1
      vertex -1.19166 -1.3 1
    endloop
  endfacet
  facet normal 0 0 1
    outer loop
      vertex -1.19166 -1.3 1
      vertex -4.24857 -1.40679 1
      vertex -2.59816 -3.64416 1
    endloop
  endfacet
  facet normal -0 0 1
    outer loop
      vertex -4.61615 -1.88465 1
      vertex -2.59816 -3.64416 1
      vertex -4.24857 -1.40679 1
    endloop
  endfacet
  facet normal 0 0 1
    outer loop
      vertex -2.59816 -3.64416 1
      vertex -4.61615 -1.88465 1
      vertex -2.85499 -4.07221 1
    endloop
  endfacet
  facet normal 0 0 1
    outer loop
      vertex -4.61615 -1.88465 1
      vertex -4.24857 -1.40679 1
      vertex -4.40166 -0.935602 1
    endloop
  endfacet
  facet normal 0 0 1
    outer loop
      vertex -4.40166 0.935602 1
      vertex -4.89074 1.03956 1
      vertex -4.5 0 1
    endloop
  endfacet
  facet normal 0 0 1
    outer loop
      vertex -4.61615 -1.88465 1
      vertex -4.40166 -0.935602 1
      vertex -4.5 0 1
    endloop
  endfacet
  facet normal 0 0 1
    outer loop
      vertex -2.85499 -4.07221 1
      vertex -4.61615 -1.88465 1
      vertex -3.41766 -5.01 1
    endloop
  endfacet
  facet normal -0 0 1
    outer loop
      vertex -7.00743 -4.99331 1
      vertex -3.41766 -5.01 1
      vertex -4.61615 -1.88465 1
    endloop
  endfacet
  facet normal 0 0 1
    outer loop
      vertex -3.41766 -5.01 1
      vertex -7.00743 -4.99331 1
      vertex -7 -5.01 1
    endloop
  endfacet
  facet normal 0 0 1
    outer loop
      vertex -7 -5.01 1
      vertex -7.00743 -4.99331 1
      vertex -7.00208 -5.00978 1
    endloop
  endfacet
  facet normal 0 0 1
    outer loop
      vertex -7.00208 -5.00978 1
      vertex -7.00743 -4.99331 1
      vertex -7.00407 -5.00914 1
    endloop
  endfacet
  facet normal 0 0 1
    outer loop
      vertex -7.00407 -5.00914 1
      vertex -7.00743 -4.99331 1
      vertex -7.00588 -5.00809 1
    endloop
  endfacet
  facet normal 0 0 1
    outer loop
      vertex -7.00743 -4.99331 1
      vertex -7.00743 -5.00669 1
      vertex -7.00588 -5.00809 1
    endloop
  endfacet
  facet normal -0 0 1
    outer loop
      vertex -7.00866 -4.995 1
      vertex -7.00743 -5.00669 1
      vertex -7.00743 -4.99331 1
    endloop
  endfacet
  facet normal 0 0 1
    outer loop
      vertex -7.00866 -4.995 1
      vertex -7.00866 -5.005 1
      vertex -7.00743 -5.00669 1
    endloop
  endfacet
  facet normal -0 0 1
    outer loop
      vertex -7.00951 -4.99691 1
      vertex -7.00866 -5.005 1
      vertex -7.00866 -4.995 1
    endloop
  endfacet
  facet normal 0 0 1
    outer loop
      vertex -7.00951 -4.99691 1
      vertex -7.00951 -5.00309 1
      vertex -7.00866 -5.005 1
    endloop
  endfacet
  facet normal -0 0 1
    outer loop
      vertex -7.00994 -4.99895 1
      vertex -7.00951 -5.00309 1
      vertex -7.00951 -4.99691 1
    endloop
  endfacet
  facet normal 0 0 1
    outer loop
      vertex -7.00951 -5.00309 1
      vertex -7.00994 -4.99895 1
      vertex -7.00994 -5.00105 1
    endloop
  endfacet
  facet normal -0 0 1
    outer loop
      vertex 3.00951 5.99691 1
      vertex 3.00994 3.95963 1
      vertex 3.00994 5.99895 1
    endloop
  endfacet
  facet normal -0 0 1
    outer loop
      vertex 3.00866 5.995 1
      vertex 3.00994 3.95963 1
      vertex 3.00951 5.99691 1
    endloop
  endfacet
  facet normal -0 0 1
    outer loop
      vertex 3.00743 5.99331 1
      vertex 3.00994 3.95963 1
      vertex 3.00866 5.995 1
    endloop
  endfacet
  facet normal -0 0 1
    outer loop
      vertex 3.00588 5.99191 1
      vertex 3.00994 3.95963 1
      vertex 3.00743 5.99331 1
    endloop
  endfacet
  facet normal -0 0 1
    outer loop
      vertex 3.00407 5.99086 1
      vertex 3.00994 3.95963 1
      vertex 3.00588 5.99191 1
    endloop
  endfacet
  facet normal -0 0 1
    outer loop
      vertex 3.00208 5.99022 1
      vertex 3.00994 3.95963 1
      vertex 3.00407 5.99086 1
    endloop
  endfacet
  facet normal -0 0 1
    outer loop
      vertex 3 5.99 1
      vertex 3.00994 3.95963 1
      vertex 3.00208 5.99022 1
    endloop
  endfacet
  facet normal -0 0 1
    outer loop
      vertex 1.44127 5.99 1
      vertex 3.00994 3.95963 1
      vertex 3 5.99 1
    endloop
  endfacet
  facet normal -0 0 1
    outer loop
      vertex 0.639544 4.94776 1
      vertex 3.00994 3.95963 1
      vertex 1.44127 5.99 1
    endloop
  endfacet
  facet normal 0 0 1
    outer loop
      vertex 1.20258 2.72584 1
      vertex 3.00994 3.34498 1
      vertex 3.00994 3.95963 1
    endloop
  endfacet
  facet normal 0 0 1
    outer loop
      vertex 1.08835 1.08593 1
      vertex 3.00994 3.34498 1
      vertex 1.20288 2.72377 1
    endloop
  endfacet
  facet normal 0 0 1
    outer loop
      vertex 3.00994 3.34498 1
      vertex 1.08835 1.08593 1
      vertex 3.00994 -0.622162 1
    endloop
  endfacet
  facet normal 0 0 1
    outer loop
      vertex 4.5 0 1
      vertex 5 0 1
      vertex 4.89074 1.03956 1
    endloop
  endfacet
  facet normal 0 0 1
    outer loop
      vertex 4.40166 0.935602 1
      vertex 4.89074 1.03956 1
      vertex 4.56773 2.03368 1
    endloop
  endfacet
  facet normal 0 0 1
    outer loop
      vertex 5 0 1
      vertex 4.5 0 1
      vertex 4.89074 -1.03956 1
    endloop
  endfacet
  facet normal -0 0 1
    outer loop
      vertex 4.40166 -0.935602 1
      vertex 4.89074 -1.03956 1
      vertex 4.5 0 1
    endloop
  endfacet
  facet normal 0 0 1
    outer loop
      vertex 4.89074 1.03956 1
      vertex 4.40166 0.935602 1
      vertex 4.5 0 1
    endloop
  endfacet
  facet normal 0 0 1
    outer loop
      vertex 4.56773 2.03368 1
      vertex 4.11095 1.83031 1
      vertex 4.40166 0.935602 1
    endloop
  endfacet
  facet normal 0 0 1
    outer loop
      vertex 4.04508 2.93893 1
      vertex 4.11095 1.83031 1
      vertex 4.56773 2.03368 1
    endloop
  endfacet
  facet normal 0 0 1
    outer loop
      vertex 4.04508 2.93893 1
      vertex 3.64058 2.64503 1
      vertex 4.11095 1.83031 1
    endloop
  endfacet
  facet normal 0 0 1
    outer loop
      vertex 3.34565 3.71572 1
      vertex 3.64058 2.64503 1
      vertex 4.04508 2.93893 1
    endloop
  endfacet
  facet normal 0 0 1
    outer loop
      vertex 3.34565 3.71572 1
      vertex 3.01109 3.34415 1
      vertex 3.64058 2.64503 1
    endloop
  endfacet
  facet normal 0 0 1
    outer loop
      vertex 3.00994 3.34498 1
      vertex 3.34565 3.71572 1
      vertex 3.00994 3.95963 1
    endloop
  endfacet
  facet normal 0 0 1
    outer loop
      vertex 3.34565 3.71572 1
      vertex 3.00994 3.34498 1
      vertex 3.01109 3.34415 1
    endloop
  endfacet
  facet normal 0 0 1
    outer loop
      vertex 4.89074 -1.03956 1
      vertex 4.40166 -0.935602 1
      vertex 4.56773 -2.03368 1
    endloop
  endfacet
  facet normal -0 0 1
    outer loop
      vertex 4.11095 -1.83031 1
      vertex 4.56773 -2.03368 1
      vertex 4.40166 -0.935602 1
    endloop
  endfacet
  facet normal 0 0 1
    outer loop
      vertex 4.11095 -1.83031 1
      vertex 4.04508 -2.93893 1
      vertex 4.56773 -2.03368 1
    endloop
  endfacet
  facet normal -0 0 1
    outer loop
      vertex 3.64058 -2.64503 1
      vertex 4.04508 -2.93893 1
      vertex 4.11095 -1.83031 1
    endloop
  endfacet
  facet normal 0 0 1
    outer loop
      vertex 3.64058 -2.64503 1
      vertex 3.34565 -3.71572 1
      vertex 4.04508 -2.93893 1
    endloop
  endfacet
  facet normal -0 0 1
    outer loop
      vertex 3.01109 -3.34415 1
      vertex 3.34565 -3.71572 1
      vertex 3.64058 -2.64503 1
    endloop
  endfacet
  facet normal 0 0 1
    outer loop
      vertex 3.01109 -3.34415 1
      vertex 2.5 -4.33013 1
      vertex 3.34565 -3.71572 1
    endloop
  endfacet
  facet normal -0 0 1
    outer loop
      vertex 2.25 -3.89711 1
      vertex 2.5 -4.33013 1
      vertex 3.01109 -3.34415 1
    endloop
  endfacet
  facet normal 0 0 1
    outer loop
      vertex 2.25 -3.89711 1
      vertex 1.54508 -4.75528 1
      vertex 2.5 -4.33013 1
    endloop
  endfacet
  facet normal -0 0 1
    outer loop
      vertex 1.39058 -4.27975 1
      vertex 1.54508 -4.75528 1
      vertex 2.25 -3.89711 1
    endloop
  endfacet
  facet normal 0 0 1
    outer loop
      vertex 1.39058 -4.27975 1
      vertex 0.522642 -4.97261 1
      vertex 1.54508 -4.75528 1
    endloop
  endfacet
  facet normal -0 0 1
    outer loop
      vertex 0.470378 -4.47535 1
      vertex 0.522642 -4.97261 1
      vertex 1.39058 -4.27975 1
    endloop
  endfacet
  facet normal -0 0 1
    outer loop
      vertex -0.470378 -4.47535 1
      vertex 0.522642 -4.97261 1
      vertex 0.470378 -4.47535 1
    endloop
  endfacet
  facet normal 0 0 1
    outer loop
      vertex -0.470378 -4.47535 1
      vertex -0.522642 -4.97261 1
      vertex 0.522642 -4.97261 1
    endloop
  endfacet
  facet normal 0 0 1
    outer loop
      vertex -1.39058 -4.27975 1
      vertex -0.522642 -4.97261 1
      vertex -0.470378 -4.47535 1
    endloop
  endfacet
  facet normal 0 0 1
    outer loop
      vertex -1.39058 -4.27975 1
      vertex -1.54508 -4.75528 1
      vertex -0.522642 -4.97261 1
    endloop
  endfacet
  facet normal 0 0 1
    outer loop
      vertex -2.25 -3.89711 1
      vertex -1.54508 -4.75528 1
      vertex -1.39058 -4.27975 1
    endloop
  endfacet
  facet normal 0 0 1
    outer loop
      vertex -2.25 -3.89711 1
      vertex -2.5 -4.33013 1
      vertex -1.54508 -4.75528 1
    endloop
  endfacet
  facet normal 0 0 1
    outer loop
      vertex -2.85499 -4.07221 1
      vertex -2.25 -3.89711 1
      vertex -2.59816 -3.64416 1
    endloop
  endfacet
  facet normal 0 0 1
    outer loop
      vertex -2.25 -3.89711 1
      vertex -2.85499 -4.07221 1
      vertex -2.5 -4.33013 1
    endloop
  endfacet
  facet normal 0 0 1
    outer loop
      vertex -0.427096 9.48344e-017 1
      vertex 0.98917 -1.3 1
      vertex 1.02353 -2.27268e-016 1
    endloop
  endfacet
  facet normal 0 0 1
    outer loop
      vertex 0.98917 -1.3 1
      vertex -0.427096 9.48344e-017 1
      vertex -1.19166 -1.3 1
    endloop
  endfacet
  facet normal 0 0 1
    outer loop
      vertex 2.92889 -0.697188 1
      vertex 2.92916 -0.701756 1
      vertex 2.9293 -0.699459 1
    endloop
  endfacet
  facet normal 0 0 1
    outer loop
      vertex 2.92889 -0.697188 1
      vertex 2.92848 -0.703978 1
      vertex 2.92916 -0.701756 1
    endloop
  endfacet
  facet normal 0 0 1
    outer loop
      vertex 2.92795 -0.695042 1
      vertex 2.92848 -0.703978 1
      vertex 2.92889 -0.697188 1
    endloop
  endfacet
  facet normal 0 0 1
    outer loop
      vertex 2.92795 -0.695042 1
      vertex 2.9273 -0.706026 1
      vertex 2.92848 -0.703978 1
    endloop
  endfacet
  facet normal 0 0 1
    outer loop
      vertex 2.92653 -0.693112 1
      vertex 2.9273 -0.706026 1
      vertex 2.92795 -0.695042 1
    endloop
  endfacet
  facet normal 0 0 1
    outer loop
      vertex 2.92653 -0.693112 1
      vertex 2.92565 -0.707813 1
      vertex 2.9273 -0.706026 1
    endloop
  endfacet
  facet normal -0 0 1
    outer loop
      vertex 1.02353 -2.27268e-016 1
      vertex 2.92653 -0.693112 1
      vertex 1.06853 0.941929 1
    endloop
  endfacet
  facet normal 0 0 1
    outer loop
      vertex 1.04818 0.932805 1
      vertex 1.06853 0.941929 1
      vertex 1.06633 0.943182 1
    endloop
  endfacet
  facet normal 0 0 1
    outer loop
      vertex 1.04818 0.932805 1
      vertex 1.06633 0.943182 1
      vertex 1.0639 0.944006 1
    endloop
  endfacet
  facet normal 0 0 1
    outer loop
      vertex 1.04818 0.932805 1
      vertex 1.0639 0.944006 1
      vertex 1.06131 0.944366 1
    endloop
  endfacet
  facet normal 0 0 1
    outer loop
      vertex 1.04818 0.932805 1
      vertex 1.06131 0.944366 1
      vertex 1.0587 0.944245 1
    endloop
  endfacet
  facet normal 0 0 1
    outer loop
      vertex 1.04818 0.932805 1
      vertex 1.0587 0.944245 1
      vertex 1.05618 0.94365 1
    endloop
  endfacet
  facet normal 0 0 1
    outer loop
      vertex 1.04818 0.932805 1
      vertex 1.05618 0.94365 1
      vertex 1.05385 0.942606 1
    endloop
  endfacet
  facet normal 0 0 1
    outer loop
      vertex 1.04818 0.932805 1
      vertex 1.05385 0.942606 1
      vertex 1.05182 0.941158 1
    endloop
  endfacet
  facet normal 0 0 1
    outer loop
      vertex 1.04818 0.932805 1
      vertex 1.05182 0.941158 1
      vertex 1.05018 0.939371 1
    endloop
  endfacet
  facet normal 0 0 1
    outer loop
      vertex 1.04818 0.932805 1
      vertex 1.05018 0.939371 1
      vertex 1.04899 0.937323 1
    endloop
  endfacet
  facet normal 0 0 1
    outer loop
      vertex 1.04818 0.932805 1
      vertex 1.04899 0.937323 1
      vertex 1.04831 0.935102 1
    endloop
  endfacet
  facet normal 0 0 1
    outer loop
      vertex 1.06853 0.941929 1
      vertex 1.04818 0.932805 1
      vertex 1.02353 -2.27268e-016 1
    endloop
  endfacet
  facet normal 0 0 1
    outer loop
      vertex 2.92653 -0.693112 1
      vertex 1.02353 -2.27268e-016 1
      vertex 2.92565 -0.707813 1
    endloop
  endfacet
  facet normal 0 0 1
    outer loop
      vertex 0.98917 -1.3 1
      vertex 2.92565 -0.707813 1
      vertex 1.02353 -2.27268e-016 1
    endloop
  endfacet
  facet normal -0 0 1
    outer loop
      vertex 0.98917 -1.3 1
      vertex 0.981111 -2.41901 1
      vertex 2.92565 -0.707813 1
    endloop
  endfacet
  facet normal -0 0 1
    outer loop
      vertex 0.959788 -2.41181 1
      vertex 0.981111 -2.41901 1
      vertex 0.98917 -1.3 1
    endloop
  endfacet
  facet normal 0 0 1
    outer loop
      vertex 0.981111 -2.41901 1
      vertex 0.959788 -2.41181 1
      vertex 0.979079 -2.42046 1
    endloop
  endfacet
  facet normal 0 0 1
    outer loop
      vertex 0.979079 -2.42046 1
      vertex 0.959788 -2.41181 1
      vertex 0.976751 -2.4215 1
    endloop
  endfacet
  facet normal 0 0 1
    outer loop
      vertex 0.976751 -2.4215 1
      vertex 0.959788 -2.41181 1
      vertex 0.974227 -2.4221 1
    endloop
  endfacet
  facet normal 0 0 1
    outer loop
      vertex 0.974227 -2.4221 1
      vertex 0.959788 -2.41181 1
      vertex 0.971617 -2.42222 1
    endloop
  endfacet
  facet normal 0 0 1
    outer loop
      vertex 0.971617 -2.42222 1
      vertex 0.959788 -2.41181 1
      vertex 0.969036 -2.42186 1
    endloop
  endfacet
  facet normal 0 0 1
    outer loop
      vertex 0.969036 -2.42186 1
      vertex 0.959788 -2.41181 1
      vertex 0.966597 -2.42103 1
    endloop
  endfacet
  facet normal 0 0 1
    outer loop
      vertex 0.966597 -2.42103 1
      vertex 0.959788 -2.41181 1
      vertex 0.964405 -2.41978 1
    endloop
  endfacet
  facet normal 0 0 1
    outer loop
      vertex 0.964405 -2.41978 1
      vertex 0.959788 -2.41181 1
      vertex 0.962557 -2.41816 1
    endloop
  endfacet
  facet normal 0 0 1
    outer loop
      vertex 0.962557 -2.41816 1
      vertex 0.959788 -2.41181 1
      vertex 0.961134 -2.41623 1
    endloop
  endfacet
  facet normal 0 0 1
    outer loop
      vertex 0.961134 -2.41623 1
      vertex 0.959788 -2.41181 1
      vertex 0.960197 -2.41408 1
    endloop
  endfacet
  facet normal -0.406737 0.913545 0
    outer loop
      vertex -1.54508 4.75528 0
      vertex -2.5 4.33013 1
      vertex -1.54508 4.75528 1
    endloop
  endfacet
  facet normal -0.406737 0.913545 0
    outer loop
      vertex -2.5 4.33013 1
      vertex -1.54508 4.75528 0
      vertex -2.5 4.33013 0
    endloop
  endfacet
  facet normal 0.994522 -0.104529 0
    outer loop
      vertex 4.89074 -1.03956 1
      vertex 5 0 0
      vertex 5 0 1
    endloop
  endfacet
  facet normal 0.994522 -0.104529 0
    outer loop
      vertex 5 0 0
      vertex 4.89074 -1.03956 1
      vertex 4.89074 -1.03956 0
    endloop
  endfacet
  facet normal 0 0 -1
    outer loop
      vertex -5 0 0
      vertex -4.5 0 0
      vertex -4.89074 -1.03956 0
    endloop
  endfacet
  facet normal 0 0 -1
    outer loop
      vertex -4.5 0 0
      vertex -4.89074 1.03956 0
      vertex -4.56773 2.03368 0
    endloop
  endfacet
  facet normal 0 0 -1
    outer loop
      vertex -4.5 0 0
      vertex -5 0 0
      vertex -4.89074 1.03956 0
    endloop
  endfacet
  facet normal 0 0 -1
    outer loop
      vertex 2.92916 -0.701756 0
      vertex 2.92889 -0.697188 0
      vertex 2.9293 -0.699459 0
    endloop
  endfacet
  facet normal 0 0 -1
    outer loop
      vertex 2.92848 -0.703978 0
      vertex 2.92889 -0.697188 0
      vertex 2.92916 -0.701756 0
    endloop
  endfacet
  facet normal 0 0 -1
    outer loop
      vertex 2.92848 -0.703978 0
      vertex 2.92795 -0.695042 0
      vertex 2.92889 -0.697188 0
    endloop
  endfacet
  facet normal 0 0 -1
    outer loop
      vertex 2.9273 -0.706026 0
      vertex 2.92795 -0.695042 0
      vertex 2.92848 -0.703978 0
    endloop
  endfacet
  facet normal 0 0 -1
    outer loop
      vertex 2.9273 -0.706026 0
      vertex 2.92653 -0.693112 0
      vertex 2.92795 -0.695042 0
    endloop
  endfacet
  facet normal 0 0 -1
    outer loop
      vertex 2.92565 -0.707813 0
      vertex 2.92653 -0.693112 0
      vertex 2.9273 -0.706026 0
    endloop
  endfacet
  facet normal 0 0 -1
    outer loop
      vertex 1.02353 -2.27268e-016 0
      vertex 2.92653 -0.693112 0
      vertex 2.92565 -0.707813 0
    endloop
  endfacet
  facet normal 0 0 -1
    outer loop
      vertex 2.92653 -0.693112 0
      vertex 1.02353 -2.27268e-016 0
      vertex 1.06853 0.941929 0
    endloop
  endfacet
  facet normal 0 -0 -1
    outer loop
      vertex 1.04818 0.932805 0
      vertex 1.06853 0.941929 0
      vertex 1.02353 -2.27268e-016 0
    endloop
  endfacet
  facet normal -0 0 -1
    outer loop
      vertex 1.06853 0.941929 0
      vertex 1.04818 0.932805 0
      vertex 1.06633 0.943182 0
    endloop
  endfacet
  facet normal -0 0 -1
    outer loop
      vertex 1.06633 0.943182 0
      vertex 1.04818 0.932805 0
      vertex 1.0639 0.944006 0
    endloop
  endfacet
  facet normal -0 0 -1
    outer loop
      vertex 1.0639 0.944006 0
      vertex 1.04818 0.932805 0
      vertex 1.06131 0.944366 0
    endloop
  endfacet
  facet normal 0 0 -1
    outer loop
      vertex 1.06131 0.944366 0
      vertex 1.04818 0.932805 0
      vertex 1.0587 0.944245 0
    endloop
  endfacet
  facet normal 0 0 -1
    outer loop
      vertex 1.0587 0.944245 0
      vertex 1.04818 0.932805 0
      vertex 1.05618 0.94365 0
    endloop
  endfacet
  facet normal 0 0 -1
    outer loop
      vertex 1.05618 0.94365 0
      vertex 1.04818 0.932805 0
      vertex 1.05385 0.942606 0
    endloop
  endfacet
  facet normal 0 0 -1
    outer loop
      vertex 1.05182 0.941158 0
      vertex 1.04818 0.932805 0
      vertex 1.05018 0.939371 0
    endloop
  endfacet
  facet normal 0 0 -1
    outer loop
      vertex 1.05018 0.939371 0
      vertex 1.04818 0.932805 0
      vertex 1.04899 0.937323 0
    endloop
  endfacet
  facet normal 0 0 -1
    outer loop
      vertex 1.04899 0.937323 0
      vertex 1.04818 0.932805 0
      vertex 1.04831 0.935102 0
    endloop
  endfacet
  facet normal 0 0 -1
    outer loop
      vertex 1.05385 0.942606 0
      vertex 1.04818 0.932805 0
      vertex 1.05182 0.941158 0
    endloop
  endfacet
  facet normal -0 0 -1
    outer loop
      vertex 2.92565 -0.707813 0
      vertex 0.98917 -1.3 0
      vertex 1.02353 -2.27268e-016 0
    endloop
  endfacet
  facet normal 0 0 -1
    outer loop
      vertex 0.981111 -2.41901 0
      vertex 0.98917 -1.3 0
      vertex 2.92565 -0.707813 0
    endloop
  endfacet
  facet normal 0 0 -1
    outer loop
      vertex 0.959788 -2.41181 0
      vertex 0.981111 -2.41901 0
      vertex 0.979079 -2.42046 0
    endloop
  endfacet
  facet normal 0 0 -1
    outer loop
      vertex 0.959788 -2.41181 0
      vertex 0.979079 -2.42046 0
      vertex 0.976751 -2.4215 0
    endloop
  endfacet
  facet normal 0 0 -1
    outer loop
      vertex 0.959788 -2.41181 0
      vertex 0.976751 -2.4215 0
      vertex 0.974227 -2.4221 0
    endloop
  endfacet
  facet normal 0 0 -1
    outer loop
      vertex 0.959788 -2.41181 0
      vertex 0.974227 -2.4221 0
      vertex 0.971617 -2.42222 0
    endloop
  endfacet
  facet normal 0 0 -1
    outer loop
      vertex 0.959788 -2.41181 0
      vertex 0.971617 -2.42222 0
      vertex 0.969036 -2.42186 0
    endloop
  endfacet
  facet normal 0 0 -1
    outer loop
      vertex 0.959788 -2.41181 0
      vertex 0.969036 -2.42186 0
      vertex 0.966597 -2.42103 0
    endloop
  endfacet
  facet normal 0 0 -1
    outer loop
      vertex 0.959788 -2.41181 0
      vertex 0.966597 -2.42103 0
      vertex 0.964405 -2.41978 0
    endloop
  endfacet
  facet normal 0 0 -1
    outer loop
      vertex 0.959788 -2.41181 0
      vertex 0.964405 -2.41978 0
      vertex 0.962557 -2.41816 0
    endloop
  endfacet
  facet normal 0 0 -1
    outer loop
      vertex 0.959788 -2.41181 0
      vertex 0.962557 -2.41816 0
      vertex 0.961134 -2.41623 0
    endloop
  endfacet
  facet normal 0 0 -1
    outer loop
      vertex 0.959788 -2.41181 0
      vertex 0.961134 -2.41623 0
      vertex 0.960197 -2.41408 0
    endloop
  endfacet
  facet normal 0 0 -1
    outer loop
      vertex 0.981111 -2.41901 0
      vertex 0.959788 -2.41181 0
      vertex 0.98917 -1.3 0
    endloop
  endfacet
  facet normal 0 0 -1
    outer loop
      vertex 0.98917 -1.3 0
      vertex -0.427096 9.48344e-017 0
      vertex 1.02353 -2.27268e-016 0
    endloop
  endfacet
  facet normal 0 -0 -1
    outer loop
      vertex -0.427096 9.48344e-017 0
      vertex 0.98917 -1.3 0
      vertex -1.19166 -1.3 0
    endloop
  endfacet
  facet normal 0 0 -1
    outer loop
      vertex 1.08835 1.08593 0
      vertex 3.00994 3.34498 0
      vertex 3.00994 -0.622162 0
    endloop
  endfacet
  facet normal 0 -0 -1
    outer loop
      vertex 1.20288 2.72377 0
      vertex 3.00994 3.34498 0
      vertex 1.08835 1.08593 0
    endloop
  endfacet
  facet normal 0 0 -1
    outer loop
      vertex 3.00994 3.95963 0
      vertex 3.00951 5.99691 0
      vertex 3.00994 5.99895 0
    endloop
  endfacet
  facet normal 0 0 -1
    outer loop
      vertex 3.00994 3.95963 0
      vertex 3.00866 5.995 0
      vertex 3.00951 5.99691 0
    endloop
  endfacet
  facet normal 0 0 -1
    outer loop
      vertex 3.00994 3.95963 0
      vertex 3.00743 5.99331 0
      vertex 3.00866 5.995 0
    endloop
  endfacet
  facet normal 0 0 -1
    outer loop
      vertex 3.00994 3.95963 0
      vertex 3.00588 5.99191 0
      vertex 3.00743 5.99331 0
    endloop
  endfacet
  facet normal 0 0 -1
    outer loop
      vertex 1.20187 2.72781 0
      vertex 3.00994 3.34498 0
      vertex 1.20258 2.72584 0
    endloop
  endfacet
  facet normal 0 0 -1
    outer loop
      vertex 3.00994 3.95963 0
      vertex 3.00407 5.99086 0
      vertex 3.00588 5.99191 0
    endloop
  endfacet
  facet normal 0 0 -1
    outer loop
      vertex 1.20076 2.72958 0
      vertex 3.00994 3.34498 0
      vertex 1.20187 2.72781 0
    endloop
  endfacet
  facet normal 0 0 -1
    outer loop
      vertex 3.00994 3.95963 0
      vertex 3.00208 5.99022 0
      vertex 3.00407 5.99086 0
    endloop
  endfacet
  facet normal 0 0 -1
    outer loop
      vertex 1.19931 2.73108 0
      vertex 3.00994 3.34498 0
      vertex 1.20076 2.72958 0
    endloop
  endfacet
  facet normal 0 0 -1
    outer loop
      vertex 1.20258 2.72584 0
      vertex 3.00994 3.34498 0
      vertex 1.20288 2.72377 0
    endloop
  endfacet
  facet normal 0 0 -1
    outer loop
      vertex 4.5 0 0
      vertex 5 0 0
      vertex 4.89074 -1.03956 0
    endloop
  endfacet
  facet normal 0 0 -1
    outer loop
      vertex 4.40166 -0.935602 0
      vertex 4.89074 -1.03956 0
      vertex 4.56773 -2.03368 0
    endloop
  endfacet
  facet normal 0 0 -1
    outer loop
      vertex 5 0 0
      vertex 4.5 0 0
      vertex 4.89074 1.03956 0
    endloop
  endfacet
  facet normal 0 0 -1
    outer loop
      vertex 4.40166 0.935602 0
      vertex 4.89074 1.03956 0
      vertex 4.5 0 0
    endloop
  endfacet
  facet normal 0 0 -1
    outer loop
      vertex 4.89074 -1.03956 0
      vertex 4.40166 -0.935602 0
      vertex 4.5 0 0
    endloop
  endfacet
  facet normal 0 0 -1
    outer loop
      vertex 4.56773 -2.03368 0
      vertex 4.11095 -1.83031 0
      vertex 4.40166 -0.935602 0
    endloop
  endfacet
  facet normal 0 0 -1
    outer loop
      vertex 4.04508 -2.93893 0
      vertex 4.11095 -1.83031 0
      vertex 4.56773 -2.03368 0
    endloop
  endfacet
  facet normal 0 0 -1
    outer loop
      vertex 4.04508 -2.93893 0
      vertex 3.64058 -2.64503 0
      vertex 4.11095 -1.83031 0
    endloop
  endfacet
  facet normal 0 0 -1
    outer loop
      vertex 3.34565 -3.71572 0
      vertex 3.64058 -2.64503 0
      vertex 4.04508 -2.93893 0
    endloop
  endfacet
  facet normal 0 0 -1
    outer loop
      vertex 3.34565 -3.71572 0
      vertex 3.01109 -3.34415 0
      vertex 3.64058 -2.64503 0
    endloop
  endfacet
  facet normal 0 0 -1
    outer loop
      vertex 2.5 -4.33013 0
      vertex 3.01109 -3.34415 0
      vertex 3.34565 -3.71572 0
    endloop
  endfacet
  facet normal 0 0 -1
    outer loop
      vertex 2.5 -4.33013 0
      vertex 2.25 -3.89711 0
      vertex 3.01109 -3.34415 0
    endloop
  endfacet
  facet normal 0 0 -1
    outer loop
      vertex 1.54508 -4.75528 0
      vertex 2.25 -3.89711 0
      vertex 2.5 -4.33013 0
    endloop
  endfacet
  facet normal 0 0 -1
    outer loop
      vertex 1.54508 -4.75528 0
      vertex 1.39058 -4.27975 0
      vertex 2.25 -3.89711 0
    endloop
  endfacet
  facet normal 0 0 -1
    outer loop
      vertex 0.522642 -4.97261 0
      vertex 1.39058 -4.27975 0
      vertex 1.54508 -4.75528 0
    endloop
  endfacet
  facet normal 0 0 -1
    outer loop
      vertex 0.522642 -4.97261 0
      vertex 0.470378 -4.47535 0
      vertex 1.39058 -4.27975 0
    endloop
  endfacet
  facet normal 0 0 -1
    outer loop
      vertex 0.522642 -4.97261 0
      vertex -0.470378 -4.47535 0
      vertex 0.470378 -4.47535 0
    endloop
  endfacet
  facet normal 0 0 -1
    outer loop
      vertex -0.522642 -4.97261 0
      vertex -0.470378 -4.47535 0
      vertex 0.522642 -4.97261 0
    endloop
  endfacet
  facet normal 0 0 -1
    outer loop
      vertex -0.522642 -4.97261 0
      vertex -1.39058 -4.27975 0
      vertex -0.470378 -4.47535 0
    endloop
  endfacet
  facet normal 0 0 -1
    outer loop
      vertex -1.54508 -4.75528 0
      vertex -1.39058 -4.27975 0
      vertex -0.522642 -4.97261 0
    endloop
  endfacet
  facet normal 0 0 -1
    outer loop
      vertex -1.54508 -4.75528 0
      vertex -2.25 -3.89711 0
      vertex -1.39058 -4.27975 0
    endloop
  endfacet
  facet normal 0 0 -1
    outer loop
      vertex -2.5 -4.33013 0
      vertex -2.25 -3.89711 0
      vertex -1.54508 -4.75528 0
    endloop
  endfacet
  facet normal 0 0 -1
    outer loop
      vertex -2.85499 -4.07221 0
      vertex -2.25 -3.89711 0
      vertex -2.5 -4.33013 0
    endloop
  endfacet
  facet normal -0 0 -1
    outer loop
      vertex -2.25 -3.89711 0
      vertex -2.85499 -4.07221 0
      vertex -2.59816 -3.64416 0
    endloop
  endfacet
  facet normal -0 0 -1
    outer loop
      vertex 4.89074 1.03956 0
      vertex 4.40166 0.935602 0
      vertex 4.56773 2.03368 0
    endloop
  endfacet
  facet normal 0 0 -1
    outer loop
      vertex 4.11095 1.83031 0
      vertex 4.56773 2.03368 0
      vertex 4.40166 0.935602 0
    endloop
  endfacet
  facet normal 0 0 -1
    outer loop
      vertex 4.11095 1.83031 0
      vertex 4.04508 2.93893 0
      vertex 4.56773 2.03368 0
    endloop
  endfacet
  facet normal 0 0 -1
    outer loop
      vertex 3.64058 2.64503 0
      vertex 4.04508 2.93893 0
      vertex 4.11095 1.83031 0
    endloop
  endfacet
  facet normal 0 0 -1
    outer loop
      vertex 3.64058 2.64503 0
      vertex 3.34565 3.71572 0
      vertex 4.04508 2.93893 0
    endloop
  endfacet
  facet normal 0 0 -1
    outer loop
      vertex 3.01109 3.34415 0
      vertex 3.34565 3.71572 0
      vertex 3.64058 2.64503 0
    endloop
  endfacet
  facet normal 0 0 -1
    outer loop
      vertex 3.00994 3.34498 0
      vertex 3.34565 3.71572 0
      vertex 3.01109 3.34415 0
    endloop
  endfacet
  facet normal -0 0 -1
    outer loop
      vertex 3.34565 3.71572 0
      vertex 3.00994 3.34498 0
      vertex 3.00994 3.95963 0
    endloop
  endfacet
  facet normal 0 0 -1
    outer loop
      vertex 3.00994 3.95963 0
      vertex 3 5.99 0
      vertex 3.00208 5.99022 0
    endloop
  endfacet
  facet normal -0 0 -1
    outer loop
      vertex 3.00994 3.34498 0
      vertex 1.19931 2.73108 0
      vertex 3.00994 3.95963 0
    endloop
  endfacet
  facet normal 0 0 -1
    outer loop
      vertex 1.19758 2.73225 0
      vertex 3.00994 3.95963 0
      vertex 1.19931 2.73108 0
    endloop
  endfacet
  facet normal 0 -0 -1
    outer loop
      vertex 1.44127 5.99 0
      vertex 3.00994 3.95963 0
      vertex 0.639544 4.94776 0
    endloop
  endfacet
  facet normal 0 0 -1
    outer loop
      vertex 1.19564 2.73304 0
      vertex 3.00994 3.95963 0
      vertex 1.19758 2.73225 0
    endloop
  endfacet
  facet normal -0 0 -1
    outer loop
      vertex 3.00994 3.95963 0
      vertex 1.19564 2.73304 0
      vertex 0.639544 4.94776 0
    endloop
  endfacet
  facet normal 0 0 -1
    outer loop
      vertex 0.639544 4.94776 0
      vertex 1.19564 2.73304 0
      vertex 1.19358 2.7334 0
    endloop
  endfacet
  facet normal 0 0 -1
    outer loop
      vertex 0.276151 4.47535 0
      vertex 1.19358 2.7334 0
      vertex 1.19149 2.73333 0
    endloop
  endfacet
  facet normal 0 0 -1
    outer loop
      vertex 0.276151 4.47535 0
      vertex 1.19149 2.73333 0
      vertex 1.18946 2.73282 0
    endloop
  endfacet
  facet normal 0 0 -1
    outer loop
      vertex 0.276151 4.47535 0
      vertex 1.18946 2.73282 0
      vertex 1.18758 2.7319 0
    endloop
  endfacet
  facet normal 0 0 -1
    outer loop
      vertex 0.276151 4.47535 0
      vertex 1.18758 2.7319 0
      vertex 1.18594 2.73062 0
    endloop
  endfacet
  facet normal 0 0 -1
    outer loop
      vertex 0.276151 4.47535 0
      vertex 1.18594 2.73062 0
      vertex 1.18459 2.72901 0
    endloop
  endfacet
  facet normal 0 0 -1
    outer loop
      vertex 3.00994 3.95963 0
      vertex 1.44127 5.99 0
      vertex 3 5.99 0
    endloop
  endfacet
  facet normal 0 0 -1
    outer loop
      vertex 1.19358 2.7334 0
      vertex 0.276151 4.47535 0
      vertex 0.639544 4.94776 0
    endloop
  endfacet
  facet normal -0 0 -1
    outer loop
      vertex 0.639544 4.94776 0
      vertex 0.276151 4.47535 0
      vertex 0.522642 4.97261 0
    endloop
  endfacet
  facet normal 0 0 -1
    outer loop
      vertex -0.427096 9.48344e-017 0
      vertex 0.276151 4.47535 0
      vertex 1.18459 2.72901 0
    endloop
  endfacet
  facet normal 0 0 -1
    outer loop
      vertex -4.24857 -1.40679 0
      vertex -0.427096 9.48344e-017 0
      vertex -1.19166 -1.3 0
    endloop
  endfacet
  facet normal 0 0 -1
    outer loop
      vertex -4.24857 -1.40679 0
      vertex -1.19166 -1.3 0
      vertex -2.59816 -3.64416 0
    endloop
  endfacet
  facet normal 0 0 -1
    outer loop
      vertex -4.61615 -1.88465 0
      vertex -2.59816 -3.64416 0
      vertex -2.85499 -4.07221 0
    endloop
  endfacet
  facet normal 0 0 -1
    outer loop
      vertex -4.61615 -1.88465 0
      vertex -2.85499 -4.07221 0
      vertex -3.41766 -5.01 0
    endloop
  endfacet
  facet normal -0 0 -1
    outer loop
      vertex -0.427096 9.48344e-017 0
      vertex -4.24857 -1.40679 0
      vertex 0.276151 4.47535 0
    endloop
  endfacet
  facet normal 0 0 -1
    outer loop
      vertex -2.59816 -3.64416 0
      vertex -4.61615 -1.88465 0
      vertex -4.24857 -1.40679 0
    endloop
  endfacet
  facet normal -0 0 -1
    outer loop
      vertex -4.40166 -0.935602 0
      vertex -4.89074 -1.03956 0
      vertex -4.5 0 0
    endloop
  endfacet
  facet normal 0 0 -1
    outer loop
      vertex -4.24857 -1.40679 0
      vertex -4.89074 -1.03956 0
      vertex -4.40166 -0.935602 0
    endloop
  endfacet
  facet normal 0 0 -1
    outer loop
      vertex -4.89074 -1.03956 0
      vertex -4.24857 -1.40679 0
      vertex -4.61615 -1.88465 0
    endloop
  endfacet
  facet normal 0 0 -1
    outer loop
      vertex -7.00743 -4.99331 0
      vertex -3.41766 -5.01 0
      vertex -7 -5.01 0
    endloop
  endfacet
  facet normal 0 0 -1
    outer loop
      vertex -7.00743 -4.99331 0
      vertex -7 -5.01 0
      vertex -7.00208 -5.00978 0
    endloop
  endfacet
  facet normal 0 0 -1
    outer loop
      vertex -7.00743 -4.99331 0
      vertex -7.00208 -5.00978 0
      vertex -7.00407 -5.00914 0
    endloop
  endfacet
  facet normal 0 0 -1
    outer loop
      vertex -7.00743 -4.99331 0
      vertex -7.00407 -5.00914 0
      vertex -7.00588 -5.00809 0
    endloop
  endfacet
  facet normal 0 0 -1
    outer loop
      vertex -7.00743 -4.99331 0
      vertex -7.00588 -5.00809 0
      vertex -7.00743 -5.00669 0
    endloop
  endfacet
  facet normal 0 0 -1
    outer loop
      vertex -3.41766 -5.01 0
      vertex -7.00743 -4.99331 0
      vertex -4.61615 -1.88465 0
    endloop
  endfacet
  facet normal 0 0 -1
    outer loop
      vertex -7.00866 -5.005 0
      vertex -7.00743 -4.99331 0
      vertex -7.00743 -5.00669 0
    endloop
  endfacet
  facet normal 0 0 -1
    outer loop
      vertex -7.00866 -5.005 0
      vertex -7.00866 -4.995 0
      vertex -7.00743 -4.99331 0
    endloop
  endfacet
  facet normal 0 0 -1
    outer loop
      vertex -7.00951 -5.00309 0
      vertex -7.00866 -4.995 0
      vertex -7.00866 -5.005 0
    endloop
  endfacet
  facet normal 0 0 -1
    outer loop
      vertex -7.00951 -5.00309 0
      vertex -7.00951 -4.99691 0
      vertex -7.00866 -4.995 0
    endloop
  endfacet
  facet normal 0 0 -1
    outer loop
      vertex -7.00994 -5.00105 0
      vertex -7.00951 -4.99691 0
      vertex -7.00951 -5.00309 0
    endloop
  endfacet
  facet normal 0 0 -1
    outer loop
      vertex -7.00951 -4.99691 0
      vertex -7.00994 -5.00105 0
      vertex -7.00994 -4.99895 0
    endloop
  endfacet
  facet normal 0 0 -1
    outer loop
      vertex -0.522642 4.97261 0
      vertex 0.276151 4.47535 0
      vertex -0.470378 4.47535 0
    endloop
  endfacet
  facet normal 0 0 -1
    outer loop
      vertex 0.276151 4.47535 0
      vertex -0.522642 4.97261 0
      vertex 0.522642 4.97261 0
    endloop
  endfacet
  facet normal 0 0 -1
    outer loop
      vertex -1.39058 4.27975 0
      vertex -0.522642 4.97261 0
      vertex -0.470378 4.47535 0
    endloop
  endfacet
  facet normal 0 0 -1
    outer loop
      vertex -1.39058 4.27975 0
      vertex -1.54508 4.75528 0
      vertex -0.522642 4.97261 0
    endloop
  endfacet
  facet normal 0 0 -1
    outer loop
      vertex -2.25 3.89711 0
      vertex -1.54508 4.75528 0
      vertex -1.39058 4.27975 0
    endloop
  endfacet
  facet normal 0 0 -1
    outer loop
      vertex -2.25 3.89711 0
      vertex -2.5 4.33013 0
      vertex -1.54508 4.75528 0
    endloop
  endfacet
  facet normal 0 0 -1
    outer loop
      vertex -3.01109 3.34415 0
      vertex -2.5 4.33013 0
      vertex -2.25 3.89711 0
    endloop
  endfacet
  facet normal 0 0 -1
    outer loop
      vertex -3.01109 3.34415 0
      vertex -3.34565 3.71572 0
      vertex -2.5 4.33013 0
    endloop
  endfacet
  facet normal 0 0 -1
    outer loop
      vertex -3.64058 2.64503 0
      vertex -3.34565 3.71572 0
      vertex -3.01109 3.34415 0
    endloop
  endfacet
  facet normal 0 0 -1
    outer loop
      vertex -3.64058 2.64503 0
      vertex -4.04508 2.93893 0
      vertex -3.34565 3.71572 0
    endloop
  endfacet
  facet normal 0 0 -1
    outer loop
      vertex -4.11095 1.83031 0
      vertex -4.04508 2.93893 0
      vertex -3.64058 2.64503 0
    endloop
  endfacet
  facet normal 0 0 -1
    outer loop
      vertex -4.56773 2.03368 0
      vertex -4.11095 1.83031 0
      vertex -4.40166 0.935602 0
    endloop
  endfacet
  facet normal 0 0 -1
    outer loop
      vertex -4.11095 1.83031 0
      vertex -4.56773 2.03368 0
      vertex -4.04508 2.93893 0
    endloop
  endfacet
  facet normal 0 0 -1
    outer loop
      vertex -4.56773 2.03368 0
      vertex -4.40166 0.935602 0
      vertex -4.5 0 0
    endloop
  endfacet
  facet normal 0.207911 -0.978148 0
    outer loop
      vertex 0.522642 -4.97261 0
      vertex 1.54508 -4.75528 1
      vertex 0.522642 -4.97261 1
    endloop
  endfacet
  facet normal 0.207911 -0.978148 0
    outer loop
      vertex 1.54508 -4.75528 1
      vertex 0.522642 -4.97261 0
      vertex 1.54508 -4.75528 0
    endloop
  endfacet
  facet normal 0.866025 -0.5 0
    outer loop
      vertex 4.04508 -2.93893 1
      vertex 4.56773 -2.03368 0
      vertex 4.56773 -2.03368 1
    endloop
  endfacet
  facet normal 0.866025 -0.5 0
    outer loop
      vertex 4.56773 -2.03368 0
      vertex 4.04508 -2.93893 1
      vertex 4.04508 -2.93893 0
    endloop
  endfacet
  facet normal -0.587785 -0.809017 0
    outer loop
      vertex -2.85499 -4.07221 0
      vertex -2.5 -4.33013 1
      vertex -2.85499 -4.07221 1
    endloop
  endfacet
  facet normal -0.587785 -0.809017 -0
    outer loop
      vertex -2.5 -4.33013 1
      vertex -2.85499 -4.07221 0
      vertex -2.5 -4.33013 0
    endloop
  endfacet
  facet normal 0.587785 -0.809017 0
    outer loop
      vertex 2.5 -4.33013 0
      vertex 3.34565 -3.71572 1
      vertex 2.5 -4.33013 1
    endloop
  endfacet
  facet normal 0.587785 -0.809017 0
    outer loop
      vertex 3.34565 -3.71572 1
      vertex 2.5 -4.33013 0
      vertex 3.34565 -3.71572 0
    endloop
  endfacet
  facet normal 0.406737 -0.913545 0
    outer loop
      vertex 1.54508 -4.75528 0
      vertex 2.5 -4.33013 1
      vertex 1.54508 -4.75528 1
    endloop
  endfacet
  facet normal 0.406737 -0.913545 0
    outer loop
      vertex 2.5 -4.33013 1
      vertex 1.54508 -4.75528 0
      vertex 2.5 -4.33013 0
    endloop
  endfacet
  facet normal -0.207911 -0.978148 0
    outer loop
      vertex -1.54508 -4.75528 0
      vertex -0.522642 -4.97261 1
      vertex -1.54508 -4.75528 1
    endloop
  endfacet
  facet normal -0.207911 -0.978148 -0
    outer loop
      vertex -0.522642 -4.97261 1
      vertex -1.54508 -4.75528 0
      vertex -0.522642 -4.97261 0
    endloop
  endfacet
  facet normal -0.951057 -0.309017 0
    outer loop
      vertex -4.61615 -1.88465 0
      vertex -4.89074 -1.03956 1
      vertex -4.89074 -1.03956 0
    endloop
  endfacet
  facet normal -0.951057 -0.309017 0
    outer loop
      vertex -4.89074 -1.03956 1
      vertex -4.61615 -1.88465 0
      vertex -4.61615 -1.88465 1
    endloop
  endfacet
  facet normal -0.994522 -0.104529 0
    outer loop
      vertex -4.89074 -1.03956 0
      vertex -5 0 1
      vertex -5 0 0
    endloop
  endfacet
  facet normal -0.994522 -0.104529 0
    outer loop
      vertex -5 0 1
      vertex -4.89074 -1.03956 0
      vertex -4.89074 -1.03956 1
    endloop
  endfacet
  facet normal 0.743145 -0.669131 0
    outer loop
      vertex 3.34565 -3.71572 1
      vertex 4.04508 -2.93893 0
      vertex 4.04508 -2.93893 1
    endloop
  endfacet
  facet normal 0.743145 -0.669131 0
    outer loop
      vertex 4.04508 -2.93893 0
      vertex 3.34565 -3.71572 1
      vertex 3.34565 -3.71572 0
    endloop
  endfacet
  facet normal -0.406737 -0.913545 0
    outer loop
      vertex -2.5 -4.33013 0
      vertex -1.54508 -4.75528 1
      vertex -2.5 -4.33013 1
    endloop
  endfacet
  facet normal -0.406737 -0.913545 -0
    outer loop
      vertex -1.54508 -4.75528 1
      vertex -2.5 -4.33013 0
      vertex -1.54508 -4.75528 0
    endloop
  endfacet
  facet normal -0.994522 -0.104529 0
    outer loop
      vertex 4.5 0 0
      vertex 4.40166 0.935602 1
      vertex 4.40166 0.935602 0
    endloop
  endfacet
  facet normal -0.994522 -0.104529 0
    outer loop
      vertex 4.40166 0.935602 1
      vertex 4.5 0 0
      vertex 4.5 0 1
    endloop
  endfacet
  facet normal 0.994522 -0.104529 0
    outer loop
      vertex -4.5 0 1
      vertex -4.40166 0.935602 0
      vertex -4.40166 0.935602 1
    endloop
  endfacet
  facet normal 0.994522 -0.104529 0
    outer loop
      vertex -4.40166 0.935602 0
      vertex -4.5 0 1
      vertex -4.5 0 0
    endloop
  endfacet
  facet normal 0 -1 0
    outer loop
      vertex -0.470378 4.47535 0
      vertex 0.276151 4.47535 1
      vertex -0.470378 4.47535 1
    endloop
  endfacet
  facet normal 0 -1 -0
    outer loop
      vertex 0.276151 4.47535 1
      vertex -0.470378 4.47535 0
      vertex 0.276151 4.47535 0
    endloop
  endfacet
  facet normal 0 1 -0
    outer loop
      vertex 0.470378 -4.47535 0
      vertex -0.470378 -4.47535 1
      vertex 0.470378 -4.47535 1
    endloop
  endfacet
  facet normal 0 1 0
    outer loop
      vertex -0.470378 -4.47535 1
      vertex 0.470378 -4.47535 0
      vertex -0.470378 -4.47535 0
    endloop
  endfacet
  facet normal -0.743145 -0.66913 0
    outer loop
      vertex 3.64058 2.64503 0
      vertex 3.01109 3.34415 1
      vertex 3.01109 3.34415 0
    endloop
  endfacet
  facet normal -0.743145 -0.66913 0
    outer loop
      vertex 3.01109 3.34415 1
      vertex 3.64058 2.64503 0
      vertex 3.64058 2.64503 1
    endloop
  endfacet
  facet normal -0.951057 -0.309017 0
    outer loop
      vertex 4.40166 0.935602 0
      vertex 4.11095 1.83031 1
      vertex 4.11095 1.83031 0
    endloop
  endfacet
  facet normal -0.951057 -0.309017 0
    outer loop
      vertex 4.11095 1.83031 1
      vertex 4.40166 0.935602 0
      vertex 4.40166 0.935602 1
    endloop
  endfacet
  facet normal 0.587785 -0.809017 0
    outer loop
      vertex -3.01109 3.34415 0
      vertex -2.25 3.89711 1
      vertex -3.01109 3.34415 1
    endloop
  endfacet
  facet normal 0.587785 -0.809017 0
    outer loop
      vertex -2.25 3.89711 1
      vertex -3.01109 3.34415 0
      vertex -2.25 3.89711 0
    endloop
  endfacet
  facet normal 0.207912 -0.978147 0
    outer loop
      vertex -1.39058 4.27975 0
      vertex -0.470378 4.47535 1
      vertex -1.39058 4.27975 1
    endloop
  endfacet
  facet normal 0.207912 -0.978147 0
    outer loop
      vertex -0.470378 4.47535 1
      vertex -1.39058 4.27975 0
      vertex -0.470378 4.47535 0
    endloop
  endfacet
  facet normal -0.866025 -0.5 0
    outer loop
      vertex 4.11095 1.83031 0
      vertex 3.64058 2.64503 1
      vertex 3.64058 2.64503 0
    endloop
  endfacet
  facet normal -0.866025 -0.5 0
    outer loop
      vertex 3.64058 2.64503 1
      vertex 4.11095 1.83031 0
      vertex 4.11095 1.83031 1
    endloop
  endfacet
  facet normal -0.58783 -0.808984 0
    outer loop
      vertex 3.00994 3.34498 0
      vertex 3.01109 3.34415 1
      vertex 3.00994 3.34498 1
    endloop
  endfacet
  facet normal -0.58783 -0.808984 -0
    outer loop
      vertex 3.01109 3.34415 1
      vertex 3.00994 3.34498 0
      vertex 3.01109 3.34415 0
    endloop
  endfacet
  facet normal 0.866025 -0.5 0
    outer loop
      vertex -4.11095 1.83031 1
      vertex -3.64058 2.64503 0
      vertex -3.64058 2.64503 1
    endloop
  endfacet
  facet normal 0.866025 -0.5 0
    outer loop
      vertex -3.64058 2.64503 0
      vertex -4.11095 1.83031 1
      vertex -4.11095 1.83031 0
    endloop
  endfacet
  facet normal 0.743145 -0.66913 0
    outer loop
      vertex -3.64058 2.64503 1
      vertex -3.01109 3.34415 0
      vertex -3.01109 3.34415 1
    endloop
  endfacet
  facet normal 0.743145 -0.66913 0
    outer loop
      vertex -3.01109 3.34415 0
      vertex -3.64058 2.64503 1
      vertex -3.64058 2.64503 0
    endloop
  endfacet
  facet normal 0.951057 -0.309017 0
    outer loop
      vertex -4.40166 0.935602 1
      vertex -4.11095 1.83031 0
      vertex -4.11095 1.83031 1
    endloop
  endfacet
  facet normal 0.951057 -0.309017 0
    outer loop
      vertex -4.11095 1.83031 0
      vertex -4.40166 0.935602 1
      vertex -4.40166 0.935602 0
    endloop
  endfacet
  facet normal 0.406737 -0.913545 0
    outer loop
      vertex -2.25 3.89711 0
      vertex -1.39058 4.27975 1
      vertex -2.25 3.89711 1
    endloop
  endfacet
  facet normal 0.406737 -0.913545 0
    outer loop
      vertex -1.39058 4.27975 1
      vertex -2.25 3.89711 0
      vertex -1.39058 4.27975 0
    endloop
  endfacet
  facet normal -0.994522 0.104529 0
    outer loop
      vertex 4.40166 -0.935602 0
      vertex 4.5 0 1
      vertex 4.5 0 0
    endloop
  endfacet
  facet normal -0.994522 0.104529 0
    outer loop
      vertex 4.5 0 1
      vertex 4.40166 -0.935602 0
      vertex 4.40166 -0.935602 1
    endloop
  endfacet
  facet normal -0.866025 0.5 0
    outer loop
      vertex 3.64058 -2.64503 0
      vertex 4.11095 -1.83031 1
      vertex 4.11095 -1.83031 0
    endloop
  endfacet
  facet normal -0.866025 0.5 0
    outer loop
      vertex 4.11095 -1.83031 1
      vertex 3.64058 -2.64503 0
      vertex 3.64058 -2.64503 1
    endloop
  endfacet
  facet normal -0.587785 0.809017 0
    outer loop
      vertex 3.01109 -3.34415 0
      vertex 2.25 -3.89711 1
      vertex 3.01109 -3.34415 1
    endloop
  endfacet
  facet normal -0.587785 0.809017 0
    outer loop
      vertex 2.25 -3.89711 1
      vertex 3.01109 -3.34415 0
      vertex 2.25 -3.89711 0
    endloop
  endfacet
  facet normal -0.951057 0.309017 0
    outer loop
      vertex 4.11095 -1.83031 0
      vertex 4.40166 -0.935602 1
      vertex 4.40166 -0.935602 0
    endloop
  endfacet
  facet normal -0.951057 0.309017 0
    outer loop
      vertex 4.40166 -0.935602 1
      vertex 4.11095 -1.83031 0
      vertex 4.11095 -1.83031 1
    endloop
  endfacet
  facet normal 0.207912 0.978147 -0
    outer loop
      vertex -0.470378 -4.47535 0
      vertex -1.39058 -4.27975 1
      vertex -0.470378 -4.47535 1
    endloop
  endfacet
  facet normal 0.207912 0.978147 0
    outer loop
      vertex -1.39058 -4.27975 1
      vertex -0.470378 -4.47535 0
      vertex -1.39058 -4.27975 0
    endloop
  endfacet
  facet normal 0.951056 0.309017 0
    outer loop
      vertex -4.24857 -1.40679 1
      vertex -4.40166 -0.935602 0
      vertex -4.40166 -0.935602 1
    endloop
  endfacet
  facet normal 0.951056 0.309017 0
    outer loop
      vertex -4.40166 -0.935602 0
      vertex -4.24857 -1.40679 1
      vertex -4.24857 -1.40679 0
    endloop
  endfacet
  facet normal 0.994522 0.104529 0
    outer loop
      vertex -4.40166 -0.935602 1
      vertex -4.5 0 0
      vertex -4.5 0 1
    endloop
  endfacet
  facet normal 0.994522 0.104529 0
    outer loop
      vertex -4.5 0 0
      vertex -4.40166 -0.935602 1
      vertex -4.40166 -0.935602 0
    endloop
  endfacet
  facet normal -0.406736 0.913546 0
    outer loop
      vertex 2.25 -3.89711 0
      vertex 1.39058 -4.27975 1
      vertex 2.25 -3.89711 1
    endloop
  endfacet
  facet normal -0.406736 0.913546 0
    outer loop
      vertex 1.39058 -4.27975 1
      vertex 2.25 -3.89711 0
      vertex 1.39058 -4.27975 0
    endloop
  endfacet
  facet normal -0.207912 0.978147 0
    outer loop
      vertex 1.39058 -4.27975 0
      vertex 0.470378 -4.47535 1
      vertex 1.39058 -4.27975 1
    endloop
  endfacet
  facet normal -0.207912 0.978147 0
    outer loop
      vertex 0.470378 -4.47535 1
      vertex 1.39058 -4.27975 0
      vertex 0.470378 -4.47535 0
    endloop
  endfacet
  facet normal -0.743145 0.66913 0
    outer loop
      vertex 3.01109 -3.34415 0
      vertex 3.64058 -2.64503 1
      vertex 3.64058 -2.64503 0
    endloop
  endfacet
  facet normal -0.743145 0.66913 0
    outer loop
      vertex 3.64058 -2.64503 1
      vertex 3.01109 -3.34415 0
      vertex 3.01109 -3.34415 1
    endloop
  endfacet
  facet normal 0.406736 0.913546 -0
    outer loop
      vertex -1.39058 -4.27975 0
      vertex -2.25 -3.89711 1
      vertex -1.39058 -4.27975 1
    endloop
  endfacet
  facet normal 0.406736 0.913546 0
    outer loop
      vertex -2.25 -3.89711 1
      vertex -1.39058 -4.27975 0
      vertex -2.25 -3.89711 0
    endloop
  endfacet
  facet normal 0.587785 0.809017 -0
    outer loop
      vertex -2.25 -3.89711 0
      vertex -2.59816 -3.64416 1
      vertex -2.25 -3.89711 1
    endloop
  endfacet
  facet normal 0.587785 0.809017 0
    outer loop
      vertex -2.59816 -3.64416 1
      vertex -2.25 -3.89711 0
      vertex -2.59816 -3.64416 0
    endloop
  endfacet
  facet normal -0 0 1
    outer loop
      vertex 1.00994 -2.51335 1
      vertex 3.00994 -3.2 1
      vertex 3.00994 -0.735576 1
    endloop
  endfacet
  facet normal 0 0 1
    outer loop
      vertex 3.00994 -3.2 1
      vertex 1.00994 -2.51335 1
      vertex 1.00994 -3.2 1
    endloop
  endfacet
  facet normal 0 -1 0
    outer loop
      vertex -7 -5.01 0
      vertex -3.41766 -5.01 1
      vertex -7 -5.01 1
    endloop
  endfacet
  facet normal 0 -1 -0
    outer loop
      vertex -3.41766 -5.01 1
      vertex -7 -5.01 0
      vertex -3.41766 -5.01 0
    endloop
  endfacet
  facet normal -0.104471 -0.994528 0
    outer loop
      vertex -7.00208 -5.00978 0
      vertex -7 -5.01 1
      vertex -7.00208 -5.00978 1
    endloop
  endfacet
  facet normal -0.104471 -0.994528 -0
    outer loop
      vertex -7 -5.01 1
      vertex -7.00208 -5.00978 0
      vertex -7 -5.01 0
    endloop
  endfacet
  facet normal -0.792624 0.609711 0
    outer loop
      vertex -7.00743 -4.99331 0
      vertex -4.61615 -1.88465 1
      vertex -4.61615 -1.88465 0
    endloop
  endfacet
  facet normal -0.792624 0.609711 0
    outer loop
      vertex -4.61615 -1.88465 1
      vertex -7.00743 -4.99331 0
      vertex -7.00743 -4.99331 1
    endloop
  endfacet
  facet normal -0.792624 0.609711 0
    outer loop
      vertex 0.639544 4.94776 0
      vertex 1.44127 5.99 1
      vertex 1.44127 5.99 0
    endloop
  endfacet
  facet normal -0.792624 0.609711 0
    outer loop
      vertex 1.44127 5.99 1
      vertex 0.639544 4.94776 0
      vertex 0.639544 4.94776 1
    endloop
  endfacet
  facet normal -0.792624 0.609711 0
    outer loop
      vertex -4.24857 -1.40679 0
      vertex 0.276151 4.47535 1
      vertex 0.276151 4.47535 0
    endloop
  endfacet
  facet normal -0.792624 0.609711 0
    outer loop
      vertex 0.276151 4.47535 1
      vertex -4.24857 -1.40679 0
      vertex -4.24857 -1.40679 1
    endloop
  endfacet
  facet normal -0.978122 -0.208033 0
    outer loop
      vertex -7.00951 -5.00309 0
      vertex -7.00994 -5.00105 1
      vertex -7.00994 -5.00105 0
    endloop
  endfacet
  facet normal -0.978122 -0.208033 0
    outer loop
      vertex -7.00994 -5.00105 1
      vertex -7.00951 -5.00309 0
      vertex -7.00951 -5.00309 1
    endloop
  endfacet
  facet normal 1 -0 0
    outer loop
      vertex 3.00994 3.95963 1
      vertex 3.00994 5.99895 0
      vertex 3.00994 5.99895 1
    endloop
  endfacet
  facet normal 1 0 0
    outer loop
      vertex 3.00994 5.99895 0
      vertex 3.00994 3.95963 1
      vertex 3.00994 3.95963 0
    endloop
  endfacet
  facet normal 1 -0 0
    outer loop
      vertex 3.00994 -0.622162 1
      vertex 3.00994 3.34498 0
      vertex 3.00994 3.34498 1
    endloop
  endfacet
  facet normal 1 0 0
    outer loop
      vertex 3.00994 3.34498 0
      vertex 3.00994 -0.622162 1
      vertex 3.00994 -0.622162 0
    endloop
  endfacet
  facet normal 1 -0 0
    outer loop
      vertex 3.00994 -3.2 1
      vertex 3.00994 -0.735576 0
      vertex 3.00994 -0.735576 1
    endloop
  endfacet
  facet normal 1 0 0
    outer loop
      vertex 3.00994 -0.735576 0
      vertex 3.00994 -3.2 1
      vertex 3.00994 -3.2 0
    endloop
  endfacet
  facet normal -1 0 0
    outer loop
      vertex -7.00994 -5.00105 0
      vertex -7.00994 -4.99895 1
      vertex -7.00994 -4.99895 0
    endloop
  endfacet
  facet normal -1 -0 0
    outer loop
      vertex -7.00994 -4.99895 1
      vertex -7.00994 -5.00105 0
      vertex -7.00994 -5.00105 1
    endloop
  endfacet
  facet normal -0.669192 -0.74309 0
    outer loop
      vertex -7.00743 -5.00669 0
      vertex -7.00588 -5.00809 1
      vertex -7.00743 -5.00669 1
    endloop
  endfacet
  facet normal -0.669192 -0.74309 -0
    outer loop
      vertex -7.00588 -5.00809 1
      vertex -7.00743 -5.00669 0
      vertex -7.00588 -5.00809 0
    endloop
  endfacet
  facet normal 0 0 -1
    outer loop
      vertex 1.00994 -2.51335 0
      vertex 3.00994 -3.2 0
      vertex 1.00994 -3.2 0
    endloop
  endfacet
  facet normal 0 0 -1
    outer loop
      vertex 3.00994 -3.2 0
      vertex 1.00994 -2.51335 0
      vertex 3.00994 -0.735576 0
    endloop
  endfacet
  facet normal -0.308962 -0.951074 0
    outer loop
      vertex -7.00407 -5.00914 0
      vertex -7.00208 -5.00978 1
      vertex -7.00407 -5.00914 1
    endloop
  endfacet
  facet normal -0.308962 -0.951074 -0
    outer loop
      vertex -7.00208 -5.00978 1
      vertex -7.00407 -5.00914 0
      vertex -7.00208 -5.00978 0
    endloop
  endfacet
  facet normal -0.499867 -0.866102 0
    outer loop
      vertex -7.00588 -5.00809 0
      vertex -7.00407 -5.00914 1
      vertex -7.00588 -5.00809 1
    endloop
  endfacet
  facet normal -0.499867 -0.866102 -0
    outer loop
      vertex -7.00407 -5.00914 1
      vertex -7.00588 -5.00809 0
      vertex -7.00407 -5.00914 0
    endloop
  endfacet
  facet normal -0.913435 0.406985 0
    outer loop
      vertex -7.00951 -4.99691 0
      vertex -7.00866 -4.995 1
      vertex -7.00866 -4.995 0
    endloop
  endfacet
  facet normal -0.913435 0.406985 0
    outer loop
      vertex -7.00866 -4.995 1
      vertex -7.00951 -4.99691 0
      vertex -7.00951 -4.99691 1
    endloop
  endfacet
  facet normal -0.913435 -0.406985 0
    outer loop
      vertex -7.00866 -5.005 0
      vertex -7.00951 -5.00309 1
      vertex -7.00951 -5.00309 0
    endloop
  endfacet
  facet normal -0.913435 -0.406985 0
    outer loop
      vertex -7.00951 -5.00309 1
      vertex -7.00866 -5.005 0
      vertex -7.00866 -5.005 1
    endloop
  endfacet
  facet normal -0.809209 -0.587521 0
    outer loop
      vertex -7.00743 -5.00669 0
      vertex -7.00866 -5.005 1
      vertex -7.00866 -5.005 0
    endloop
  endfacet
  facet normal -0.809209 -0.587521 0
    outer loop
      vertex -7.00866 -5.005 1
      vertex -7.00743 -5.00669 0
      vertex -7.00743 -5.00669 1
    endloop
  endfacet
  facet normal -0.978122 0.208033 0
    outer loop
      vertex -7.00994 -4.99895 0
      vertex -7.00951 -4.99691 1
      vertex -7.00951 -4.99691 0
    endloop
  endfacet
  facet normal -0.978122 0.208033 0
    outer loop
      vertex -7.00951 -4.99691 1
      vertex -7.00994 -4.99895 0
      vertex -7.00994 -4.99895 1
    endloop
  endfacet
  facet normal -0.809209 0.587521 0
    outer loop
      vertex -7.00866 -4.995 0
      vertex -7.00743 -4.99331 1
      vertex -7.00743 -4.99331 0
    endloop
  endfacet
  facet normal -0.809209 0.587521 0
    outer loop
      vertex -7.00743 -4.99331 1
      vertex -7.00866 -4.995 0
      vertex -7.00866 -4.995 1
    endloop
  endfacet
  facet normal 0.861052 -0.508516 0
    outer loop
      vertex -0.427096 9.48344e-017 1
      vertex 1.18459 2.72901 0
      vertex 1.18459 2.72901 1
    endloop
  endfacet
  facet normal 0.861052 -0.508516 0
    outer loop
      vertex 1.18459 2.72901 0
      vertex -0.427096 9.48344e-017 1
      vertex -0.427096 9.48344e-017 0
    endloop
  endfacet
  facet normal 0.241784 -0.97033 0
    outer loop
      vertex 1.18946 2.73282 0
      vertex 1.19149 2.73333 1
      vertex 1.18946 2.73282 1
    endloop
  endfacet
  facet normal 0.241784 -0.97033 0
    outer loop
      vertex 1.19149 2.73333 1
      vertex 1.18946 2.73282 0
      vertex 1.19149 2.73333 0
    endloop
  endfacet
  facet normal -0.997564 0.0697563 0
    outer loop
      vertex 1.08835 1.08593 0
      vertex 1.20288 2.72377 1
      vertex 1.20288 2.72377 0
    endloop
  endfacet
  facet normal -0.997564 0.0697563 0
    outer loop
      vertex 1.20288 2.72377 1
      vertex 1.08835 1.08593 0
      vertex 1.08835 1.08593 1
    endloop
  endfacet
  facet normal 0.76601 -0.642828 0
    outer loop
      vertex 1.18459 2.72901 1
      vertex 1.18594 2.73062 0
      vertex 1.18594 2.73062 1
    endloop
  endfacet
  facet normal 0.76601 -0.642828 0
    outer loop
      vertex 1.18594 2.73062 0
      vertex 1.18459 2.72901 1
      vertex 1.18459 2.72901 0
    endloop
  endfacet
  facet normal -0.990275 -0.139122 0
    outer loop
      vertex 1.20288 2.72377 0
      vertex 1.20258 2.72584 1
      vertex 1.20258 2.72584 0
    endloop
  endfacet
  facet normal -0.990275 -0.139122 0
    outer loop
      vertex 1.20258 2.72584 1
      vertex 1.20288 2.72377 0
      vertex 1.20288 2.72377 1
    endloop
  endfacet
  facet normal 0.0351221 -0.999383 0
    outer loop
      vertex 1.19149 2.73333 0
      vertex 1.19358 2.7334 1
      vertex 1.19149 2.73333 1
    endloop
  endfacet
  facet normal 0.0351221 -0.999383 0
    outer loop
      vertex 1.19358 2.7334 1
      vertex 1.19149 2.73333 0
      vertex 1.19358 2.7334 0
    endloop
  endfacet
  facet normal 0.615644 -0.788024 0
    outer loop
      vertex 1.18594 2.73062 0
      vertex 1.18758 2.7319 1
      vertex 1.18594 2.73062 1
    endloop
  endfacet
  facet normal 0.615644 -0.788024 0
    outer loop
      vertex 1.18758 2.7319 1
      vertex 1.18594 2.73062 0
      vertex 1.18758 2.7319 0
    endloop
  endfacet
  facet normal 0.438433 -0.898764 0
    outer loop
      vertex 1.18758 2.7319 0
      vertex 1.18946 2.73282 1
      vertex 1.18758 2.7319 1
    endloop
  endfacet
  facet normal 0.438433 -0.898764 0
    outer loop
      vertex 1.18946 2.73282 1
      vertex 1.18758 2.7319 0
      vertex 1.18946 2.73282 0
    endloop
  endfacet
  facet normal -0.374456 -0.927245 0
    outer loop
      vertex 1.19564 2.73304 0
      vertex 1.19758 2.73225 1
      vertex 1.19564 2.73304 1
    endloop
  endfacet
  facet normal -0.374456 -0.927245 -0
    outer loop
      vertex 1.19758 2.73225 1
      vertex 1.19564 2.73304 0
      vertex 1.19758 2.73225 0
    endloop
  endfacet
  facet normal -0.847973 -0.53004 0
    outer loop
      vertex 1.20187 2.72781 0
      vertex 1.20076 2.72958 1
      vertex 1.20076 2.72958 0
    endloop
  endfacet
  facet normal -0.847973 -0.53004 0
    outer loop
      vertex 1.20076 2.72958 1
      vertex 1.20187 2.72781 0
      vertex 1.20187 2.72781 1
    endloop
  endfacet
  facet normal -0.173863 -0.98477 0
    outer loop
      vertex 1.19358 2.7334 0
      vertex 1.19564 2.73304 1
      vertex 1.19358 2.7334 1
    endloop
  endfacet
  facet normal -0.173863 -0.98477 -0
    outer loop
      vertex 1.19564 2.73304 1
      vertex 1.19358 2.7334 0
      vertex 1.19564 2.73304 0
    endloop
  endfacet
  facet normal -0.719315 -0.694684 0
    outer loop
      vertex 1.20076 2.72958 0
      vertex 1.19931 2.73108 1
      vertex 1.19931 2.73108 0
    endloop
  endfacet
  facet normal -0.719315 -0.694684 0
    outer loop
      vertex 1.19931 2.73108 1
      vertex 1.20076 2.72958 0
      vertex 1.20076 2.72958 1
    endloop
  endfacet
  facet normal -0.939807 -0.341706 0
    outer loop
      vertex 1.20258 2.72584 0
      vertex 1.20187 2.72781 1
      vertex 1.20187 2.72781 0
    endloop
  endfacet
  facet normal -0.939807 -0.341706 0
    outer loop
      vertex 1.20187 2.72781 1
      vertex 1.20258 2.72584 0
      vertex 1.20258 2.72584 1
    endloop
  endfacet
  facet normal -0.559324 -0.828949 0
    outer loop
      vertex 1.19758 2.73225 0
      vertex 1.19931 2.73108 1
      vertex 1.19758 2.73225 1
    endloop
  endfacet
  facet normal -0.559324 -0.828949 -0
    outer loop
      vertex 1.19931 2.73108 1
      vertex 1.19758 2.73225 0
      vertex 1.19931 2.73108 0
    endloop
  endfacet
  facet normal 0 1 -0
    outer loop
      vertex 3 5.99 0
      vertex 1.44127 5.99 1
      vertex 3 5.99 1
    endloop
  endfacet
  facet normal 0 1 0
    outer loop
      vertex 1.44127 5.99 1
      vertex 3 5.99 0
      vertex 1.44127 5.99 0
    endloop
  endfacet
  facet normal -0.104471 0.994528 0
    outer loop
      vertex 3.00208 5.99022 0
      vertex 3 5.99 1
      vertex 3.00208 5.99022 1
    endloop
  endfacet
  facet normal -0.104471 0.994528 0
    outer loop
      vertex 3 5.99 1
      vertex 3.00208 5.99022 0
      vertex 3 5.99 0
    endloop
  endfacet
  facet normal -0.978122 0.208033 0
    outer loop
      vertex 3.00951 5.99691 0
      vertex 3.00994 5.99895 1
      vertex 3.00994 5.99895 0
    endloop
  endfacet
  facet normal -0.978122 0.208033 0
    outer loop
      vertex 3.00994 5.99895 1
      vertex 3.00951 5.99691 0
      vertex 3.00951 5.99691 1
    endloop
  endfacet
  facet normal -0.308962 0.951074 0
    outer loop
      vertex 3.00407 5.99086 0
      vertex 3.00208 5.99022 1
      vertex 3.00407 5.99086 1
    endloop
  endfacet
  facet normal -0.308962 0.951074 0
    outer loop
      vertex 3.00208 5.99022 1
      vertex 3.00407 5.99086 0
      vertex 3.00208 5.99022 0
    endloop
  endfacet
  facet normal -0.669192 0.74309 0
    outer loop
      vertex 3.00743 5.99331 0
      vertex 3.00588 5.99191 1
      vertex 3.00743 5.99331 1
    endloop
  endfacet
  facet normal -0.669192 0.74309 0
    outer loop
      vertex 3.00588 5.99191 1
      vertex 3.00743 5.99331 0
      vertex 3.00588 5.99191 0
    endloop
  endfacet
  facet normal -0.499867 0.866102 0
    outer loop
      vertex 3.00588 5.99191 0
      vertex 3.00407 5.99086 1
      vertex 3.00588 5.99191 1
    endloop
  endfacet
  facet normal -0.499867 0.866102 0
    outer loop
      vertex 3.00407 5.99086 1
      vertex 3.00588 5.99191 0
      vertex 3.00407 5.99086 0
    endloop
  endfacet
  facet normal -0.809209 0.587521 0
    outer loop
      vertex 3.00743 5.99331 0
      vertex 3.00866 5.995 1
      vertex 3.00866 5.995 0
    endloop
  endfacet
  facet normal -0.809209 0.587521 0
    outer loop
      vertex 3.00866 5.995 1
      vertex 3.00743 5.99331 0
      vertex 3.00743 5.99331 1
    endloop
  endfacet
  facet normal -0.913435 0.406985 0
    outer loop
      vertex 3.00866 5.995 0
      vertex 3.00951 5.99691 1
      vertex 3.00951 5.99691 0
    endloop
  endfacet
  facet normal -0.913435 0.406985 0
    outer loop
      vertex 3.00951 5.99691 1
      vertex 3.00866 5.995 0
      vertex 3.00866 5.995 1
    endloop
  endfacet
  facet normal 0.857493 -0.514496 0
    outer loop
      vertex -3.41766 -5.01 1
      vertex -2.85499 -4.07221 0
      vertex -2.85499 -4.07221 1
    endloop
  endfacet
  facet normal 0.857493 -0.514496 0
    outer loop
      vertex -2.85499 -4.07221 0
      vertex -3.41766 -5.01 1
      vertex -3.41766 -5.01 0
    endloop
  endfacet
  facet normal 0.857493 -0.514496 0
    outer loop
      vertex -2.59816 -3.64416 1
      vertex -1.19166 -1.3 0
      vertex -1.19166 -1.3 1
    endloop
  endfacet
  facet normal 0.857493 -0.514496 0
    outer loop
      vertex -1.19166 -1.3 0
      vertex -2.59816 -3.64416 1
      vertex -2.59816 -3.64416 0
    endloop
  endfacet
  facet normal -1 0 0
    outer loop
      vertex 1.00994 -3.2 0
      vertex 1.00994 -2.51335 1
      vertex 1.00994 -2.51335 0
    endloop
  endfacet
  facet normal -1 -0 0
    outer loop
      vertex 1.00994 -2.51335 1
      vertex 1.00994 -3.2 0
      vertex 1.00994 -3.2 1
    endloop
  endfacet
  facet normal 0 -1 0
    outer loop
      vertex 1.00994 -3.2 0
      vertex 3.00994 -3.2 1
      vertex 1.00994 -3.2 1
    endloop
  endfacet
  facet normal 0 -1 -0
    outer loop
      vertex 3.00994 -3.2 1
      vertex 1.00994 -3.2 0
      vertex 3.00994 -3.2 0
    endloop
  endfacet
  facet normal -0.664364 0.747409 0
    outer loop
      vertex 3.00994 -0.735576 0
      vertex 1.00994 -2.51335 1
      vertex 3.00994 -0.735576 1
    endloop
  endfacet
  facet normal -0.664364 0.747409 0
    outer loop
      vertex 1.00994 -2.51335 1
      vertex 3.00994 -0.735576 0
      vertex 1.00994 -2.51335 0
    endloop
  endfacet
  facet normal -0.664364 -0.74741 0
    outer loop
      vertex 1.08835 1.08593 0
      vertex 3.00994 -0.622162 1
      vertex 1.08835 1.08593 1
    endloop
  endfacet
  facet normal -0.664364 -0.74741 -0
    outer loop
      vertex 3.00994 -0.622162 1
      vertex 1.08835 1.08593 0
      vertex 3.00994 -0.622162 0
    endloop
  endfacet
  facet normal 0.229449 -0.973321 0
    outer loop
      vertex 0.974227 -2.4221 0
      vertex 0.976751 -2.4215 1
      vertex 0.974227 -2.4221 1
    endloop
  endfacet
  facet normal 0.229449 -0.973321 0
    outer loop
      vertex 0.976751 -2.4215 1
      vertex 0.974227 -2.4221 0
      vertex 0.976751 -2.4215 0
    endloop
  endfacet
  facet normal 0.735751 -0.677252 0
    outer loop
      vertex 2.92565 -0.707813 1
      vertex 2.9273 -0.706026 0
      vertex 2.9273 -0.706026 1
    endloop
  endfacet
  facet normal 0.735751 -0.677252 0
    outer loop
      vertex 2.9273 -0.706026 0
      vertex 2.92565 -0.707813 1
      vertex 2.92565 -0.707813 0
    endloop
  endfacet
  facet normal 0.660628 -0.750713 0
    outer loop
      vertex 0.981111 -2.41901 0
      vertex 2.92565 -0.707813 1
      vertex 0.981111 -2.41901 1
    endloop
  endfacet
  facet normal 0.660628 -0.750713 0
    outer loop
      vertex 2.92565 -0.707813 1
      vertex 0.981111 -2.41901 0
      vertex 2.92565 -0.707813 0
    endloop
  endfacet
  facet normal -0.999651 0.0264179 0
    outer loop
      vertex 0.959788 -2.41181 0
      vertex 0.98917 -1.3 1
      vertex 0.98917 -1.3 0
    endloop
  endfacet
  facet normal -0.999651 0.0264179 0
    outer loop
      vertex 0.98917 -1.3 1
      vertex 0.959788 -2.41181 0
      vertex 0.959788 -2.41181 1
    endloop
  endfacet
  facet normal -0.999651 0.0264178 0
    outer loop
      vertex 1.02353 -2.27268e-016 0
      vertex 1.04818 0.932805 1
      vertex 1.04818 0.932805 0
    endloop
  endfacet
  facet normal -0.999651 0.0264178 0
    outer loop
      vertex 1.04818 0.932805 1
      vertex 1.02353 -2.27268e-016 0
      vertex 1.02353 -2.27268e-016 1
    endloop
  endfacet
  facet normal 0.660628 0.750714 -0
    outer loop
      vertex 2.92653 -0.693112 0
      vertex 1.06853 0.941929 1
      vertex 2.92653 -0.693112 1
    endloop
  endfacet
  facet normal 0.660628 0.750714 0
    outer loop
      vertex 1.06853 0.941929 1
      vertex 2.92653 -0.693112 0
      vertex 1.06853 0.941929 0
    endloop
  endfacet
  facet normal 0.804606 0.593809 0
    outer loop
      vertex 2.92795 -0.695042 1
      vertex 2.92653 -0.693112 0
      vertex 2.92653 -0.693112 1
    endloop
  endfacet
  facet normal 0.804606 0.593809 0
    outer loop
      vertex 2.92653 -0.693112 0
      vertex 2.92795 -0.695042 1
      vertex 2.92795 -0.695042 0
    endloop
  endfacet
  facet normal -0.998241 0.0592809 0
    outer loop
      vertex 1.04818 0.932805 0
      vertex 1.04831 0.935102 1
      vertex 1.04831 0.935102 0
    endloop
  endfacet
  facet normal -0.998241 0.0592809 0
    outer loop
      vertex 1.04831 0.935102 1
      vertex 1.04818 0.932805 0
      vertex 1.04818 0.932805 1
    endloop
  endfacet
  facet normal -0.137987 -0.990434 0
    outer loop
      vertex 0.969036 -2.42186 0
      vertex 0.971617 -2.42222 1
      vertex 0.969036 -2.42186 1
    endloop
  endfacet
  facet normal -0.137987 -0.990434 -0
    outer loop
      vertex 0.971617 -2.42222 1
      vertex 0.969036 -2.42186 0
      vertex 0.971617 -2.42222 0
    endloop
  endfacet
  facet normal 0.865353 -0.501163 0
    outer loop
      vertex 2.9273 -0.706026 1
      vertex 2.92848 -0.703978 0
      vertex 2.92848 -0.703978 1
    endloop
  endfacet
  facet normal 0.865353 -0.501163 0
    outer loop
      vertex 2.92848 -0.703978 0
      vertex 2.9273 -0.706026 1
      vertex 2.9273 -0.706026 0
    endloop
  endfacet
  facet normal 0.580116 -0.814534 0
    outer loop
      vertex 0.979079 -2.42046 0
      vertex 0.981111 -2.41901 1
      vertex 0.979079 -2.42046 1
    endloop
  endfacet
  facet normal 0.580116 -0.814534 0
    outer loop
      vertex 0.981111 -2.41901 1
      vertex 0.979079 -2.42046 0
      vertex 0.981111 -2.41901 0
    endloop
  endfacet
  facet normal 0.409292 -0.912403 0
    outer loop
      vertex 0.976751 -2.4215 0
      vertex 0.979079 -2.42046 1
      vertex 0.976751 -2.4215 1
    endloop
  endfacet
  facet normal 0.409292 -0.912403 0
    outer loop
      vertex 0.979079 -2.42046 1
      vertex 0.976751 -2.4215 0
      vertex 0.979079 -2.42046 0
    endloop
  endfacet
  facet normal -0.320003 -0.947417 0
    outer loop
      vertex 0.966597 -2.42103 0
      vertex 0.969036 -2.42186 1
      vertex 0.966597 -2.42103 1
    endloop
  endfacet
  facet normal -0.320003 -0.947417 -0
    outer loop
      vertex 0.969036 -2.42186 1
      vertex 0.966597 -2.42103 0
      vertex 0.969036 -2.42186 0
    endloop
  endfacet
  facet normal -0.496098 -0.868266 0
    outer loop
      vertex 0.964405 -2.41978 0
      vertex 0.966597 -2.42103 1
      vertex 0.964405 -2.41978 1
    endloop
  endfacet
  facet normal -0.496098 -0.868266 -0
    outer loop
      vertex 0.966597 -2.42103 1
      vertex 0.964405 -2.41978 0
      vertex 0.966597 -2.42103 0
    endloop
  endfacet
  facet normal 0.0459871 -0.998942 0
    outer loop
      vertex 0.971617 -2.42222 0
      vertex 0.974227 -2.4221 1
      vertex 0.971617 -2.42222 1
    endloop
  endfacet
  facet normal 0.0459871 -0.998942 0
    outer loop
      vertex 0.974227 -2.4221 1
      vertex 0.971617 -2.42222 0
      vertex 0.974227 -2.4221 0
    endloop
  endfacet
  facet normal -0.916577 -0.399857 0
    outer loop
      vertex 0.961134 -2.41623 0
      vertex 0.960197 -2.41408 1
      vertex 0.960197 -2.41408 0
    endloop
  endfacet
  facet normal -0.916577 -0.399857 0
    outer loop
      vertex 0.960197 -2.41408 1
      vertex 0.961134 -2.41623 0
      vertex 0.961134 -2.41623 1
    endloop
  endfacet
  facet normal -0.660532 -0.750798 0
    outer loop
      vertex 0.962557 -2.41816 0
      vertex 0.964405 -2.41978 1
      vertex 0.962557 -2.41816 1
    endloop
  endfacet
  facet normal -0.660532 -0.750798 -0
    outer loop
      vertex 0.964405 -2.41978 1
      vertex 0.962557 -2.41816 0
      vertex 0.964405 -2.41978 0
    endloop
  endfacet
  facet normal 0.496383 0.868104 -0
    outer loop
      vertex 1.06853 0.941929 0
      vertex 1.06633 0.943182 1
      vertex 1.06853 0.941929 1
    endloop
  endfacet
  facet normal 0.496383 0.868104 0
    outer loop
      vertex 1.06633 0.943182 1
      vertex 1.06853 0.941929 0
      vertex 1.06633 0.943182 0
    endloop
  endfacet
  facet normal 0.137937 0.990441 -0
    outer loop
      vertex 1.0639 0.944006 0
      vertex 1.06131 0.944366 1
      vertex 1.0639 0.944006 1
    endloop
  endfacet
  facet normal 0.137937 0.990441 0
    outer loop
      vertex 1.06131 0.944366 1
      vertex 1.0639 0.944006 0
      vertex 1.06131 0.944366 0
    endloop
  endfacet
  facet normal 0.956654 -0.291227 0
    outer loop
      vertex 2.92848 -0.703978 1
      vertex 2.92916 -0.701756 0
      vertex 2.92916 -0.701756 1
    endloop
  endfacet
  facet normal 0.956654 -0.291227 0
    outer loop
      vertex 2.92916 -0.701756 0
      vertex 2.92848 -0.703978 1
      vertex 2.92848 -0.703978 0
    endloop
  endfacet
  facet normal -0.956539 0.291603 0
    outer loop
      vertex 1.04831 0.935102 0
      vertex 1.04899 0.937323 1
      vertex 1.04899 0.937323 0
    endloop
  endfacet
  facet normal -0.956539 0.291603 0
    outer loop
      vertex 1.04899 0.937323 1
      vertex 1.04831 0.935102 0
      vertex 1.04831 0.935102 1
    endloop
  endfacet
  facet normal -0.804796 -0.593552 0
    outer loop
      vertex 0.962557 -2.41816 0
      vertex 0.961134 -2.41623 1
      vertex 0.961134 -2.41623 0
    endloop
  endfacet
  facet normal -0.804796 -0.593552 0
    outer loop
      vertex 0.961134 -2.41623 1
      vertex 0.962557 -2.41816 0
      vertex 0.962557 -2.41816 1
    endloop
  endfacet
  facet normal -0.735947 0.67704 0
    outer loop
      vertex 1.05018 0.939371 0
      vertex 1.05182 0.941158 1
      vertex 1.05182 0.941158 0
    endloop
  endfacet
  facet normal -0.735947 0.67704 0
    outer loop
      vertex 1.05182 0.941158 1
      vertex 1.05018 0.939371 0
      vertex 1.05018 0.939371 1
    endloop
  endfacet
  facet normal -0.58037 0.814353 0
    outer loop
      vertex 1.05385 0.942606 0
      vertex 1.05182 0.941158 1
      vertex 1.05385 0.942606 1
    endloop
  endfacet
  facet normal -0.58037 0.814353 0
    outer loop
      vertex 1.05182 0.941158 1
      vertex 1.05385 0.942606 0
      vertex 1.05182 0.941158 0
    endloop
  endfacet
  facet normal 0.320003 0.947417 -0
    outer loop
      vertex 1.06633 0.943182 0
      vertex 1.0639 0.944006 1
      vertex 1.06633 0.943182 1
    endloop
  endfacet
  facet normal 0.320003 0.947417 0
    outer loop
      vertex 1.0639 0.944006 1
      vertex 1.06633 0.943182 0
      vertex 1.0639 0.944006 0
    endloop
  endfacet
  facet normal -0.984166 -0.177249 0
    outer loop
      vertex 0.960197 -2.41408 0
      vertex 0.959788 -2.41181 1
      vertex 0.959788 -2.41181 0
    endloop
  endfacet
  facet normal -0.984166 -0.177249 0
    outer loop
      vertex 0.959788 -2.41181 1
      vertex 0.960197 -2.41408 0
      vertex 0.960197 -2.41408 1
    endloop
  endfacet
  facet normal -0.409292 0.912403 0
    outer loop
      vertex 1.05618 0.94365 0
      vertex 1.05385 0.942606 1
      vertex 1.05618 0.94365 1
    endloop
  endfacet
  facet normal -0.409292 0.912403 0
    outer loop
      vertex 1.05385 0.942606 1
      vertex 1.05618 0.94365 0
      vertex 1.05385 0.942606 0
    endloop
  endfacet
  facet normal -0.229449 0.973321 0
    outer loop
      vertex 1.0587 0.944245 0
      vertex 1.05618 0.94365 1
      vertex 1.0587 0.944245 1
    endloop
  endfacet
  facet normal -0.229449 0.973321 0
    outer loop
      vertex 1.05618 0.94365 1
      vertex 1.0587 0.944245 0
      vertex 1.05618 0.94365 0
    endloop
  endfacet
  facet normal -0.0460039 0.998941 0
    outer loop
      vertex 1.06131 0.944366 0
      vertex 1.0587 0.944245 1
      vertex 1.06131 0.944366 1
    endloop
  endfacet
  facet normal -0.0460039 0.998941 0
    outer loop
      vertex 1.0587 0.944245 1
      vertex 1.06131 0.944366 0
      vertex 1.0587 0.944245 0
    endloop
  endfacet
  facet normal 0.984225 0.176921 0
    outer loop
      vertex 2.9293 -0.699459 1
      vertex 2.92889 -0.697188 0
      vertex 2.92889 -0.697188 1
    endloop
  endfacet
  facet normal 0.984225 0.176921 0
    outer loop
      vertex 2.92889 -0.697188 0
      vertex 2.9293 -0.699459 1
      vertex 2.9293 -0.699459 0
    endloop
  endfacet
  facet normal 0.998243 -0.0592564 0
    outer loop
      vertex 2.92916 -0.701756 1
      vertex 2.9293 -0.699459 0
      vertex 2.9293 -0.699459 1
    endloop
  endfacet
  facet normal 0.998243 -0.0592564 0
    outer loop
      vertex 2.9293 -0.699459 0
      vertex 2.92916 -0.701756 1
      vertex 2.92916 -0.701756 0
    endloop
  endfacet
  facet normal 0.916577 0.399857 0
    outer loop
      vertex 2.92889 -0.697188 1
      vertex 2.92795 -0.695042 0
      vertex 2.92795 -0.695042 1
    endloop
  endfacet
  facet normal 0.916577 0.399857 0
    outer loop
      vertex 2.92795 -0.695042 0
      vertex 2.92889 -0.697188 1
      vertex 2.92889 -0.697188 0
    endloop
  endfacet
  facet normal -0.865353 0.501163 0
    outer loop
      vertex 1.04899 0.937323 0
      vertex 1.05018 0.939371 1
      vertex 1.05018 0.939371 0
    endloop
  endfacet
  facet normal -0.865353 0.501163 0
    outer loop
      vertex 1.05018 0.939371 1
      vertex 1.04899 0.937323 0
      vertex 1.04899 0.937323 1
    endloop
  endfacet
  facet normal 0 -1 0
    outer loop
      vertex -1.19166 -1.3 0
      vertex 0.98917 -1.3 1
      vertex -1.19166 -1.3 1
    endloop
  endfacet
  facet normal 0 -1 -0
    outer loop
      vertex 0.98917 -1.3 1
      vertex -1.19166 -1.3 0
      vertex 0.98917 -1.3 0
    endloop
  endfacet
  facet normal 2.22045e-016 1 -0
    outer loop
      vertex 1.02353 -2.27268e-016 0
      vertex -0.427096 9.48344e-017 1
      vertex 1.02353 -2.27268e-016 1
    endloop
  endfacet
  facet normal 2.22045e-016 1 0
    outer loop
      vertex -0.427096 9.48344e-017 1
      vertex 1.02353 -2.27268e-016 0
      vertex -0.427096 9.48344e-017 0
    endloop
  endfacet
endsolid OpenSCAD_Model
